<svg width="90" height="151" viewBox="0 0 90 151" fill="none" xmlns="http://www.w3.org/2000/svg">
<path d="M65.9441 12.2227H22.0609C15.5282 12.2227 10.2324 17.481 10.2324 23.9674V128.035C10.2324 134.522 15.5282 139.78 22.0609 139.78H65.9441C72.4768 139.78 77.7725 134.522 77.7725 128.035V23.9674C77.7725 17.481 72.4768 12.2227 65.9441 12.2227Z" stroke="black" stroke-width="3" stroke-linecap="round" stroke-linejoin="round"/>
<path d="M10.2324 30.8047H77.7678" stroke="black" stroke-width="3" stroke-linecap="round" stroke-linejoin="round"/>
<path d="M10.2324 121.805H77.7678" stroke="black" stroke-width="3" stroke-linecap="round" stroke-linejoin="round"/>
<path d="M33.9277 21.4082H47.6546" stroke="black" stroke-width="3" stroke-linecap="round" stroke-linejoin="round"/>
<path d="M53.0273 21.4082H54.0741" stroke="black" stroke-width="3" stroke-linecap="round" stroke-linejoin="round"/>
<path d="M43.9989 134.443C46.1405 134.443 47.8767 132.719 47.8767 130.593C47.8767 128.466 46.1405 126.742 43.9989 126.742C41.8572 126.742 40.1211 128.466 40.1211 130.593C40.1211 132.719 41.8572 134.443 43.9989 134.443Z" stroke="black" stroke-width="3" stroke-linecap="round" stroke-linejoin="round"/>
</svg>
