<svg width="96" height="106" viewBox="0 0 96 106" fill="none" xmlns="http://www.w3.org/2000/svg">
<path d="M55.2519 97.5729L55.2525 97.5733C59.1189 100.217 63.6479 101.619 68.3497 101.619C81.1887 101.619 91.6312 91.1489 91.6312 78.281V27.719C91.6312 14.8511 81.1887 4.38097 68.3497 4.38097C55.5106 4.38097 45.0681 14.8511 45.0681 27.719V48.2386C45.0681 49.3108 44.2002 50.1791 43.1337 50.1791C42.0672 50.1791 41.1992 49.3108 41.1992 48.2386V27.719C41.1992 12.7116 53.3777 0.5 68.3497 0.5C83.3217 0.5 95.5001 12.7116 95.5001 27.719V78.281C95.5001 93.2883 83.3169 105.5 68.3497 105.5C62.8657 105.5 57.5793 103.866 53.0715 100.78C52.1881 100.174 51.9602 98.9663 52.5638 98.0818C53.1684 97.196 54.3713 96.9689 55.2519 97.5729Z" fill="black" stroke="white"/>
<path d="M52.8719 57.7834C51.8054 57.7834 50.9375 56.9151 50.9375 55.8429V27.7188C50.9375 18.0903 58.7485 10.2617 68.3502 10.2617C69.4167 10.2617 70.2846 11.13 70.2846 12.2022C70.2846 13.2744 69.4167 14.1427 68.3502 14.1427C60.8815 14.1427 54.8064 20.2346 54.8064 27.7188V55.8429C54.8064 56.9151 53.9385 57.7834 52.8719 57.7834Z" fill="black" stroke="white"/>
<path d="M68.3505 95.7385C67.284 95.7385 66.416 94.8702 66.416 93.798C66.416 92.7258 67.284 91.8575 68.3505 91.8575C75.8191 91.8575 81.8942 85.7656 81.8942 78.2814V50.1573C81.8942 49.0851 82.7622 48.2168 83.8287 48.2168C84.8952 48.2168 85.7631 49.0851 85.7631 50.1573V78.2814C85.7631 87.9099 77.9521 95.7385 68.3505 95.7385Z" fill="black" stroke="white"/>
<path d="M27.6505 105.501C12.6784 105.501 0.5 93.2889 0.5 78.2815C0.5 63.2742 12.6833 51.0625 27.6505 51.0625C42.6177 51.0625 54.8009 63.2742 54.8009 78.2815C54.8009 93.2889 42.6177 105.501 27.6505 105.501ZM27.6505 54.9386C14.8114 54.9386 4.3689 65.4088 4.3689 78.2766C4.3689 91.1445 14.8114 101.615 27.6505 101.615C40.4895 101.615 50.932 91.1445 50.932 78.2766C50.932 65.4088 40.4895 54.9386 27.6505 54.9386Z" fill="black" stroke="white"/>
<path d="M40.4707 76.3408H41.0742L40.962 75.7479C39.7742 69.4698 34.2605 64.7052 27.6509 64.7052C26.5844 64.7052 25.7165 63.8369 25.7165 62.7647C25.7165 61.6925 26.5844 60.8242 27.6509 60.8242C37.2526 60.8242 45.0636 68.6528 45.0636 78.2813C45.0636 79.3535 44.1957 80.2218 43.1292 80.2218H14.836H14.2325L14.3447 80.8147C15.5325 87.0927 21.0461 91.8574 27.6509 91.8574C28.7175 91.8574 29.5854 92.7257 29.5854 93.7979C29.5854 94.8701 28.7175 95.7384 27.6509 95.7384C18.0493 95.7384 10.2383 87.9098 10.2383 78.2813C10.2383 77.2091 11.1062 76.3408 12.1727 76.3408H40.4707Z" fill="black" stroke="white"/>
</svg>
