<svg width="253" height="89" viewBox="0 0 253 89" fill="none" xmlns="http://www.w3.org/2000/svg">
<rect x="2" y="2" width="249" height="85" rx="42.5" stroke="white" stroke-width="4"/>
<path d="M99.2942 46.1152L93.6204 63H89.6419L97.0794 43.0938H99.6224L99.2942 46.1152ZM104.038 63L98.3372 46.1152L97.9954 43.0938H100.552L108.031 63H104.038ZM103.779 55.6035V58.5703H93.1009V55.6035H103.779ZM113.062 51.0508V68.6875H109.439V48.207H112.788L113.062 51.0508ZM122.564 55.4531V55.7402C122.564 56.8158 122.436 57.8138 122.181 58.7344C121.935 59.6458 121.57 60.4434 121.087 61.127C120.604 61.8014 120.003 62.3301 119.283 62.7129C118.572 63.0866 117.751 63.2734 116.822 63.2734C115.91 63.2734 115.117 63.1003 114.443 62.7539C113.768 62.3984 113.199 61.8971 112.734 61.25C112.269 60.6029 111.895 59.8509 111.613 58.9941C111.339 58.1283 111.134 57.1849 110.997 56.1641V55.248C111.134 54.1634 111.339 53.179 111.613 52.2949C111.895 51.4017 112.269 50.6315 112.734 49.9844C113.199 49.3281 113.764 48.8223 114.429 48.4668C115.103 48.1113 115.892 47.9336 116.794 47.9336C117.733 47.9336 118.558 48.1113 119.269 48.4668C119.989 48.8223 120.595 49.3327 121.087 49.998C121.579 50.6634 121.949 51.4564 122.195 52.377C122.441 53.2975 122.564 54.3229 122.564 55.4531ZM118.941 55.7402V55.4531C118.941 54.7969 118.881 54.1908 118.763 53.6348C118.645 53.0697 118.462 52.5775 118.216 52.1582C117.97 51.7298 117.651 51.3971 117.259 51.1602C116.867 50.9232 116.393 50.8047 115.837 50.8047C115.281 50.8047 114.803 50.8958 114.402 51.0781C114.001 51.2604 113.672 51.5202 113.417 51.8574C113.162 52.1947 112.962 52.5957 112.816 53.0605C112.679 53.5163 112.588 54.0221 112.542 54.5781V56.8477C112.624 57.5221 112.784 58.1283 113.021 58.666C113.258 59.2038 113.604 59.6322 114.06 59.9512C114.525 60.2702 115.126 60.4297 115.865 60.4297C116.421 60.4297 116.895 60.3066 117.286 60.0605C117.678 59.8145 117.997 59.4772 118.243 59.0488C118.49 58.6113 118.667 58.11 118.777 57.5449C118.886 56.9798 118.941 56.3783 118.941 55.7402ZM128.812 51.0508V68.6875H125.189V48.207H128.538L128.812 51.0508ZM138.314 55.4531V55.7402C138.314 56.8158 138.186 57.8138 137.931 58.7344C137.685 59.6458 137.32 60.4434 136.837 61.127C136.354 61.8014 135.753 62.3301 135.033 62.7129C134.322 63.0866 133.501 63.2734 132.572 63.2734C131.66 63.2734 130.867 63.1003 130.193 62.7539C129.518 62.3984 128.949 61.8971 128.484 61.25C128.019 60.6029 127.645 59.8509 127.363 58.9941C127.089 58.1283 126.884 57.1849 126.747 56.1641V55.248C126.884 54.1634 127.089 53.179 127.363 52.2949C127.645 51.4017 128.019 50.6315 128.484 49.9844C128.949 49.3281 129.514 48.8223 130.179 48.4668C130.853 48.1113 131.642 47.9336 132.544 47.9336C133.483 47.9336 134.308 48.1113 135.019 48.4668C135.739 48.8223 136.345 49.3327 136.837 49.998C137.329 50.6634 137.699 51.4564 137.945 52.377C138.191 53.2975 138.314 54.3229 138.314 55.4531ZM134.691 55.7402V55.4531C134.691 54.7969 134.631 54.1908 134.513 53.6348C134.395 53.0697 134.212 52.5775 133.966 52.1582C133.72 51.7298 133.401 51.3971 133.009 51.1602C132.617 50.9232 132.143 50.8047 131.587 50.8047C131.031 50.8047 130.553 50.8958 130.152 51.0781C129.751 51.2604 129.422 51.5202 129.167 51.8574C128.912 52.1947 128.712 52.5957 128.566 53.0605C128.429 53.5163 128.338 54.0221 128.292 54.5781V56.8477C128.374 57.5221 128.534 58.1283 128.771 58.666C129.008 59.2038 129.354 59.6322 129.81 59.9512C130.275 60.2702 130.876 60.4297 131.615 60.4297C132.171 60.4297 132.645 60.3066 133.036 60.0605C133.428 59.8145 133.747 59.4772 133.993 59.0488C134.24 58.6113 134.417 58.11 134.527 57.5449C134.636 56.9798 134.691 56.3783 134.691 55.7402ZM158.617 57.832C158.617 57.4492 158.557 57.1074 158.439 56.8066C158.329 56.4967 158.124 56.2188 157.824 55.9727C157.532 55.7174 157.117 55.4714 156.579 55.2344C156.051 54.9883 155.367 54.7331 154.529 54.4688C153.599 54.1771 152.733 53.849 151.931 53.4844C151.129 53.1198 150.422 52.696 149.812 52.2129C149.21 51.7298 148.741 51.1738 148.404 50.5449C148.066 49.9069 147.898 49.1686 147.898 48.3301C147.898 47.5098 148.071 46.7624 148.417 46.0879C148.773 45.4134 149.274 44.8346 149.921 44.3516C150.568 43.8594 151.329 43.4811 152.204 43.2168C153.089 42.9525 154.064 42.8203 155.13 42.8203C156.607 42.8203 157.883 43.0892 158.958 43.627C160.043 44.1647 160.881 44.8939 161.474 45.8145C162.066 46.735 162.363 47.7695 162.363 48.918H158.617C158.617 48.2982 158.484 47.7513 158.22 47.2773C157.965 46.8034 157.573 46.4297 157.044 46.1562C156.525 45.8828 155.868 45.7461 155.075 45.7461C154.31 45.7461 153.672 45.86 153.161 46.0879C152.66 46.3158 152.282 46.6257 152.027 47.0176C151.781 47.4095 151.658 47.847 151.658 48.3301C151.658 48.6947 151.744 49.0228 151.917 49.3145C152.09 49.597 152.35 49.8659 152.697 50.1211C153.043 50.3672 153.471 50.5996 153.982 50.8184C154.501 51.028 155.103 51.2376 155.786 51.4473C156.88 51.7754 157.837 52.14 158.658 52.541C159.487 52.9421 160.175 53.3978 160.722 53.9082C161.278 54.4186 161.693 54.9928 161.966 55.6309C162.249 56.2689 162.39 56.9935 162.39 57.8047C162.39 58.6615 162.221 59.4271 161.884 60.1016C161.547 60.776 161.064 61.3503 160.435 61.8242C159.806 62.2982 159.049 62.6582 158.165 62.9043C157.29 63.1504 156.311 63.2734 155.226 63.2734C154.26 63.2734 153.303 63.1458 152.355 62.8906C151.416 62.6263 150.564 62.2344 149.798 61.7148C149.033 61.1862 148.422 60.5208 147.966 59.7188C147.51 58.9076 147.283 57.9596 147.283 56.875H151.056C151.056 57.5039 151.156 58.0417 151.357 58.4883C151.566 58.9258 151.858 59.2858 152.232 59.5684C152.615 59.8418 153.061 60.0423 153.572 60.1699C154.082 60.2975 154.633 60.3613 155.226 60.3613C155.992 60.3613 156.62 60.2565 157.113 60.0469C157.614 59.8281 157.988 59.5273 158.234 59.1445C158.489 58.7617 158.617 58.3242 158.617 57.832ZM172.015 48.207V50.8047H163.538V48.207H172.015ZM165.808 44.5703H169.431V58.7344C169.431 59.1719 169.49 59.5091 169.609 59.7461C169.727 59.9831 169.905 60.1426 170.142 60.2246C170.379 60.3066 170.661 60.3477 170.99 60.3477C171.227 60.3477 171.445 60.334 171.646 60.3066C171.846 60.2793 172.015 60.252 172.152 60.2246L172.165 62.9316C171.865 63.0319 171.523 63.1139 171.14 63.1777C170.766 63.2415 170.342 63.2734 169.868 63.2734C169.057 63.2734 168.346 63.1367 167.736 62.8633C167.125 62.5807 166.651 62.1296 166.314 61.5098C165.977 60.8809 165.808 60.0514 165.808 59.0215V44.5703ZM173.423 55.7539V55.4668C173.423 54.3822 173.578 53.3841 173.888 52.4727C174.198 51.5521 174.649 50.7546 175.242 50.0801C175.834 49.4056 176.559 48.8815 177.415 48.5078C178.272 48.125 179.247 47.9336 180.341 47.9336C181.453 47.9336 182.437 48.125 183.294 48.5078C184.16 48.8815 184.889 49.4056 185.482 50.0801C186.074 50.7546 186.525 51.5521 186.835 52.4727C187.145 53.3841 187.3 54.3822 187.3 55.4668V55.7539C187.3 56.8294 187.145 57.8275 186.835 58.748C186.525 59.6595 186.074 60.457 185.482 61.1406C184.889 61.8151 184.165 62.3392 183.308 62.7129C182.451 63.0866 181.471 63.2734 180.368 63.2734C179.275 63.2734 178.295 63.0866 177.429 62.7129C176.563 62.3392 175.834 61.8151 175.242 61.1406C174.649 60.457 174.198 59.6595 173.888 58.748C173.578 57.8275 173.423 56.8294 173.423 55.7539ZM177.033 55.4668V55.7539C177.033 56.401 177.096 57.0072 177.224 57.5723C177.352 58.1374 177.547 58.6341 177.812 59.0625C178.076 59.4909 178.418 59.8281 178.837 60.0742C179.266 60.3112 179.776 60.4297 180.368 60.4297C180.952 60.4297 181.453 60.3112 181.872 60.0742C182.292 59.8281 182.633 59.4909 182.898 59.0625C183.171 58.6341 183.372 58.1374 183.499 57.5723C183.627 57.0072 183.691 56.401 183.691 55.7539V55.4668C183.691 54.8288 183.627 54.2318 183.499 53.6758C183.372 53.1107 183.171 52.6139 182.898 52.1855C182.633 51.748 182.287 51.4062 181.859 51.1602C181.439 50.9049 180.934 50.7773 180.341 50.7773C179.758 50.7773 179.256 50.9049 178.837 51.1602C178.418 51.4062 178.076 51.748 177.812 52.1855C177.547 52.6139 177.352 53.1107 177.224 53.6758C177.096 54.2318 177.033 54.8288 177.033 55.4668ZM193.534 51.2285V63H189.925V48.207H193.343L193.534 51.2285ZM198.033 48.1113L197.978 51.4746C197.777 51.4382 197.549 51.4108 197.294 51.3926C197.048 51.3743 196.816 51.3652 196.597 51.3652C196.041 51.3652 195.553 51.4427 195.134 51.5977C194.715 51.7435 194.364 51.9577 194.081 52.2402C193.808 52.5228 193.598 52.8691 193.452 53.2793C193.307 53.6803 193.225 54.1361 193.206 54.6465L192.427 54.5508C192.427 53.612 192.523 52.7415 192.714 51.9395C192.906 51.1374 193.184 50.4355 193.548 49.834C193.913 49.2324 194.368 48.7676 194.915 48.4395C195.471 48.1022 196.109 47.9336 196.829 47.9336C197.03 47.9336 197.244 47.9518 197.472 47.9883C197.709 48.0156 197.896 48.0566 198.033 48.1113ZM206.386 63.2734C205.265 63.2734 204.258 63.0911 203.365 62.7266C202.471 62.362 201.71 61.8561 201.081 61.209C200.462 60.5527 199.983 59.7917 199.646 58.9258C199.318 58.0508 199.154 57.112 199.154 56.1094V55.5625C199.154 54.4232 199.318 53.3887 199.646 52.459C199.974 51.5202 200.439 50.7135 201.04 50.0391C201.642 49.3646 202.362 48.8451 203.2 48.4805C204.039 48.1159 204.964 47.9336 205.976 47.9336C207.024 47.9336 207.949 48.1113 208.751 48.4668C209.553 48.8132 210.223 49.3053 210.761 49.9434C211.299 50.5814 211.704 51.347 211.978 52.2402C212.251 53.1243 212.388 54.1042 212.388 55.1797V56.6973H200.794V54.209H208.833V53.9355C208.815 53.3613 208.706 52.8372 208.505 52.3633C208.305 51.8802 207.995 51.4974 207.575 51.2148C207.156 50.9232 206.614 50.7773 205.949 50.7773C205.411 50.7773 204.941 50.8958 204.54 51.1328C204.148 51.3607 203.82 51.6888 203.556 52.1172C203.301 52.5365 203.109 53.0378 202.982 53.6211C202.854 54.2044 202.79 54.8516 202.79 55.5625V56.1094C202.79 56.7292 202.872 57.3034 203.036 57.832C203.21 58.3607 203.46 58.821 203.788 59.2129C204.126 59.5957 204.527 59.8965 204.992 60.1152C205.465 60.3249 206.003 60.4297 206.605 60.4297C207.361 60.4297 208.045 60.2839 208.656 59.9922C209.275 59.6914 209.813 59.2493 210.269 58.666L212.087 60.5527C211.777 61.0085 211.358 61.446 210.829 61.8652C210.31 62.2845 209.681 62.6263 208.943 62.8906C208.204 63.1458 207.352 63.2734 206.386 63.2734Z" fill="white"/>
<path d="M98.01 31.6089H99.4163C99.343 32.2827 99.1502 32.8857 98.8377 33.418C98.5252 33.9502 98.0833 34.3726 97.512 34.6851C96.9407 34.9927 96.2278 35.1465 95.3733 35.1465C94.7483 35.1465 94.1795 35.0293 93.6668 34.7949C93.1589 34.5605 92.7219 34.2285 92.3557 33.7988C91.9895 33.3643 91.7063 32.8442 91.5061 32.2388C91.3108 31.6284 91.2131 30.9497 91.2131 30.2026V29.1406C91.2131 28.3936 91.3108 27.7173 91.5061 27.1118C91.7063 26.5015 91.992 25.979 92.363 25.5444C92.739 25.1099 93.1907 24.7754 93.718 24.541C94.2454 24.3066 94.8386 24.1895 95.4978 24.1895C96.3035 24.1895 96.9846 24.3408 97.5413 24.6436C98.0979 24.9463 98.53 25.3662 98.8377 25.9033C99.1502 26.4355 99.343 27.0532 99.4163 27.7563H98.01C97.9417 27.2583 97.8147 26.8311 97.6292 26.4746C97.4436 26.1133 97.1799 25.835 96.8381 25.6396C96.4963 25.4443 96.0496 25.3467 95.4978 25.3467C95.0242 25.3467 94.6067 25.437 94.2454 25.6177C93.8889 25.7983 93.5886 26.0547 93.3445 26.3867C93.1052 26.7188 92.9246 27.1167 92.8025 27.5806C92.6804 28.0444 92.6194 28.5596 92.6194 29.126V30.2026C92.6194 30.7251 92.6731 31.2158 92.7805 31.6748C92.8928 32.1338 93.0613 32.5366 93.2859 32.8833C93.5105 33.23 93.7962 33.5034 94.1428 33.7036C94.4895 33.8989 94.8997 33.9966 95.3733 33.9966C95.9739 33.9966 96.4524 33.9014 96.8088 33.7109C97.1653 33.5205 97.4338 33.2471 97.6145 32.8906C97.8001 32.5342 97.9319 32.1069 98.01 31.6089ZM100.779 31.1255V30.957C100.779 30.3857 100.862 29.856 101.028 29.3677C101.194 28.8745 101.433 28.4473 101.745 28.0859C102.058 27.7197 102.436 27.4365 102.881 27.2363C103.325 27.0312 103.823 26.9287 104.375 26.9287C104.931 26.9287 105.432 27.0312 105.876 27.2363C106.325 27.4365 106.706 27.7197 107.019 28.0859C107.336 28.4473 107.578 28.8745 107.744 29.3677C107.91 29.856 107.993 30.3857 107.993 30.957V31.1255C107.993 31.6968 107.91 32.2266 107.744 32.7148C107.578 33.2031 107.336 33.6304 107.019 33.9966C106.706 34.3579 106.328 34.6411 105.884 34.8462C105.444 35.0464 104.946 35.1465 104.389 35.1465C103.833 35.1465 103.332 35.0464 102.888 34.8462C102.444 34.6411 102.063 34.3579 101.745 33.9966C101.433 33.6304 101.194 33.2031 101.028 32.7148C100.862 32.2266 100.779 31.6968 100.779 31.1255ZM102.134 30.957V31.1255C102.134 31.521 102.18 31.8945 102.273 32.2461C102.365 32.5928 102.505 32.9004 102.69 33.1689C102.881 33.4375 103.117 33.6499 103.401 33.8062C103.684 33.9575 104.013 34.0332 104.389 34.0332C104.761 34.0332 105.085 33.9575 105.364 33.8062C105.647 33.6499 105.881 33.4375 106.067 33.1689C106.252 32.9004 106.391 32.5928 106.484 32.2461C106.582 31.8945 106.631 31.521 106.631 31.1255V30.957C106.631 30.5664 106.582 30.1978 106.484 29.8511C106.391 29.4995 106.25 29.1895 106.059 28.9209C105.874 28.6475 105.639 28.4326 105.356 28.2764C105.078 28.1201 104.751 28.042 104.375 28.042C104.004 28.042 103.677 28.1201 103.393 28.2764C103.115 28.4326 102.881 28.6475 102.69 28.9209C102.505 29.1895 102.365 29.4995 102.273 29.8511C102.18 30.1978 102.134 30.5664 102.134 30.957ZM111.04 28.6499V35H109.677V27.0752H110.967L111.04 28.6499ZM110.761 30.7373L110.132 30.7153C110.136 30.1733 110.207 29.6729 110.344 29.2139C110.481 28.75 110.683 28.3472 110.952 28.0054C111.22 27.6636 111.555 27.3999 111.955 27.2144C112.356 27.0239 112.82 26.9287 113.347 26.9287C113.718 26.9287 114.06 26.9824 114.372 27.0898C114.685 27.1924 114.956 27.356 115.185 27.5806C115.415 27.8052 115.593 28.0933 115.72 28.4448C115.847 28.7964 115.91 29.2212 115.91 29.7192V35H114.555V29.7852C114.555 29.3701 114.485 29.0381 114.343 28.7891C114.206 28.54 114.011 28.3594 113.757 28.2471C113.503 28.1299 113.205 28.0713 112.864 28.0713C112.463 28.0713 112.129 28.1421 111.86 28.2837C111.592 28.4253 111.377 28.6206 111.216 28.8696C111.054 29.1187 110.937 29.4043 110.864 29.7266C110.796 30.0439 110.761 30.3809 110.761 30.7373ZM115.896 29.9902L114.988 30.2686C114.992 29.834 115.063 29.4165 115.2 29.0161C115.342 28.6157 115.544 28.2593 115.808 27.9468C116.076 27.6343 116.406 27.3877 116.797 27.207C117.187 27.0215 117.634 26.9287 118.137 26.9287C118.562 26.9287 118.938 26.9849 119.265 27.0972C119.597 27.2095 119.875 27.3828 120.1 27.6172C120.329 27.8467 120.503 28.1421 120.62 28.5034C120.737 28.8647 120.796 29.2944 120.796 29.7925V35H119.433V29.7778C119.433 29.3335 119.363 28.9893 119.221 28.7451C119.084 28.4961 118.889 28.3228 118.635 28.2251C118.386 28.1226 118.088 28.0713 117.741 28.0713C117.444 28.0713 117.18 28.1226 116.95 28.2251C116.721 28.3276 116.528 28.4692 116.372 28.6499C116.216 28.8257 116.096 29.0283 116.013 29.2578C115.935 29.4873 115.896 29.7314 115.896 29.9902ZM124.319 27.0752V35H122.956V27.0752H124.319ZM122.854 24.9731C122.854 24.7534 122.92 24.5679 123.052 24.4165C123.188 24.2651 123.388 24.1895 123.652 24.1895C123.911 24.1895 124.109 24.2651 124.245 24.4165C124.387 24.5679 124.458 24.7534 124.458 24.9731C124.458 25.1831 124.387 25.3638 124.245 25.5151C124.109 25.6616 123.911 25.7349 123.652 25.7349C123.388 25.7349 123.188 25.6616 123.052 25.5151C122.92 25.3638 122.854 25.1831 122.854 24.9731ZM127.849 28.7671V35H126.494V27.0752H127.776L127.849 28.7671ZM127.527 30.7373L126.963 30.7153C126.968 30.1733 127.048 29.6729 127.204 29.2139C127.361 28.75 127.58 28.3472 127.864 28.0054C128.147 27.6636 128.484 27.3999 128.874 27.2144C129.27 27.0239 129.707 26.9287 130.185 26.9287C130.576 26.9287 130.927 26.9824 131.24 27.0898C131.552 27.1924 131.819 27.3584 132.038 27.5879C132.263 27.8174 132.434 28.1152 132.551 28.4814C132.668 28.8428 132.727 29.2847 132.727 29.8071V35H131.365V29.7925C131.365 29.3774 131.303 29.0454 131.181 28.7964C131.059 28.5425 130.881 28.3594 130.647 28.2471C130.412 28.1299 130.124 28.0713 129.782 28.0713C129.446 28.0713 129.138 28.1421 128.86 28.2837C128.586 28.4253 128.349 28.6206 128.149 28.8696C127.954 29.1187 127.8 29.4043 127.688 29.7266C127.58 30.0439 127.527 30.3809 127.527 30.7373ZM139.919 27.0752H141.15V34.8315C141.15 35.5298 141.008 36.1255 140.725 36.6187C140.442 37.1118 140.046 37.4854 139.538 37.7393C139.035 37.998 138.454 38.1274 137.795 38.1274C137.522 38.1274 137.199 38.0835 136.828 37.9956C136.462 37.9126 136.101 37.7686 135.744 37.5635C135.393 37.3633 135.097 37.0923 134.858 36.7505L135.569 35.9448C135.901 36.3452 136.247 36.6235 136.609 36.7798C136.975 36.936 137.336 37.0142 137.693 37.0142C138.122 37.0142 138.493 36.9336 138.806 36.7725C139.118 36.6113 139.36 36.3721 139.531 36.0547C139.707 35.7422 139.795 35.3564 139.795 34.8975V28.8184L139.919 27.0752ZM134.463 31.1255V30.9717C134.463 30.3662 134.533 29.8169 134.675 29.3237C134.822 28.8257 135.029 28.3984 135.298 28.042C135.571 27.6855 135.901 27.4121 136.286 27.2217C136.672 27.0264 137.107 26.9287 137.59 26.9287C138.088 26.9287 138.523 27.0166 138.894 27.1924C139.27 27.3633 139.587 27.6147 139.846 27.9468C140.11 28.2739 140.317 28.6694 140.469 29.1333C140.62 29.5972 140.725 30.1221 140.783 30.708V31.3818C140.73 31.9629 140.625 32.4854 140.469 32.9492C140.317 33.4131 140.11 33.8086 139.846 34.1357C139.587 34.4629 139.27 34.7144 138.894 34.8901C138.518 35.061 138.078 35.1465 137.575 35.1465C137.102 35.1465 136.672 35.0464 136.286 34.8462C135.906 34.646 135.578 34.3652 135.305 34.0039C135.032 33.6426 134.822 33.2178 134.675 32.7295C134.533 32.2363 134.463 31.7017 134.463 31.1255ZM135.818 30.9717V31.1255C135.818 31.521 135.857 31.8921 135.935 32.2388C136.018 32.5854 136.142 32.8906 136.308 33.1543C136.479 33.418 136.697 33.6255 136.96 33.7769C137.224 33.9233 137.539 33.9966 137.905 33.9966C138.354 33.9966 138.725 33.9014 139.018 33.7109C139.311 33.5205 139.543 33.269 139.714 32.9565C139.89 32.644 140.027 32.3047 140.124 31.9385V30.1733C140.071 29.9048 139.988 29.646 139.875 29.397C139.768 29.1431 139.626 28.9185 139.45 28.7231C139.28 28.5229 139.067 28.3643 138.813 28.2471C138.559 28.1299 138.261 28.0713 137.92 28.0713C137.549 28.0713 137.229 28.1494 136.96 28.3057C136.697 28.457 136.479 28.667 136.308 28.9355C136.142 29.1992 136.018 29.5068 135.935 29.8584C135.857 30.2051 135.818 30.5762 135.818 30.9717ZM151.543 32.8979C151.543 32.7026 151.499 32.522 151.411 32.356C151.328 32.1851 151.155 32.0312 150.891 31.8945C150.632 31.7529 150.241 31.6309 149.719 31.5283C149.28 31.4355 148.882 31.3257 148.525 31.1987C148.174 31.0718 147.873 30.918 147.624 30.7373C147.38 30.5566 147.192 30.3442 147.06 30.1001C146.928 29.856 146.863 29.5703 146.863 29.2432C146.863 28.9307 146.931 28.6353 147.068 28.3569C147.209 28.0786 147.407 27.832 147.661 27.6172C147.92 27.4023 148.23 27.2339 148.591 27.1118C148.952 26.9897 149.355 26.9287 149.8 26.9287C150.434 26.9287 150.976 27.041 151.426 27.2656C151.875 27.4902 152.219 27.7905 152.458 28.1665C152.698 28.5376 152.817 28.9502 152.817 29.4043H151.462C151.462 29.1846 151.396 28.9722 151.264 28.7671C151.137 28.5571 150.949 28.3838 150.7 28.2471C150.456 28.1104 150.156 28.042 149.8 28.042C149.424 28.042 149.118 28.1006 148.884 28.2178C148.655 28.3301 148.486 28.4741 148.379 28.6499C148.276 28.8257 148.225 29.0112 148.225 29.2065C148.225 29.353 148.249 29.4849 148.298 29.6021C148.352 29.7144 148.445 29.8193 148.576 29.917C148.708 30.0098 148.894 30.0977 149.133 30.1807C149.372 30.2637 149.677 30.3467 150.049 30.4297C150.698 30.5762 151.233 30.752 151.653 30.957C152.073 31.1621 152.385 31.4136 152.59 31.7114C152.795 32.0093 152.898 32.3706 152.898 32.7954C152.898 33.1421 152.824 33.4595 152.678 33.7476C152.536 34.0356 152.329 34.2847 152.055 34.4946C151.787 34.6997 151.465 34.8608 151.089 34.978C150.718 35.0903 150.3 35.1465 149.836 35.1465C149.138 35.1465 148.547 35.022 148.064 34.7729C147.58 34.5239 147.214 34.2017 146.965 33.8062C146.716 33.4106 146.592 32.9932 146.592 32.5537H147.954C147.973 32.9248 148.081 33.2202 148.276 33.4399C148.471 33.6548 148.711 33.8086 148.994 33.9014C149.277 33.9893 149.558 34.0332 149.836 34.0332C150.207 34.0332 150.517 33.9844 150.766 33.8867C151.02 33.7891 151.213 33.6548 151.345 33.4839C151.477 33.313 151.543 33.1177 151.543 32.8979ZM154.319 31.1255V30.957C154.319 30.3857 154.402 29.856 154.568 29.3677C154.734 28.8745 154.973 28.4473 155.285 28.0859C155.598 27.7197 155.976 27.4365 156.421 27.2363C156.865 27.0312 157.363 26.9287 157.915 26.9287C158.471 26.9287 158.972 27.0312 159.416 27.2363C159.865 27.4365 160.246 27.7197 160.559 28.0859C160.876 28.4473 161.118 28.8745 161.284 29.3677C161.45 29.856 161.533 30.3857 161.533 30.957V31.1255C161.533 31.6968 161.45 32.2266 161.284 32.7148C161.118 33.2031 160.876 33.6304 160.559 33.9966C160.246 34.3579 159.868 34.6411 159.424 34.8462C158.984 35.0464 158.486 35.1465 157.929 35.1465C157.373 35.1465 156.872 35.0464 156.428 34.8462C155.984 34.6411 155.603 34.3579 155.285 33.9966C154.973 33.6304 154.734 33.2031 154.568 32.7148C154.402 32.2266 154.319 31.6968 154.319 31.1255ZM155.674 30.957V31.1255C155.674 31.521 155.72 31.8945 155.813 32.2461C155.906 32.5928 156.045 32.9004 156.23 33.1689C156.421 33.4375 156.657 33.6499 156.941 33.8062C157.224 33.9575 157.553 34.0332 157.929 34.0332C158.301 34.0332 158.625 33.9575 158.904 33.8062C159.187 33.6499 159.421 33.4375 159.607 33.1689C159.792 32.9004 159.931 32.5928 160.024 32.2461C160.122 31.8945 160.171 31.521 160.171 31.1255V30.957C160.171 30.5664 160.122 30.1978 160.024 29.8511C159.931 29.4995 159.79 29.1895 159.599 28.9209C159.414 28.6475 159.179 28.4326 158.896 28.2764C158.618 28.1201 158.291 28.042 157.915 28.042C157.544 28.042 157.217 28.1201 156.933 28.2764C156.655 28.4326 156.421 28.6475 156.23 28.9209C156.045 29.1895 155.906 29.4995 155.813 29.8511C155.72 30.1978 155.674 30.5664 155.674 30.957ZM162.873 31.1255V30.957C162.873 30.3857 162.956 29.856 163.122 29.3677C163.288 28.8745 163.528 28.4473 163.84 28.0859C164.153 27.7197 164.531 27.4365 164.975 27.2363C165.42 27.0312 165.918 26.9287 166.469 26.9287C167.026 26.9287 167.527 27.0312 167.971 27.2363C168.42 27.4365 168.801 27.7197 169.114 28.0859C169.431 28.4473 169.673 28.8745 169.839 29.3677C170.005 29.856 170.088 30.3857 170.088 30.957V31.1255C170.088 31.6968 170.005 32.2266 169.839 32.7148C169.673 33.2031 169.431 33.6304 169.114 33.9966C168.801 34.3579 168.423 34.6411 167.978 34.8462C167.539 35.0464 167.041 35.1465 166.484 35.1465C165.927 35.1465 165.427 35.0464 164.983 34.8462C164.538 34.6411 164.157 34.3579 163.84 33.9966C163.528 33.6304 163.288 33.2031 163.122 32.7148C162.956 32.2266 162.873 31.6968 162.873 31.1255ZM164.228 30.957V31.1255C164.228 31.521 164.275 31.8945 164.367 32.2461C164.46 32.5928 164.599 32.9004 164.785 33.1689C164.975 33.4375 165.212 33.6499 165.495 33.8062C165.779 33.9575 166.108 34.0332 166.484 34.0332C166.855 34.0332 167.18 33.9575 167.458 33.8062C167.741 33.6499 167.976 33.4375 168.161 33.1689C168.347 32.9004 168.486 32.5928 168.579 32.2461C168.677 31.8945 168.725 31.521 168.725 31.1255V30.957C168.725 30.5664 168.677 30.1978 168.579 29.8511C168.486 29.4995 168.344 29.1895 168.154 28.9209C167.969 28.6475 167.734 28.4326 167.451 28.2764C167.173 28.1201 166.845 28.042 166.469 28.042C166.098 28.042 165.771 28.1201 165.488 28.2764C165.21 28.4326 164.975 28.6475 164.785 28.9209C164.599 29.1895 164.46 29.4995 164.367 29.8511C164.275 30.1978 164.228 30.5664 164.228 30.957ZM173.142 28.7671V35H171.787V27.0752H173.069L173.142 28.7671ZM172.82 30.7373L172.256 30.7153C172.261 30.1733 172.341 29.6729 172.497 29.2139C172.654 28.75 172.873 28.3472 173.157 28.0054C173.44 27.6636 173.777 27.3999 174.167 27.2144C174.563 27.0239 175 26.9287 175.478 26.9287C175.869 26.9287 176.22 26.9824 176.533 27.0898C176.845 27.1924 177.112 27.3584 177.331 27.5879C177.556 27.8174 177.727 28.1152 177.844 28.4814C177.961 28.8428 178.02 29.2847 178.02 29.8071V35H176.657V29.7925C176.657 29.3774 176.596 29.0454 176.474 28.7964C176.352 28.5425 176.174 28.3594 175.94 28.2471C175.705 28.1299 175.417 28.0713 175.075 28.0713C174.739 28.0713 174.431 28.1421 174.153 28.2837C173.879 28.4253 173.642 28.6206 173.442 28.8696C173.247 29.1187 173.093 29.4043 172.981 29.7266C172.873 30.0439 172.82 30.3809 172.82 30.7373ZM187.116 27.0752V28.1152H182.832V27.0752H187.116ZM184.282 25.1489H185.637V33.0371C185.637 33.3057 185.678 33.5083 185.761 33.645C185.844 33.7817 185.952 33.8721 186.084 33.916C186.216 33.96 186.357 33.9819 186.509 33.9819C186.621 33.9819 186.738 33.9722 186.86 33.9526C186.987 33.9282 187.082 33.9087 187.146 33.894L187.153 35C187.046 35.0342 186.904 35.0659 186.728 35.0952C186.557 35.1294 186.35 35.1465 186.106 35.1465C185.774 35.1465 185.469 35.0806 185.19 34.9487C184.912 34.8169 184.69 34.5972 184.524 34.2896C184.363 33.9771 184.282 33.5571 184.282 33.0298V25.1489ZM188.2 31.1255V30.957C188.2 30.3857 188.283 29.856 188.449 29.3677C188.615 28.8745 188.855 28.4473 189.167 28.0859C189.48 27.7197 189.858 27.4365 190.302 27.2363C190.747 27.0312 191.245 26.9287 191.797 26.9287C192.353 26.9287 192.854 27.0312 193.298 27.2363C193.747 27.4365 194.128 27.7197 194.441 28.0859C194.758 28.4473 195 28.8745 195.166 29.3677C195.332 29.856 195.415 30.3857 195.415 30.957V31.1255C195.415 31.6968 195.332 32.2266 195.166 32.7148C195 33.2031 194.758 33.6304 194.441 33.9966C194.128 34.3579 193.75 34.6411 193.305 34.8462C192.866 35.0464 192.368 35.1465 191.811 35.1465C191.255 35.1465 190.754 35.0464 190.31 34.8462C189.865 34.6411 189.485 34.3579 189.167 33.9966C188.855 33.6304 188.615 33.2031 188.449 32.7148C188.283 32.2266 188.2 31.6968 188.2 31.1255ZM189.555 30.957V31.1255C189.555 31.521 189.602 31.8945 189.695 32.2461C189.787 32.5928 189.927 32.9004 190.112 33.1689C190.302 33.4375 190.539 33.6499 190.823 33.8062C191.106 33.9575 191.435 34.0332 191.811 34.0332C192.182 34.0332 192.507 33.9575 192.785 33.8062C193.069 33.6499 193.303 33.4375 193.489 33.1689C193.674 32.9004 193.813 32.5928 193.906 32.2461C194.004 31.8945 194.052 31.521 194.052 31.1255V30.957C194.052 30.5664 194.004 30.1978 193.906 29.8511C193.813 29.4995 193.672 29.1895 193.481 28.9209C193.296 28.6475 193.061 28.4326 192.778 28.2764C192.5 28.1201 192.173 28.042 191.797 28.042C191.426 28.042 191.098 28.1201 190.815 28.2764C190.537 28.4326 190.302 28.6475 190.112 28.9209C189.927 29.1895 189.787 29.4995 189.695 29.8511C189.602 30.1978 189.555 30.5664 189.555 30.957ZM204.153 27.0752V28.1152H199.868V27.0752H204.153ZM201.318 25.1489H202.673V33.0371C202.673 33.3057 202.715 33.5083 202.798 33.645C202.881 33.7817 202.988 33.8721 203.12 33.916C203.252 33.96 203.393 33.9819 203.545 33.9819C203.657 33.9819 203.774 33.9722 203.896 33.9526C204.023 33.9282 204.118 33.9087 204.182 33.894L204.189 35C204.082 35.0342 203.94 35.0659 203.764 35.0952C203.594 35.1294 203.386 35.1465 203.142 35.1465C202.81 35.1465 202.505 35.0806 202.226 34.9487C201.948 34.8169 201.726 34.5972 201.56 34.2896C201.399 33.9771 201.318 33.5571 201.318 33.0298V25.1489ZM207.097 23.75V35H205.742V23.75H207.097ZM206.775 30.7373L206.211 30.7153C206.216 30.1733 206.296 29.6729 206.452 29.2139C206.609 28.75 206.828 28.3472 207.112 28.0054C207.395 27.6636 207.732 27.3999 208.122 27.2144C208.518 27.0239 208.955 26.9287 209.433 26.9287C209.824 26.9287 210.176 26.9824 210.488 27.0898C210.801 27.1924 211.067 27.3584 211.286 27.5879C211.511 27.8174 211.682 28.1152 211.799 28.4814C211.916 28.8428 211.975 29.2847 211.975 29.8071V35H210.613V29.7925C210.613 29.3774 210.552 29.0454 210.429 28.7964C210.307 28.5425 210.129 28.3594 209.895 28.2471C209.66 28.1299 209.372 28.0713 209.031 28.0713C208.694 28.0713 208.386 28.1421 208.108 28.2837C207.834 28.4253 207.597 28.6206 207.397 28.8696C207.202 29.1187 207.048 29.4043 206.936 29.7266C206.828 30.0439 206.775 30.3809 206.775 30.7373ZM217.292 35.1465C216.74 35.1465 216.24 35.0537 215.791 34.8682C215.346 34.6777 214.963 34.4116 214.641 34.0698C214.323 33.728 214.079 33.3228 213.908 32.854C213.738 32.3853 213.652 31.8726 213.652 31.3159V31.0083C213.652 30.3638 213.747 29.79 213.938 29.2871C214.128 28.7793 214.387 28.3496 214.714 27.998C215.041 27.6465 215.412 27.3804 215.827 27.1997C216.242 27.019 216.672 26.9287 217.116 26.9287C217.683 26.9287 218.171 27.0264 218.581 27.2217C218.996 27.417 219.336 27.6904 219.599 28.042C219.863 28.3887 220.058 28.7988 220.185 29.2725C220.312 29.7412 220.376 30.2539 220.376 30.8105V31.4185H214.458V30.3125H219.021V30.21C219.001 29.8584 218.928 29.5166 218.801 29.1846C218.679 28.8525 218.484 28.5791 218.215 28.3643C217.947 28.1494 217.58 28.042 217.116 28.042C216.809 28.042 216.526 28.1079 216.267 28.2397C216.008 28.3667 215.786 28.5571 215.6 28.811C215.415 29.0649 215.271 29.375 215.168 29.7412C215.066 30.1074 215.014 30.5298 215.014 31.0083V31.3159C215.014 31.6919 215.066 32.0459 215.168 32.3779C215.276 32.7051 215.429 32.9932 215.63 33.2422C215.835 33.4912 216.081 33.6865 216.369 33.8281C216.662 33.9697 216.994 34.0405 217.365 34.0405C217.844 34.0405 218.249 33.9429 218.581 33.7476C218.913 33.5522 219.204 33.291 219.453 32.9639L220.273 33.6157C220.102 33.8745 219.885 34.1211 219.621 34.3555C219.358 34.5898 219.033 34.7803 218.647 34.9268C218.266 35.0732 217.815 35.1465 217.292 35.1465Z" fill="white"/>
<path d="M50.9879 27.6402L52.0898 25.7391C52.768 24.5523 54.2816 24.1527 55.4684 24.8309C56.6551 25.509 57.0547 27.0227 56.3766 28.2094L45.7809 46.5551H53.4461C55.9285 46.5551 57.3211 49.4734 56.2434 51.4957H33.7805C32.4121 51.4957 31.3102 50.3937 31.3102 49.0254C31.3102 47.657 32.4121 46.5551 33.7805 46.5551H40.0773L48.1422 32.5809L45.6234 28.2094C44.9453 27.0227 45.3449 25.5211 46.5316 24.8309C47.7184 24.1527 49.2199 24.5523 49.9102 25.7391L50.9879 27.6402ZM41.4578 54.0387L39.0844 58.1559C38.4062 59.3426 36.8926 59.7422 35.7059 59.0641C34.5191 58.3859 34.1195 56.8723 34.7977 55.6855L36.5656 52.634C38.5516 52.0164 40.1742 52.4887 41.4578 54.0387ZM61.9105 46.5672H68.3406C69.709 46.5672 70.8109 47.6691 70.8109 49.0375C70.8109 50.4059 69.709 51.5078 68.3406 51.5078H64.7684L67.1781 55.6855C67.8563 56.8723 67.4566 58.3738 66.2699 59.0641C65.0832 59.7422 63.5816 59.3426 62.8914 58.1559C58.8348 51.1203 55.7832 45.8527 53.7609 42.341C51.6902 38.7688 53.1676 35.1844 54.6328 33.9734C56.2555 36.7586 58.6773 40.9605 61.9105 46.5672ZM51 13.9688C34.4102 13.9688 20.9688 27.4102 20.9688 44C20.9688 60.5898 34.4102 74.0312 51 74.0312C67.5898 74.0312 81.0312 60.5898 81.0312 44C81.0312 27.4102 67.5898 13.9688 51 13.9688ZM77.1562 44C77.1562 58.3738 65.5191 70.1562 51 70.1562C36.6262 70.1562 24.8438 58.5191 24.8438 44C24.8438 29.6262 36.4809 17.8438 51 17.8438C65.3738 17.8438 77.1562 29.4809 77.1562 44Z" fill="white"/>
</svg>
