<svg width="26" height="21" viewBox="0 0 26 21" fill="none" xmlns="http://www.w3.org/2000/svg">
<path d="M24.3795 0H1V2.52466H24.3795V0Z" fill="black"/>
<path d="M3.22592 14.5188C3.12314 14.5188 3.02036 14.5027 2.91436 14.4867C2.81158 14.4642 2.7088 14.432 2.61244 14.3903C2.51609 14.3517 2.42936 14.3036 2.34264 14.2458C2.25592 14.1912 2.17562 14.1205 2.09533 14.0466C1.79983 13.7511 1.63281 13.34 1.63281 12.9256C1.63281 12.8228 1.63924 12.7104 1.66493 12.614C1.68099 12.5113 1.71311 12.4085 1.75165 12.3121C1.7902 12.2157 1.83837 12.1226 1.90261 12.0423C1.95721 11.9556 2.02145 11.8688 2.09212 11.795C2.17241 11.7243 2.2495 11.6601 2.33943 11.5958C2.42615 11.5412 2.51287 11.493 2.60923 11.4545C2.70559 11.416 2.80837 11.3838 2.91115 11.3678C3.42827 11.265 3.9775 11.432 4.34045 11.7982C4.41111 11.8689 4.48498 11.9588 4.53959 12.0455C4.59419 12.1258 4.652 12.219 4.69055 12.3153C4.72909 12.4117 4.76121 12.5145 4.77727 12.6173C4.79975 12.7136 4.80939 12.8228 4.80939 12.9288C4.80939 13.3432 4.64237 13.7543 4.34045 14.0498C4.04817 14.3453 3.63383 14.5188 3.21949 14.5188H3.22592Z" fill="black"/>
<path d="M12.7904 14.5188C12.6876 14.5188 12.5848 14.5027 12.4788 14.4867C12.376 14.4642 12.2733 14.432 12.1769 14.3903C12.0805 14.3517 11.9938 14.3036 11.9071 14.2458C11.8204 14.1912 11.7401 14.1205 11.6598 14.0466C11.3643 13.7511 11.1973 13.34 11.1973 12.9256C11.1973 12.8228 11.2037 12.7104 11.2294 12.614C11.2454 12.5113 11.2776 12.4085 11.3161 12.3121C11.3546 12.2157 11.4028 12.1226 11.4671 12.0423C11.5217 11.9556 11.5859 11.8688 11.6566 11.795C11.7369 11.7243 11.814 11.6601 11.9039 11.5958C11.9906 11.5412 12.0773 11.493 12.1737 11.4545C12.27 11.416 12.3728 11.3838 12.4756 11.3678C12.9927 11.265 13.542 11.432 13.9049 11.7982C13.9756 11.8689 14.0494 11.9588 14.104 12.0455C14.1586 12.1258 14.2165 12.219 14.255 12.3153C14.2935 12.4117 14.3257 12.5145 14.3417 12.6173C14.3642 12.7136 14.3738 12.8228 14.3738 12.9288C14.3738 13.3432 14.2068 13.7543 13.9049 14.0498C13.6126 14.3453 13.1983 14.5188 12.7839 14.5188H12.7904Z" fill="black"/>
<path d="M22.3587 14.5188C22.2559 14.5188 22.1532 14.5027 22.0472 14.4867C21.9444 14.4642 21.8416 14.432 21.7453 14.3903C21.6489 14.3517 21.5622 14.3036 21.4755 14.2458C21.3887 14.1912 21.3084 14.1205 21.2281 14.0466C20.9326 13.7511 20.7656 13.34 20.7656 12.9256C20.7656 12.8228 20.772 12.7104 20.7977 12.614C20.8138 12.5113 20.8459 12.4085 20.8845 12.3121C20.923 12.2157 20.9712 12.1226 21.0354 12.0423C21.09 11.9556 21.1543 11.8688 21.2249 11.795C21.3052 11.7243 21.3823 11.6601 21.4722 11.5958C21.559 11.5412 21.6457 11.493 21.742 11.4545C21.8384 11.416 21.9412 11.3838 22.044 11.3678C22.5611 11.265 23.1103 11.432 23.4733 11.7982C23.5439 11.8689 23.6178 11.9588 23.6724 12.0455C23.727 12.1258 23.7848 12.219 23.8234 12.3153C23.8619 12.4117 23.894 12.5145 23.9101 12.6173C23.9326 12.7136 23.9422 12.8228 23.9422 12.9288C23.9422 13.3432 23.7752 13.7543 23.4733 14.0498C23.181 14.3453 22.7666 14.5188 22.3523 14.5188H22.3587Z" fill="black"/>
<path d="M18.1751 20.4993C18.0724 20.4993 17.9696 20.4832 17.8636 20.4671C17.7608 20.4446 17.658 20.4125 17.5617 20.3708C17.4653 20.3322 17.3786 20.284 17.2919 20.2262C17.2051 20.1716 17.1248 20.101 17.0445 20.0271C16.7491 19.7316 16.582 19.3204 16.582 18.9061C16.582 18.8033 16.5885 18.6909 16.6142 18.5945C16.6302 18.4917 16.6623 18.3889 16.7009 18.2926C16.7394 18.1962 16.7876 18.1031 16.8518 18.0228C16.9064 17.936 16.9707 17.8493 17.0413 17.7754C17.1216 17.7048 17.1987 17.6405 17.2887 17.5763C17.3754 17.5217 17.4621 17.4735 17.5585 17.435C17.6548 17.3964 17.7576 17.3643 17.8604 17.3482C18.3775 17.2454 18.9267 17.4125 19.2897 17.7787C19.3603 17.8493 19.4342 17.9392 19.4888 18.026C19.5434 18.1063 19.6012 18.1994 19.6398 18.2958C19.6783 18.3922 19.7104 18.4949 19.7265 18.5977C19.749 18.6941 19.7586 18.8033 19.7586 18.9093C19.7586 19.3236 19.5916 19.7348 19.2897 20.0303C18.9974 20.3258 18.583 20.4993 18.1687 20.4993H18.1751Z" fill="black"/>
<path d="M8.306 20.4993C8.20321 20.4993 8.10043 20.4832 7.99444 20.4671C7.89166 20.4446 7.78888 20.4125 7.69252 20.3708C7.59616 20.3322 7.50944 20.284 7.42272 20.2262C7.336 20.1716 7.2557 20.101 7.1754 20.0271C6.87991 19.7316 6.71289 19.3204 6.71289 18.9061C6.71289 18.8033 6.71931 18.6909 6.74501 18.5945C6.76107 18.4917 6.79319 18.3889 6.83173 18.2926C6.87027 18.1962 6.91845 18.1031 6.98269 18.0228C7.03729 17.936 7.10153 17.8493 7.17219 17.7754C7.25249 17.7048 7.32958 17.6405 7.41951 17.5763C7.50623 17.5217 7.59295 17.4735 7.68931 17.435C7.78567 17.3964 7.88845 17.3643 7.99123 17.3482C8.50835 17.2454 9.05758 17.4125 9.42053 17.7787C9.49119 17.8493 9.56506 17.9392 9.61966 18.026C9.67427 18.1063 9.73208 18.1994 9.77062 18.2958C9.80917 18.3922 9.84129 18.4949 9.85735 18.5977C9.87983 18.6941 9.88946 18.8033 9.88946 18.9093C9.88946 19.3236 9.72245 19.7348 9.42053 20.0303C9.12824 20.3258 8.71391 20.4993 8.29957 20.4993H8.306Z" fill="black"/>
<path d="M22.9797 4.33203C21.2484 4.33203 20.378 5.2828 19.6778 6.04406C18.9583 6.82779 18.4701 7.30639 17.5194 7.30639C16.5687 7.30639 16.0773 6.82779 15.361 6.04406C14.6608 5.27959 13.7904 4.33203 12.0592 4.33203C10.3279 4.33203 9.45752 5.2828 8.75732 6.04406C8.03785 6.82779 7.54964 7.30639 6.59892 7.30639C5.64819 7.30639 5.15677 6.82779 4.44052 6.04406C3.74032 5.27959 2.86989 4.33203 1.13867 4.33203V5.37275C2.09261 5.37275 2.58082 5.85134 3.29708 6.63508C3.99727 7.39955 4.87091 8.34708 6.59892 8.34708C8.32693 8.34708 9.20057 7.39633 9.90076 6.63508C10.6202 5.85134 11.1084 5.37275 12.0592 5.37275C13.0099 5.37275 13.5013 5.85134 14.2176 6.63508C14.9178 7.39955 15.7882 8.3503 17.5194 8.3503C19.2506 8.3503 20.1211 7.39955 20.8213 6.63508C21.5407 5.85134 22.0289 5.37275 22.9797 5.37275C23.5193 5.37275 23.9111 5.53014 24.2805 5.80958V4.54404C23.9079 4.41234 23.4807 4.33203 22.9797 4.33203Z" fill="black" stroke="black" stroke-width="2" stroke-miterlimit="10"/>
</svg>
