<svg width="49" height="40" viewBox="0 0 49 40" fill="none" xmlns="http://www.w3.org/2000/svg">
<g clip-path="url(#clip0_221_1402)">
<path d="M45.3426 18.1338C44.478 16.57 43.3973 14.625 41.2622 14.625C39.127 14.625 38.0464 16.57 37.1818 18.1338C36.2911 19.7371 35.6885 20.7162 34.5162 20.7162C33.3438 20.7162 32.7347 19.7371 31.8505 18.1338C30.9859 16.57 29.9053 14.6316 27.7701 14.6316C25.635 14.6316 24.5543 16.5765 23.6897 18.1338C22.799 19.7371 22.1964 20.7162 21.0241 20.7162C19.8517 20.7162 19.2426 19.7371 18.3584 18.1338C17.4939 16.57 16.4132 14.6316 14.278 14.6316C12.1429 14.6316 11.0622 16.5765 10.1977 18.1338C9.30693 19.7371 8.70437 20.7162 7.52545 20.7162C6.34653 20.7162 5.74397 19.7371 4.85324 18.1338C3.9756 16.57 2.89492 14.625 0.759766 14.625V16.754C1.93868 16.754 2.54124 17.733 3.43198 19.3363C4.29652 20.9001 5.3772 22.8385 7.51235 22.8385C9.64751 22.8385 10.7282 20.8936 11.5927 19.3363C12.4835 17.733 13.086 16.754 14.2649 16.754C15.4439 16.754 16.0464 17.733 16.9306 19.3363C17.7951 20.9001 18.8758 22.8451 21.011 22.8451C23.1461 22.8451 24.2268 20.9001 25.0914 19.3363C25.9821 17.733 26.5846 16.754 27.757 16.754C28.9294 16.754 29.5385 17.733 30.4227 19.3363C31.2872 20.9001 32.3679 22.8451 34.5031 22.8451C36.6382 22.8451 37.7189 20.9001 38.5834 19.3429C39.4742 17.7396 40.0767 16.7605 41.2491 16.7605C42.4215 16.7605 43.0306 17.7396 43.9148 19.3429C44.7531 20.8542 45.7879 22.7137 47.7921 22.8385V20.6965C46.7507 20.5847 46.1613 19.6385 45.3295 18.1338H45.3426Z" fill="black" stroke="black" stroke-miterlimit="10"/>
<path d="M45.3412 29.0284C44.4767 27.4645 43.396 25.5195 41.2608 25.5195C39.1257 25.5195 38.045 27.4645 37.1804 29.0284C36.2897 30.6316 35.6871 31.6107 34.5148 31.6107C33.3424 31.6107 32.7333 30.6316 31.8491 29.0284C30.9846 27.4645 29.9039 25.5261 27.7687 25.5261C25.6336 25.5261 24.5529 27.4711 23.6884 29.0284C22.7976 30.6316 22.1951 31.6107 21.0227 31.6107C19.8503 31.6107 19.2412 30.6316 18.357 29.0284C17.4925 27.4645 16.4118 25.5261 14.2767 25.5261C12.1415 25.5261 11.0608 27.4711 10.1963 29.0284C9.30555 30.6316 8.70299 31.6107 7.52407 31.6107C6.34515 31.6107 5.74259 30.6316 4.85186 29.0284C3.98731 27.4645 2.90664 25.5261 0.771484 25.5261V27.6551C1.9504 27.6551 2.55296 28.6341 3.4437 30.2374C4.30824 31.8012 5.38892 33.7396 7.52407 33.7396C9.65923 33.7396 10.7399 31.7947 11.6044 30.2374C12.4952 28.6341 13.0977 27.6551 14.2767 27.6551C15.4556 27.6551 16.0581 28.6341 16.9423 30.2374C17.8069 31.8012 18.8875 33.7462 21.0227 33.7462C23.1579 33.7462 24.2385 31.8012 25.1031 30.2374C25.9938 28.6341 26.5964 27.6551 27.7687 27.6551C28.9411 27.6551 29.5502 28.6341 30.4344 30.2374C31.299 31.8012 32.3796 33.7462 34.5148 33.7462C36.6499 33.7462 37.7306 31.8012 38.5951 30.244C39.4859 28.6407 40.0884 27.6616 41.2608 27.6616C42.4332 27.6616 43.0423 28.6407 43.9265 30.244C44.7648 31.7553 45.7997 33.6148 47.8038 33.7396V31.5976C46.7624 31.4858 46.173 30.5396 45.3412 29.0349V29.0284Z" fill="black" stroke="black" stroke-miterlimit="10"/>
</g>
<defs>
<clipPath id="clip0_221_1402">
<rect width="47.7004" height="39.5564" fill="white" transform="translate(0.431641 0.335938)"/>
</clipPath>
</defs>
</svg>
