<svg width="297" height="466" viewBox="0 0 297 466" fill="none" xmlns="http://www.w3.org/2000/svg">
<path opacity="0.2" d="M-140.925 367.621C-180.91 308.612 -158.319 281.205 -137.596 216.466C-121.43 165.988 -118.186 75.4222 -69.7998 42.8518C40.6516 -31.5 187.878 -6.63493 259.049 98.3851C330.214 203.405 298.375 348.808 187.924 423.154C77.4782 497.501 -69.76 472.641 -140.925 367.621Z" fill="url(#paint0_linear_221_309)"/>
<path opacity="0.3" d="M-42.0905 395.118C-90.2496 365.792 -83.0354 338.708 -89.4543 285.416C-94.4532 243.861 -121.93 177.724 -97.8842 138.496C-42.9823 48.9599 70.991 18.6881 156.698 70.8867C242.405 123.08 267.382 237.973 212.486 327.509C157.596 417.039 43.6167 447.311 -42.0848 395.118H-42.0905Z" fill="url(#paint1_linear_221_309)"/>
<path opacity="0.4" d="M36.2656 387.844C-9.73498 379.091 -12.064 355.958 -32.6728 316.436C-48.7372 285.621 -89.4606 242.259 -82.2805 204.792C-65.8979 119.276 13.7482 62.5819 95.6096 78.1622C177.471 93.7482 230.544 175.703 214.156 261.214C197.767 346.73 118.121 403.424 36.2656 387.844Z" fill="url(#paint2_linear_221_309)"/>
<path style="mix-blend-mode:multiply" opacity="0.5" d="M75.2902 370.961C34.3111 373.412 27.3242 354.254 1.25641 325.097C-19.0627 302.366 -63.0467 274.269 -65.0519 240.894C-69.6304 164.708 -14.2229 99.4145 58.7088 95.0552C131.641 90.7016 194.472 148.935 199.051 225.127C203.629 301.313 148.222 366.607 75.2902 370.961Z" fill="url(#paint3_linear_221_309)"/>
<path style="mix-blend-mode:multiply" opacity="0.6" d="M73.3016 337.842C42.1612 339.705 36.85 325.149 17.0421 302.99C1.60254 285.717 -31.8271 264.368 -33.3495 238.999C-36.8316 181.105 5.27781 131.482 60.6966 128.176C116.121 124.869 163.871 169.125 167.348 227.019C170.83 284.913 128.72 334.536 73.3016 337.842Z" fill="url(#paint4_linear_221_309)"/>
<path style="mix-blend-mode:multiply" opacity="0.7" d="M41.9516 311.681C18.5764 304.672 18.6161 292.556 10.0727 270.958C3.40948 254.121 -15.3588 229.454 -9.61587 210.414C3.50037 166.962 47.8536 141.843 89.4518 154.315C131.05 166.787 154.135 212.124 141.019 255.576C127.903 299.027 83.5498 324.147 41.9573 311.675L41.9516 311.681Z" fill="url(#paint5_linear_221_309)"/>
<path style="mix-blend-mode:multiply" opacity="0.8" d="M70.1946 293.123C52.3351 294.068 49.3472 285.7 38.0828 272.917C29.3007 262.953 10.2257 250.582 9.45313 236.038C7.69218 202.834 32.0274 174.56 63.8097 172.885C95.592 171.209 122.79 196.765 124.551 229.969C126.318 263.173 101.977 291.447 70.1946 293.123Z" fill="url(#paint6_linear_221_309)"/>
<defs>
<linearGradient id="paint0_linear_221_309" x1="-163" y1="233.003" x2="297.001" y2="233.003" gradientUnits="userSpaceOnUse">
<stop stop-color="#717CF2"/>
<stop offset="1" stop-color="#42CBD8"/>
</linearGradient>
<linearGradient id="paint1_linear_221_309" x1="-107.609" y1="233.003" x2="241.61" y2="233.003" gradientUnits="userSpaceOnUse">
<stop stop-color="#717CF2"/>
<stop offset="1" stop-color="#42CBD8"/>
</linearGradient>
<linearGradient id="paint2_linear_221_309" x1="-83.1268" y1="233.003" x2="217.121" y2="233.003" gradientUnits="userSpaceOnUse">
<stop stop-color="#717CF2"/>
<stop offset="1" stop-color="#42CBD8"/>
</linearGradient>
<linearGradient id="paint3_linear_221_309" x1="-59.6726" y1="265.038" x2="195.347" y2="200.101" gradientUnits="userSpaceOnUse">
<stop stop-color="#717CF2"/>
<stop offset="1" stop-color="#42CBD8"/>
</linearGradient>
<linearGradient id="paint4_linear_221_309" x1="-29.2651" y1="257.342" x2="164.531" y2="207.995" gradientUnits="userSpaceOnUse">
<stop stop-color="#717CF2"/>
<stop offset="1" stop-color="#42CBD8"/>
</linearGradient>
<linearGradient id="paint5_linear_221_309" x1="-11.5764" y1="225.014" x2="144.078" y2="241.236" gradientUnits="userSpaceOnUse">
<stop stop-color="#717CF2"/>
<stop offset="1" stop-color="#42CBD8"/>
</linearGradient>
<linearGradient id="paint6_linear_221_309" x1="11.7209" y1="246.557" x2="123.015" y2="219.046" gradientUnits="userSpaceOnUse">
<stop stop-color="#717CF2"/>
<stop offset="1" stop-color="#42CBD8"/>
</linearGradient>
</defs>
</svg>
