<svg width="526" height="1016" viewBox="0 0 526 1016" fill="none" xmlns="http://www.w3.org/2000/svg">
<path opacity="0.2" d="M338.709 915.202C256.762 1001.53 205.541 958.481 94.98 922.705C8.78611 894.814 -137.644 896.786 -205.409 802.103C-360.077 585.996 -367.231 286.251 -221.391 132.594C-75.556 -21.055 168.058 29.5791 322.72 245.686C477.388 461.793 484.551 761.553 338.715 915.202L338.709 915.202Z" fill="url(#paint0_linear_221_1850)"/>
<path opacity="0.3" d="M315.254 664.845C283.447 765.102 237.487 753.057 153.647 771.075C88.2709 785.117 -9.49774 846.98 -80.4351 802.006C-242.362 699.331 -327.737 471.467 -271.128 293.055C-214.521 114.635 -37.3654 53.2251 124.563 155.908C286.482 258.569 371.863 486.44 315.255 664.852L315.254 664.845Z" fill="url(#paint1_linear_221_1850)"/>
<path opacity="0.4" d="M255.685 504.341C256.345 598.198 219.869 605.094 162.873 650.5C118.438 685.899 61.7148 772.351 -0.871447 761.365C-143.721 736.286 -260.477 580.558 -261.644 413.529C-262.805 246.5 -147.943 131.427 -5.08714 156.506C137.763 181.585 254.519 337.32 255.679 504.342L255.685 504.341Z" fill="url(#paint2_linear_221_1850)"/>
<path style="mix-blend-mode:multiply" opacity="0.5" d="M199.753 437.837C216.827 520.477 188.249 536.411 149.696 591.873C119.64 635.1 88.5368 726.702 35.4834 733.906C-85.6046 750.35 -208.394 644.455 -238.769 497.393C-269.139 350.323 -195.593 217.768 -74.498 201.332C46.59 184.888 169.38 290.783 199.754 437.845L199.753 437.837Z" fill="url(#paint3_linear_221_1850)"/>
<path style="mix-blend-mode:multiply" opacity="0.6" d="M108.115 459.306C121.085 522.105 99.3737 534.22 70.0757 576.362C47.2352 609.21 23.5977 678.82 -16.7135 684.291C-108.731 696.786 -202.045 616.317 -225.121 504.555C-248.197 392.793 -192.31 292.066 -100.287 279.57C-8.26934 267.074 85.0449 347.544 108.119 459.298L108.115 459.306Z" fill="url(#paint4_linear_221_1850)"/>
<path style="mix-blend-mode:multiply" opacity="0.7" d="M66.4504 500.985C62.6634 548.927 43.1443 549.986 11.123 569.319C-13.8422 584.382 -47.5268 624.68 -80.0161 614.851C-154.159 592.411 -208.814 505.065 -202.067 419.752C-195.327 334.432 -129.755 283.456 -55.6055 305.895C18.5424 328.326 73.1926 415.681 66.4516 500.993L66.4504 500.985Z" fill="url(#paint5_linear_221_1850)"/>
<path style="mix-blend-mode:multiply" opacity="0.8" d="M5.61266 451.973C12.8557 488.001 0.351613 494.826 -16.5986 518.816C-29.8142 537.512 -43.6017 577.257 -66.7549 580.194C-119.603 586.885 -172.887 540.345 -185.766 476.23C-198.646 412.114 -166.251 354.707 -113.398 348.015C-60.5512 341.317 -7.26549 387.865 5.61387 451.98L5.61266 451.973Z" fill="url(#paint6_linear_221_1850)"/>
<defs>
<linearGradient id="paint0_linear_221_1850" x1="129.655" y1="972.469" x2="74.8296" y2="37.852" gradientUnits="userSpaceOnUse">
<stop stop-color="#FF5844"/>
<stop offset="1" stop-color="#AF7BFF"/>
</linearGradient>
<linearGradient id="paint1_linear_221_1850" x1="75.0039" y1="812.781" x2="33.3614" y2="101.731" gradientUnits="userSpaceOnUse">
<stop stop-color="#FF5844"/>
<stop offset="1" stop-color="#AF7BFF"/>
</linearGradient>
<linearGradient id="paint2_linear_221_1850" x1="44.7948" y1="760.401" x2="9.00119" y2="149.618" gradientUnits="userSpaceOnUse">
<stop stop-color="#FF5844"/>
<stop offset="1" stop-color="#AF7BFF"/>
</linearGradient>
<linearGradient id="paint3_linear_221_1850" x1="72.6179" y1="720.736" x2="-128.321" y2="217.049" gradientUnits="userSpaceOnUse">
<stop stop-color="#FF5844"/>
<stop offset="1" stop-color="#AF7BFF"/>
</linearGradient>
<linearGradient id="paint4_linear_221_1850" x1="11.5067" y1="674.283" x2="-141.189" y2="291.526" gradientUnits="userSpaceOnUse">
<stop stop-color="#FF5844"/>
<stop offset="1" stop-color="#AF7BFF"/>
</linearGradient>
<linearGradient id="paint5_linear_221_1850" x1="-55.8891" y1="617.424" x2="-33.6865" y2="304.299" gradientUnits="userSpaceOnUse">
<stop stop-color="#FF5844"/>
<stop offset="1" stop-color="#AF7BFF"/>
</linearGradient>
<linearGradient id="paint6_linear_221_1850" x1="-50.5396" y1="574.616" x2="-136.106" y2="354.352" gradientUnits="userSpaceOnUse">
<stop stop-color="#FF5844"/>
<stop offset="1" stop-color="#AF7BFF"/>
</linearGradient>
</defs>
</svg>
