<svg width="695" height="789" viewBox="0 0 695 789" fill="none" xmlns="http://www.w3.org/2000/svg">
<path opacity="0.2" d="M38.5365 622.614C-31.2779 522.814 8.16464 476.462 44.3549 366.97C72.5696 281.608 78.2363 128.439 162.722 73.3484C355.554 -52.391 612.6 -10.3378 736.858 167.276C861.11 344.883 805.512 590.801 612.679 716.534C419.847 842.274 162.788 800.227 38.5365 622.62V622.614Z" fill="url(#paint0_linear_301_7019)"/>
<path opacity="0.3" d="M257.407 637.746C173.324 588.146 185.917 542.348 174.716 452.21C165.988 381.924 118.016 270.075 159.998 203.737C255.844 52.3125 454.838 1.11997 604.467 89.3917C754.103 177.663 797.715 371.976 701.863 523.401C606.031 674.819 407.03 726.018 257.401 637.746H257.407Z" fill="url(#paint1_linear_301_7019)"/>
<path opacity="0.4" d="M398.361 604.188C318.051 589.387 313.981 550.263 278.002 483.416C249.952 431.3 178.851 357.964 191.385 294.6C219.996 149.977 359.044 54.0885 501.965 80.4363C644.885 106.79 737.551 245.395 708.94 390.024C680.33 534.647 541.275 630.536 398.361 604.182V604.188Z" fill="url(#paint2_linear_301_7019)"/>
<path style="mix-blend-mode:multiply" opacity="0.5" d="M458.255 559.001C386.705 563.147 374.508 530.749 328.996 481.435C293.525 442.993 216.725 395.475 213.222 339.022C205.226 210.175 301.969 99.7462 429.295 92.3775C556.627 85.0152 666.332 183.502 674.321 312.356C682.317 441.204 585.574 551.632 458.248 559.001H458.255Z" fill="url(#paint3_linear_301_7019)"/>
<path style="mix-blend-mode:multiply" opacity="0.6" d="M445.378 464.03C391.007 467.177 381.731 442.561 347.151 405.087C320.196 375.873 261.834 339.762 259.175 296.868C253.1 198.954 326.615 115.032 423.377 109.441C520.14 103.849 603.504 178.689 609.58 276.609C615.655 374.523 542.14 458.445 445.384 464.037L445.378 464.03Z" fill="url(#paint4_linear_301_7019)"/>
<path style="mix-blend-mode:multiply" opacity="0.7" d="M412.974 412.659C372.166 400.807 372.238 380.312 357.31 343.787C345.679 315.312 312.906 273.596 322.94 241.395C345.844 167.912 423.278 125.426 495.896 146.526C568.521 167.619 608.827 244.293 585.923 317.783C563.025 391.273 485.585 433.753 412.967 412.659H412.974Z" fill="url(#paint5_linear_301_7019)"/>
<path style="mix-blend-mode:multiply" opacity="0.8" d="M458.492 359.595C427.308 361.194 422.097 347.042 402.425 325.427C387.094 308.575 353.787 287.653 352.434 263.051C349.36 206.897 391.844 159.073 447.336 156.239C502.829 153.405 550.313 196.624 553.387 252.784C556.468 308.938 513.978 356.761 458.485 359.595H458.492Z" fill="url(#paint6_linear_301_7019)"/>
<defs>
<linearGradient id="paint0_linear_301_7019" x1="-0.00225304" y1="394.941" x2="803.11" y2="394.941" gradientUnits="userSpaceOnUse">
<stop stop-color="#00ACF2"/>
<stop offset="1" stop-color="#B0D866"/>
</linearGradient>
<linearGradient id="paint1_linear_301_7019" x1="143.011" y1="363.569" x2="752.725" y2="363.569" gradientUnits="userSpaceOnUse">
<stop stop-color="#00ACF2"/>
<stop offset="1" stop-color="#B0D866"/>
</linearGradient>
<linearGradient id="paint2_linear_301_7019" x1="189.921" y1="342.315" x2="714.126" y2="342.315" gradientUnits="userSpaceOnUse">
<stop stop-color="#00ACF2"/>
<stop offset="1" stop-color="#B0D866"/>
</linearGradient>
<linearGradient id="paint3_linear_301_7019" x1="222.627" y1="379.848" x2="666.1" y2="263.273" gradientUnits="userSpaceOnUse">
<stop stop-color="#00ACF2"/>
<stop offset="1" stop-color="#B0D866"/>
</linearGradient>
<linearGradient id="paint4_linear_301_7019" x1="266.321" y1="327.886" x2="603.322" y2="239.299" gradientUnits="userSpaceOnUse">
<stop stop-color="#00ACF2"/>
<stop offset="1" stop-color="#B0D866"/>
</linearGradient>
<linearGradient id="paint5_linear_301_7019" x1="319.537" y1="266.081" x2="591.105" y2="295.299" gradientUnits="userSpaceOnUse">
<stop stop-color="#00ACF2"/>
<stop offset="1" stop-color="#B0D866"/>
</linearGradient>
<linearGradient id="paint6_linear_301_7019" x1="356.409" y1="280.847" x2="549.99" y2="231.448" gradientUnits="userSpaceOnUse">
<stop stop-color="#00ACF2"/>
<stop offset="1" stop-color="#B0D866"/>
</linearGradient>
</defs>
</svg>
