<svg width="804" height="789" viewBox="0 0 804 789" fill="none" xmlns="http://www.w3.org/2000/svg">
<path opacity="0.2" d="M38.5365 621.729C-31.2779 521.93 8.16464 475.577 44.3549 366.085C72.5696 280.724 78.2363 127.554 162.722 72.4636C355.554 -53.2758 612.6 -11.2226 736.858 166.391C861.11 343.998 805.512 589.917 612.679 715.65C419.847 841.389 162.788 799.342 38.5365 621.735V621.729Z" fill="url(#paint0_linear_301_7020)"/>
<path opacity="0.3" d="M257.407 636.861C173.324 587.261 185.917 541.463 174.716 451.325C165.988 381.039 118.016 269.19 159.998 202.853C255.844 51.4277 454.838 0.235207 604.467 88.5069C754.103 176.779 797.715 371.091 701.863 522.516C606.031 673.934 407.03 725.133 257.401 636.861H257.407Z" fill="url(#paint1_linear_301_7020)"/>
<path opacity="0.4" d="M398.361 603.303C318.051 588.502 313.981 549.379 278.002 482.532C249.952 430.416 178.851 357.079 191.385 293.715C219.996 149.093 359.044 53.2037 501.965 79.5515C644.885 105.906 737.551 244.51 708.94 389.139C680.33 533.762 541.275 629.651 398.361 603.297V603.303Z" fill="url(#paint2_linear_301_7020)"/>
<path style="mix-blend-mode:multiply" opacity="0.5" d="M458.255 558.116C386.705 562.262 374.508 529.864 328.996 480.551C293.525 442.108 216.725 394.591 213.222 338.138C205.226 209.29 301.969 98.8615 429.295 91.4928C556.627 84.1304 666.332 182.618 674.321 311.471C682.317 440.319 585.574 550.748 458.248 558.116H458.255Z" fill="url(#paint3_linear_301_7020)"/>
<path style="mix-blend-mode:multiply" opacity="0.6" d="M445.378 463.146C391.007 466.292 381.731 441.676 347.151 404.202C320.196 374.989 261.834 338.877 259.175 295.983C253.1 198.069 326.615 114.148 423.377 108.556C520.14 102.964 603.504 177.804 609.58 275.724C615.655 373.638 542.14 457.56 445.384 463.152L445.378 463.146Z" fill="url(#paint4_linear_301_7020)"/>
<path style="mix-blend-mode:multiply" opacity="0.7" d="M412.974 411.774C372.166 399.922 372.238 379.427 357.31 342.902C345.679 314.427 312.906 272.711 322.94 240.511C345.844 167.027 423.278 124.541 495.896 145.641C568.521 166.734 608.827 243.408 585.923 316.898C563.025 390.388 485.585 432.868 412.967 411.774H412.974Z" fill="url(#paint5_linear_301_7020)"/>
<path style="mix-blend-mode:multiply" opacity="0.8" d="M458.492 358.711C427.308 360.309 422.097 346.158 402.425 324.542C387.094 307.69 353.787 286.768 352.434 262.166C349.36 206.012 391.844 158.189 447.336 155.354C502.829 152.52 550.313 195.739 553.387 251.899C556.468 308.053 513.978 355.876 458.485 358.711H458.492Z" fill="url(#paint6_linear_301_7020)"/>
<defs>
<linearGradient id="paint0_linear_301_7020" x1="-0.00225304" y1="394.057" x2="803.11" y2="394.057" gradientUnits="userSpaceOnUse">
<stop stop-color="#00ACF2"/>
<stop offset="1" stop-color="#B0D866"/>
</linearGradient>
<linearGradient id="paint1_linear_301_7020" x1="143.011" y1="362.684" x2="752.725" y2="362.684" gradientUnits="userSpaceOnUse">
<stop stop-color="#00ACF2"/>
<stop offset="1" stop-color="#B0D866"/>
</linearGradient>
<linearGradient id="paint2_linear_301_7020" x1="189.921" y1="341.431" x2="714.126" y2="341.431" gradientUnits="userSpaceOnUse">
<stop stop-color="#00ACF2"/>
<stop offset="1" stop-color="#B0D866"/>
</linearGradient>
<linearGradient id="paint3_linear_301_7020" x1="222.627" y1="378.963" x2="666.1" y2="262.388" gradientUnits="userSpaceOnUse">
<stop stop-color="#00ACF2"/>
<stop offset="1" stop-color="#B0D866"/>
</linearGradient>
<linearGradient id="paint4_linear_301_7020" x1="266.321" y1="327.001" x2="603.322" y2="238.415" gradientUnits="userSpaceOnUse">
<stop stop-color="#00ACF2"/>
<stop offset="1" stop-color="#B0D866"/>
</linearGradient>
<linearGradient id="paint5_linear_301_7020" x1="319.537" y1="265.197" x2="591.105" y2="294.414" gradientUnits="userSpaceOnUse">
<stop stop-color="#00ACF2"/>
<stop offset="1" stop-color="#B0D866"/>
</linearGradient>
<linearGradient id="paint6_linear_301_7020" x1="356.409" y1="279.962" x2="549.99" y2="230.563" gradientUnits="userSpaceOnUse">
<stop stop-color="#00ACF2"/>
<stop offset="1" stop-color="#B0D866"/>
</linearGradient>
</defs>
</svg>
