<svg width="1366" height="1052" viewBox="0 0 1366 1052" fill="none" xmlns="http://www.w3.org/2000/svg">
<g opacity="0.25">
<path d="M363.059 228.41C479.03 125.326 606.908 119.759 717.185 170.209C827.494 220.675 920.206 327.204 965.705 448.321C988.495 508.99 1016.31 543.431 1045.51 560.109C1074.72 576.797 1105.24 575.654 1133.32 565.334C1161.39 555.018 1187.04 535.528 1206.6 515.467C1226.14 495.419 1239.66 474.733 1243.4 461.979L1242.44 461.698C1238.77 474.218 1225.39 494.763 1205.88 514.769C1186.39 534.761 1160.86 554.147 1132.98 564.395C1105.1 574.64 1074.9 575.748 1046 559.241C1017.09 542.724 989.388 508.523 966.641 447.969C921.062 326.639 828.182 219.89 717.601 169.3C606.989 118.696 478.682 124.298 362.395 227.662C304.293 279.307 275.476 320.045 260.093 350.014C252.401 365 248.073 377.284 245.122 386.88C244.228 389.788 243.457 392.461 242.759 394.881L242.758 394.884C242.308 396.444 241.889 397.898 241.486 399.241C240.453 402.692 239.526 405.435 238.459 407.507C237.395 409.574 236.217 410.92 234.711 411.643C233.204 412.366 231.283 412.506 228.648 411.98C223.348 410.924 215.441 407.245 202.869 400.888C199.395 399.132 195.57 397.174 191.353 395.014C165.099 381.574 123.618 360.337 56.7736 331.399C-67.4086 277.637 -139.774 292.452 -179.699 333.115C-219.566 373.719 -226.871 439.904 -221.401 488.434L-220.407 488.322C-225.865 439.904 -218.537 374.099 -178.986 333.816C-139.492 293.592 -67.6537 278.62 56.3763 332.316C123.189 361.241 164.644 382.464 190.897 395.904C195.115 398.064 198.942 400.023 202.417 401.781C214.945 408.115 222.988 411.872 228.453 412.961C231.2 413.509 233.366 413.398 235.144 412.544C236.923 411.69 238.232 410.133 239.348 407.965C240.462 405.802 241.411 402.979 242.444 399.528C242.853 398.164 243.274 396.704 243.724 395.144L243.725 395.141L243.725 395.139L243.726 395.136C244.42 392.729 245.184 390.081 246.078 387.174C249.016 377.618 253.325 365.391 260.982 350.471C276.298 320.632 305.031 279.989 363.059 228.41Z" fill="url(#paint0_linear_221_1949)" style="mix-blend-mode:multiply"/>
<path d="M306.795 503.131C339.793 486.74 364.257 453.989 386.158 417.131C394.545 403.016 402.565 388.282 410.546 373.619L410.549 373.613L410.587 373.544L410.602 373.516C413.026 369.064 415.445 364.619 417.871 360.2C428.307 341.185 438.85 322.649 450.247 306.089C473.05 272.959 499.211 247.835 534.652 242.595C570.102 237.354 615.002 251.982 675.337 298.784C771.617 373.47 835.374 467.25 890.927 548.963L890.928 548.965C905.001 569.664 918.547 589.589 931.962 608.233C965.133 654.333 997.521 692.624 1035.1 715.328C1072.71 738.052 1115.48 745.142 1169.36 728.917L1169.07 727.96C1115.45 744.107 1072.97 737.043 1035.62 714.472C998.225 691.881 965.936 653.738 932.774 607.649C919.385 589.041 905.856 569.141 891.795 548.458C836.237 466.735 772.368 372.788 675.95 297.994C615.539 251.133 570.361 236.305 534.506 241.606C498.643 246.908 472.273 272.324 449.424 305.522C437.995 322.126 427.432 340.701 416.994 359.719C414.547 364.177 412.107 368.659 409.665 373.146C401.685 387.808 393.676 402.521 385.298 416.62C363.409 453.459 339.069 485.983 306.35 502.236C294.372 508.186 284.209 513.408 275.452 517.908L275.441 517.913C260.152 525.769 249.147 531.424 240.24 534.913C233.25 537.651 227.599 539.035 222.224 539.105C216.855 539.176 211.724 537.936 205.776 535.367C199.818 532.794 193.06 528.898 184.433 523.667C181.936 522.154 179.283 520.529 176.45 518.793C169.504 514.537 161.471 509.616 151.984 504.038C125.263 488.325 86.9894 467.385 28.7772 441.294C-17.8157 420.41 -53.0821 413.315 -79.447 415.713C-105.84 418.113 -123.293 430.026 -134.209 447.074C-145.109 464.098 -149.465 486.2 -149.781 508.964C-150.096 531.735 -146.369 555.217 -141.058 575.043L-140.092 574.784C-145.385 555.027 -149.095 531.639 -148.781 508.978C-148.467 486.31 -144.127 464.419 -133.367 447.613C-122.623 430.833 -105.451 419.082 -79.3564 416.709C-53.2338 414.333 -18.1499 421.356 28.3682 442.206C86.5449 468.282 124.786 489.204 151.477 504.9C160.956 510.473 168.975 515.386 175.919 519.64C178.755 521.377 181.411 523.005 183.915 524.523C192.538 529.751 199.35 533.681 205.379 536.285C211.418 538.892 216.69 540.178 222.237 540.105C227.779 540.033 233.556 538.605 240.605 535.844C249.557 532.337 260.633 526.646 275.967 518.768L275.968 518.767L275.971 518.766L275.976 518.763C284.73 514.265 294.871 509.055 306.795 503.131Z" fill="url(#paint1_linear_221_1949)" style="mix-blend-mode:multiply"/>
<path d="M604.033 573.59C573.589 581.738 539.201 587.138 493.062 577.018C412.854 559.424 345.674 570.134 282.014 580.284C272.684 581.771 263.43 583.246 254.222 584.619C182.183 595.356 112.984 599.777 32.5278 554.183C16.4844 545.092 3.1398 539.077 -7.85617 535.641C-18.8569 532.204 -27.4728 531.36 -34.0753 532.57C-40.6568 533.775 -45.2545 537.023 -48.2541 541.834C-51.2657 546.663 -52.69 553.108 -52.824 560.727C-53.0919 575.971 -48.194 595.729 -40.8531 616.141C-33.5166 636.541 -23.7581 657.544 -14.3452 675.259L-15.2282 675.728C-24.6582 657.981 -34.4379 636.934 -41.7941 616.479C-49.1458 596.037 -54.095 576.139 -53.8238 560.71C-53.6882 552.993 -52.2464 546.346 -49.1027 541.305C-45.947 536.244 -41.1002 532.84 -34.2555 531.586C-27.4317 530.336 -18.6395 531.225 -7.55795 534.687C3.52844 538.151 16.9406 544.201 33.0209 553.313C113.183 598.741 182.107 594.356 254.074 583.63C263.27 582.259 272.517 580.785 281.843 579.298C345.5 569.147 412.871 558.404 493.276 576.041C539.212 586.117 573.431 580.745 603.774 572.624C611.649 570.516 619.272 568.219 626.778 565.957L626.781 565.957C648.17 559.512 668.604 553.355 691.161 552.687C752.215 550.88 828.801 589.214 983.47 769.157C1107.19 913.089 1202.61 959.639 1271.55 959.519C1340.45 959.4 1383.09 912.653 1401.25 869.487L1402.17 869.875C1383.91 913.28 1340.98 960.399 1271.55 960.519C1202.16 960.64 1106.48 913.806 982.712 769.809C828.022 589.842 751.721 551.895 691.191 553.687C668.777 554.35 648.523 560.453 627.173 566.885C619.643 569.153 611.978 571.463 604.033 573.59Z" fill="url(#paint2_linear_221_1949)" style="mix-blend-mode:multiply"/>
<path fill-rule="evenodd" clip-rule="evenodd" d="M636.612 353.401C586.663 340.649 539.252 350.805 521.753 357.493L521.735 357.501L521.716 357.509C488.617 373.313 445.554 399.302 424.092 425.899C413.365 439.192 407.934 452.765 412.049 465.342C416.159 477.907 429.724 489.248 456.393 498.271C523.03 520.816 597.295 529.24 654.135 524.544C682.549 522.196 706.654 516.566 723.279 507.747C739.907 498.928 749.163 486.846 747.565 471.609C741.267 411.567 699.063 369.345 636.612 353.401ZM424.87 426.527C446.18 400.119 489.055 374.214 522.129 358.42C539.491 351.79 586.672 341.683 636.365 354.37C698.491 370.231 740.324 412.164 746.57 471.713C748.108 486.373 739.261 498.139 722.81 506.864C706.357 515.591 682.406 521.204 654.052 523.547C597.355 528.232 523.227 519.827 456.714 497.324C430.122 488.327 416.957 477.128 412.999 465.032C409.046 452.948 414.21 439.738 424.87 426.527Z" fill="url(#paint3_linear_221_1949)" style="mix-blend-mode:multiply"/>
<path fill-rule="evenodd" clip-rule="evenodd" d="M697.007 605.952C710.664 607.593 744.923 617.2 773.028 642.53C808.169 674.201 821.214 716.017 804.834 757.132C800.654 767.623 790.464 772.304 776.641 772.344C762.822 772.384 745.239 767.799 725.989 759.621C687.477 743.26 642.125 712.447 606.536 675.087C592.29 660.132 587.308 648.113 588.929 638.505C590.552 628.882 598.753 621.915 610.255 616.957C633.272 607.035 670.098 604.893 696.967 605.949L696.987 605.95L697.007 605.952ZM696.907 606.947C670.065 605.894 633.444 608.05 610.651 617.875C599.246 622.791 591.452 629.562 589.915 638.671C588.376 647.794 593.07 659.501 607.26 674.397C642.76 711.664 688 742.395 726.38 758.7C745.574 766.855 763.013 771.384 776.638 771.344C790.26 771.305 799.94 766.712 803.905 756.761C820.101 716.109 807.251 674.72 772.359 643.273C744.451 618.12 710.417 608.576 696.907 606.947Z" fill="url(#paint4_linear_221_1949)" style="mix-blend-mode:multiply"/>
<path d="M44.1612 809.859C44.4051 809.279 44.5839 808.465 44.7213 807.469C44.8599 806.464 44.9606 805.24 45.0346 803.822C45.1828 800.986 45.2258 797.341 45.2444 793.06C45.2505 791.668 45.2539 790.209 45.2575 788.687C45.2761 780.836 45.2986 771.323 45.7001 760.906C46.659 736.024 49.7787 706.046 60.1347 681.359C70.4827 656.69 88.0244 637.365 117.833 633.616C147.698 629.861 189.994 641.722 249.872 679.794C309.825 717.914 358.418 735.888 400.703 743.646C442.984 751.405 478.93 748.944 513.552 746.234C514.297 746.176 515.04 746.117 515.784 746.059L517.094 745.956C550.46 743.333 582.734 740.795 618.529 747.278C655.577 753.987 696.426 770.367 746.128 806.381C844.411 877.596 925.47 890.735 1001.9 903.124L1004.99 903.624C1082.3 916.165 1155.01 928.726 1236.45 1000.86L1237.11 1000.12C1155.45 927.778 1082.49 915.183 1005.15 902.637L1002.08 902.139C925.669 889.754 844.805 876.647 746.715 805.571C696.912 769.485 655.926 753.034 618.707 746.294C582.783 739.788 550.393 742.334 517.052 744.956C515.861 745.05 514.668 745.144 513.474 745.237C478.857 747.947 443.025 750.396 400.883 742.663C358.745 734.931 310.271 717.013 250.408 678.95C190.471 640.84 147.926 628.824 117.708 632.624C87.4326 636.431 69.6489 656.093 59.2126 680.972C48.7843 705.831 45.6608 735.958 44.7008 760.868C44.2986 771.305 44.2761 780.838 44.2575 788.689C44.2539 790.209 44.2504 791.667 44.2444 793.055C44.2258 797.339 44.1827 800.961 44.036 803.77C43.9626 805.174 43.8638 806.367 43.7307 807.332C43.5964 808.305 43.4314 809.015 43.2394 809.471L44.1612 809.859Z" fill="url(#paint5_linear_221_1949)" style="mix-blend-mode:multiply"/>
</g>
<path fill-rule="evenodd" clip-rule="evenodd" d="M22.1589 521.905C24.1191 522.866 24.9415 525.208 23.9959 527.137C23.0502 529.066 20.6946 529.851 18.7344 528.89C16.7743 527.929 15.9518 525.587 16.8975 523.658C17.8431 521.729 20.1988 520.944 22.1589 521.905ZM407.518 1042.73C409.478 1043.69 410.3 1046.03 409.355 1047.96C408.409 1049.89 406.053 1050.68 404.093 1049.72C402.133 1048.75 401.311 1046.41 402.256 1044.48C403.202 1042.55 405.558 1041.77 407.518 1042.73ZM644.83 186.315C645.776 184.386 644.954 182.043 642.994 181.082C641.033 180.121 638.678 180.906 637.732 182.835C636.786 184.764 637.609 187.107 639.569 188.068C641.529 189.029 643.885 188.244 644.83 186.315ZM393.086 431.143C395.046 432.104 395.868 434.447 394.923 436.376C393.977 438.305 391.621 439.09 389.661 438.129C387.701 437.168 386.879 434.825 387.824 432.896C388.77 430.967 391.126 430.183 393.086 431.143ZM112.577 825.829C113.523 823.9 112.7 821.557 110.74 820.596C108.78 819.636 106.424 820.42 105.479 822.349C104.533 824.278 105.355 826.621 107.315 827.582C109.276 828.543 111.631 827.758 112.577 825.829Z" fill="#9775FA"/>
<defs>
<linearGradient id="paint0_linear_221_1949" x1="-188.292" y1="669.528" x2="1144.86" y2="1.68856" gradientUnits="userSpaceOnUse">
<stop stop-color="#00ACF2"/>
<stop offset="1" stop-color="#B0D866"/>
</linearGradient>
<linearGradient id="paint1_linear_221_1949" x1="-188.292" y1="669.528" x2="1144.86" y2="1.68856" gradientUnits="userSpaceOnUse">
<stop stop-color="#00ACF2"/>
<stop offset="1" stop-color="#B0D866"/>
</linearGradient>
<linearGradient id="paint2_linear_221_1949" x1="-188.292" y1="669.528" x2="1144.86" y2="1.68856" gradientUnits="userSpaceOnUse">
<stop stop-color="#00ACF2"/>
<stop offset="1" stop-color="#B0D866"/>
</linearGradient>
<linearGradient id="paint3_linear_221_1949" x1="-188.292" y1="669.528" x2="1144.86" y2="1.68856" gradientUnits="userSpaceOnUse">
<stop stop-color="#00ACF2"/>
<stop offset="1" stop-color="#B0D866"/>
</linearGradient>
<linearGradient id="paint4_linear_221_1949" x1="-188.292" y1="669.528" x2="1144.86" y2="1.68856" gradientUnits="userSpaceOnUse">
<stop stop-color="#00ACF2"/>
<stop offset="1" stop-color="#B0D866"/>
</linearGradient>
<linearGradient id="paint5_linear_221_1949" x1="-188.292" y1="669.528" x2="1144.86" y2="1.68856" gradientUnits="userSpaceOnUse">
<stop stop-color="#00ACF2"/>
<stop offset="1" stop-color="#B0D866"/>
</linearGradient>
</defs>
</svg>
