<svg width="694" height="1277" viewBox="0 0 694 1277" fill="none" xmlns="http://www.w3.org/2000/svg">
<g opacity="0.8">
<path opacity="0.2" d="M316.199 662.917C320.676 522.355 387.124 497.82 493.053 407.555C575.635 337.184 683.55 185.42 796.208 177.584C1053.34 159.698 1255.33 347.995 1247.37 598.16C1239.41 848.315 1024.5 1065.61 767.37 1083.49C510.237 1101.38 308.234 913.078 316.195 662.924L316.199 662.917Z" fill="url(#paint0_linear_221_1982)"/>
<path opacity="0.3" d="M503.201 805.305C461.258 707.596 503.222 668.459 553.63 571.057C592.942 495.111 625.022 354.959 707.035 311.71C894.256 212.996 1106.53 273.935 1181.16 447.818C1255.8 621.705 1164.54 842.695 977.316 941.405C790.111 1040.12 577.83 979.185 503.195 805.301L503.201 805.305Z" fill="url(#paint1_linear_221_1982)"/>
<path opacity="0.4" d="M650.921 852.391C588.985 791.933 611.587 750.078 624.232 662.122C634.091 593.549 619.661 479.136 673.382 422.183C795.997 292.193 984.746 274.03 1094.96 381.628C1205.18 489.232 1195.12 681.84 1072.5 811.836C949.888 941.825 761.133 959.984 650.925 852.384L650.921 852.391Z" fill="url(#paint2_linear_221_1982)"/>
<path style="mix-blend-mode:multiply" opacity="0.5" d="M733.794 841.008C666.98 804.663 677.799 764.999 670.153 689.358C664.198 630.397 627.344 538.845 662.082 479.787C741.367 344.993 902.03 288.16 1020.92 352.847C1139.82 417.544 1171.92 579.268 1092.63 714.065C1013.34 848.858 852.681 905.691 733.789 841.005L733.794 841.008Z" fill="url(#paint3_linear_221_1982)"/>
<path style="mix-blend-mode:multiply" opacity="0.6" d="M784.011 738.914C733.241 711.29 741.454 681.149 735.647 623.672C731.123 578.865 703.118 509.292 729.515 464.42C789.766 361.987 911.859 318.793 1002.21 367.961C1092.56 417.128 1116.95 540.021 1056.7 642.461C996.448 744.894 874.355 788.088 784.012 738.924L784.011 738.914Z" fill="url(#paint4_linear_221_1982)"/>
<path style="mix-blend-mode:multiply" opacity="0.7" d="M790.134 669.821C761.572 634.727 775.383 614.053 786.524 568.68C795.216 533.311 793.872 472.584 824.447 445.72C894.227 384.42 992.005 385.336 1042.83 447.795C1093.66 510.251 1078.3 610.58 1008.51 671.886C938.734 733.197 840.954 732.27 790.128 669.818L790.134 669.821Z" fill="url(#paint5_linear_221_1982)"/>
</g>
<defs>
<linearGradient id="paint0_linear_221_1982" x1="434.544" y1="410.706" x2="1143.74" y2="881.314" gradientUnits="userSpaceOnUse">
<stop stop-color="#00ACF2"/>
<stop offset="1" stop-color="#B0D866"/>
</linearGradient>
<linearGradient id="paint1_linear_221_1982" x1="584.699" y1="463.561" x2="1122.28" y2="820.285" gradientUnits="userSpaceOnUse">
<stop stop-color="#00ACF2"/>
<stop offset="1" stop-color="#B0D866"/>
</linearGradient>
<linearGradient id="paint2_linear_221_1982" x1="640.064" y1="469.588" x2="1102.55" y2="776.484" gradientUnits="userSpaceOnUse">
<stop stop-color="#00ACF2"/>
<stop offset="1" stop-color="#B0D866"/>
</linearGradient>
<linearGradient id="paint3_linear_221_1982" x1="643.09" y1="526.42" x2="1103.36" y2="699.28" gradientUnits="userSpaceOnUse">
<stop stop-color="#00ACF2"/>
<stop offset="1" stop-color="#B0D866"/>
</linearGradient>
<linearGradient id="paint4_linear_221_1982" x1="715.081" y1="499.858" x2="1064.84" y2="631.216" gradientUnits="userSpaceOnUse">
<stop stop-color="#00ACF2"/>
<stop offset="1" stop-color="#B0D866"/>
</linearGradient>
<linearGradient id="paint5_linear_221_1982" x1="804.835" y1="468.747" x2="1029.66" y2="650.297" gradientUnits="userSpaceOnUse">
<stop stop-color="#00ACF2"/>
<stop offset="1" stop-color="#B0D866"/>
</linearGradient>
</defs>
</svg>
