<svg width="909" height="1242" viewBox="0 0 909 1242" fill="none" xmlns="http://www.w3.org/2000/svg">
<path opacity="0.1" d="M563.643 481.861C630.655 370.625 814.623 96.3551 921.478 61.0704C1021.07 28.1776 1042.7 228.664 1131.56 278.053C1315.73 380.422 1360.07 637.634 1230.59 852.566C1101.11 1067.5 846.851 1158.74 662.675 1056.37C560.012 999.312 578.671 937.402 568.789 818.273C560.93 723.675 506.337 576.986 563.643 481.861Z" fill="url(#paint0_linear_221_1379)"/>
<path opacity="0.2" d="M624.094 486.227C683.662 387.347 847.154 143.617 942.11 112.27C1030.63 83.0437 1049.84 261.206 1128.81 305.099C1292.48 396.073 1331.89 624.671 1216.82 815.678C1101.75 1006.68 875.78 1087.78 712.105 996.806C620.861 946.09 637.447 891.072 628.653 785.202C621.694 701.129 573.174 570.752 624.094 486.227Z" fill="url(#paint1_linear_221_1379)"/>
<path opacity="0.3" d="M675.815 463.291C726.297 379.493 864.852 172.959 945.313 146.411C1020.33 121.649 1036.62 272.637 1103.52 309.823C1242.23 386.92 1275.63 580.645 1178.11 742.518C1080.59 904.391 889.092 973.115 750.383 896.017C673.074 853.047 687.095 806.427 679.655 716.711C673.733 645.464 632.63 534.975 675.778 463.351L675.815 463.291Z" fill="url(#paint2_linear_221_1379)"/>
<path opacity="0.5" d="M715.539 457.997C758.796 386.192 877.503 209.214 946.462 186.46C1010.71 165.254 1024.68 294.618 1082.04 326.496C1200.89 392.559 1229.51 558.564 1145.95 697.269C1062.39 835.974 898.289 894.864 779.433 828.801C713.179 791.976 725.228 752.022 718.852 675.146C713.793 614.081 678.565 519.43 715.546 458.042L715.539 457.997Z" fill="url(#paint3_linear_221_1379)"/>
<path style="mix-blend-mode:multiply" opacity="0.6" d="M731.194 506.598C765.658 449.39 860.263 308.336 915.214 290.206C966.41 273.305 977.565 376.405 1023.24 401.792C1117.96 454.44 1140.77 586.735 1074.17 697.275C1007.58 807.815 876.806 854.746 782.084 802.097C729.273 772.744 738.877 740.931 733.78 679.642C729.733 630.985 701.667 555.555 731.15 506.614L731.194 506.598Z" fill="url(#paint4_linear_221_1379)"/>
<path style="mix-blend-mode:multiply" opacity="0.7" d="M753.73 544.795C780.896 499.701 855.47 388.504 898.806 374.187C939.19 360.857 947.943 442.126 983.989 462.162C1058.65 503.66 1076.65 607.937 1024.14 695.097C971.634 782.256 868.544 819.229 793.882 777.73C752.256 754.594 759.826 729.493 755.797 681.208C752.611 642.853 730.486 583.378 753.711 544.826L753.73 544.795Z" fill="url(#paint5_linear_221_1379)"/>
<path style="mix-blend-mode:multiply" opacity="0.8" d="M777.239 571.005C798.348 535.965 856.315 449.576 889.969 438.448C921.362 428.084 928.167 491.252 956.143 506.801C1014.17 539.054 1028.13 620.067 987.34 687.784C946.545 755.501 866.463 784.24 808.436 751.987C776.101 734.015 781.96 714.512 778.869 676.977C776.384 647.176 759.195 600.956 777.239 571.005Z" fill="url(#paint6_linear_221_1379)"/>
<path style="mix-blend-mode:multiply" d="M796.884 568.596C813.797 540.522 860.245 471.298 887.213 462.356C912.344 454.049 917.807 504.667 940.229 517.13C986.734 542.978 997.924 607.896 965.23 662.166C932.536 716.437 868.364 739.466 821.859 713.618C795.934 699.208 800.633 683.588 798.145 653.503C796.168 629.644 782.39 592.597 796.858 568.581L796.884 568.596Z" fill="url(#paint7_linear_221_1379)"/>
<defs>
<linearGradient id="paint0_linear_221_1379" x1="1258.5" y1="806.23" x2="605.296" y2="412.719" gradientUnits="userSpaceOnUse">
<stop stop-color="#6777B8"/>
<stop offset="1" stop-color="#5CC2D8"/>
</linearGradient>
<linearGradient id="paint1_linear_221_1379" x1="1241.66" y1="774.505" x2="661.118" y2="424.77" gradientUnits="userSpaceOnUse">
<stop stop-color="#6777B8"/>
<stop offset="1" stop-color="#5CC2D8"/>
</linearGradient>
<linearGradient id="paint2_linear_221_1379" x1="1199.15" y1="707.6" x2="707.18" y2="411.226" gradientUnits="userSpaceOnUse">
<stop stop-color="#6777B8"/>
<stop offset="1" stop-color="#5CC2D8"/>
</linearGradient>
<linearGradient id="paint3_linear_221_1379" x1="1163.97" y1="667.348" x2="742.413" y2="413.387" gradientUnits="userSpaceOnUse">
<stop stop-color="#6777B8"/>
<stop offset="1" stop-color="#5CC2D8"/>
</linearGradient>
<linearGradient id="paint4_linear_221_1379" x1="1088.58" y1="673.425" x2="752.619" y2="471.034" gradientUnits="userSpaceOnUse">
<stop stop-color="#6777B8"/>
<stop offset="1" stop-color="#5CC2D8"/>
</linearGradient>
<linearGradient id="paint5_linear_221_1379" x1="1035.45" y1="676.32" x2="770.612" y2="516.772" gradientUnits="userSpaceOnUse">
<stop stop-color="#6777B8"/>
<stop offset="1" stop-color="#5CC2D8"/>
</linearGradient>
<linearGradient id="paint6_linear_221_1379" x1="996.134" y1="673.187" x2="790.361" y2="549.223" gradientUnits="userSpaceOnUse">
<stop stop-color="#6777B8"/>
<stop offset="1" stop-color="#5CC2D8"/>
</linearGradient>
<linearGradient id="paint7_linear_221_1379" x1="972.298" y1="650.491" x2="807.395" y2="551.148" gradientUnits="userSpaceOnUse">
<stop stop-color="#6777B8"/>
<stop offset="1" stop-color="#5CC2D8"/>
</linearGradient>
</defs>
</svg>
