<svg width="144" height="51" viewBox="0 0 144 51" fill="none" xmlns="http://www.w3.org/2000/svg">
<rect x="1.5" y="1.5" width="141" height="47.6166" rx="23.8083" stroke="url(#paint0_linear_301_7057)" stroke-width="3" style="mix-blend-mode:multiply"/>
<path d="M59.0645 26.5464L56.025 35.5918H53.8936L57.878 24.9277H59.2403L59.0645 26.5464ZM61.606 35.5918L58.5518 26.5464L58.3687 24.9277H59.7383L63.7447 35.5918H61.606ZM61.4669 31.6294V33.2188H55.7466V31.6294H61.4669ZM66.44 29.1904V38.6387H64.4991V27.667H66.2935L66.44 29.1904ZM71.5303 31.5488V31.7026C71.5303 32.2788 71.462 32.8135 71.3253 33.3066C71.1934 33.7949 70.9981 34.2222 70.7393 34.5884C70.4805 34.9497 70.1583 35.2329 69.7725 35.438C69.3917 35.6382 68.9522 35.7383 68.4542 35.7383C67.9659 35.7383 67.5411 35.6455 67.1798 35.46C66.8184 35.2695 66.5132 35.001 66.2642 34.6543C66.0152 34.3076 65.815 33.9048 65.6636 33.4458C65.5172 32.9819 65.4073 32.4766 65.334 31.9297V31.439C65.4073 30.8579 65.5172 30.3306 65.6636 29.8569C65.815 29.3784 66.0152 28.9658 66.2642 28.6191C66.5132 28.2676 66.816 27.9966 67.1724 27.8062C67.5338 27.6157 67.9561 27.5205 68.4395 27.5205C68.9424 27.5205 69.3843 27.6157 69.7652 27.8062C70.1509 27.9966 70.4757 28.27 70.7393 28.6265C71.003 28.9829 71.2007 29.4077 71.3326 29.9009C71.4644 30.394 71.5303 30.9434 71.5303 31.5488ZM69.5894 31.7026V31.5488C69.5894 31.1973 69.5577 30.8726 69.4942 30.5747C69.4307 30.272 69.3331 30.0083 69.2012 29.7837C69.0694 29.5542 68.8985 29.376 68.6885 29.249C68.4786 29.1221 68.2247 29.0586 67.9268 29.0586C67.629 29.0586 67.3726 29.1074 67.1578 29.2051C66.9429 29.3027 66.7672 29.4419 66.6304 29.6226C66.4937 29.8032 66.3863 30.0181 66.3082 30.2671C66.2349 30.5112 66.1861 30.7822 66.1617 31.0801V32.2959C66.2056 32.6572 66.2911 32.9819 66.418 33.27C66.545 33.5581 66.7305 33.7876 66.9747 33.9585C67.2237 34.1294 67.546 34.2148 67.9415 34.2148C68.2393 34.2148 68.4932 34.1489 68.7032 34.0171C68.9132 33.8853 69.084 33.7046 69.2159 33.4751C69.3477 33.2407 69.4429 32.9722 69.5015 32.6694C69.5601 32.3667 69.5894 32.0444 69.5894 31.7026ZM74.8775 29.1904V38.6387H72.9366V27.667H74.731L74.8775 29.1904ZM79.9678 31.5488V31.7026C79.9678 32.2788 79.8995 32.8135 79.7628 33.3066C79.6309 33.7949 79.4356 34.2222 79.1768 34.5884C78.918 34.9497 78.5958 35.2329 78.21 35.438C77.8292 35.6382 77.3897 35.7383 76.8917 35.7383C76.4034 35.7383 75.9786 35.6455 75.6173 35.46C75.2559 35.2695 74.9507 35.001 74.7017 34.6543C74.4527 34.3076 74.2525 33.9048 74.1011 33.4458C73.9547 32.9819 73.8448 32.4766 73.7715 31.9297V31.439C73.8448 30.8579 73.9547 30.3306 74.1011 29.8569C74.2525 29.3784 74.4527 28.9658 74.7017 28.6191C74.9507 28.2676 75.2535 27.9966 75.6099 27.8062C75.9713 27.6157 76.3936 27.5205 76.877 27.5205C77.3799 27.5205 77.8218 27.6157 78.2027 27.8062C78.5884 27.9966 78.9132 28.27 79.1768 28.6265C79.4405 28.9829 79.6382 29.4077 79.7701 29.9009C79.9019 30.394 79.9678 30.9434 79.9678 31.5488ZM78.0269 31.7026V31.5488C78.0269 31.1973 77.9952 30.8726 77.9317 30.5747C77.8682 30.272 77.7706 30.0083 77.6387 29.7837C77.5069 29.5542 77.336 29.376 77.126 29.249C76.9161 29.1221 76.6622 29.0586 76.3643 29.0586C76.0665 29.0586 75.8101 29.1074 75.5953 29.2051C75.3804 29.3027 75.2047 29.4419 75.0679 29.6226C74.9312 29.8032 74.8238 30.0181 74.7457 30.2671C74.6724 30.5112 74.6236 30.7822 74.5992 31.0801V32.2959C74.6431 32.6572 74.7286 32.9819 74.8555 33.27C74.9825 33.5581 75.168 33.7876 75.4122 33.9585C75.6612 34.1294 75.9835 34.2148 76.379 34.2148C76.6768 34.2148 76.9307 34.1489 77.1407 34.0171C77.3507 33.8853 77.5215 33.7046 77.6534 33.4751C77.7852 33.2407 77.8804 32.9722 77.939 32.6694C77.9976 32.3667 78.0269 32.0444 78.0269 31.7026ZM90.8443 32.8232C90.8443 32.6182 90.8126 32.4351 90.7491 32.2739C90.6905 32.1079 90.5806 31.959 90.4195 31.8271C90.2632 31.6904 90.0411 31.5586 89.753 31.4316C89.4698 31.2998 89.1036 31.1631 88.6544 31.0215C88.1563 30.8652 87.6924 30.6895 87.2628 30.4941C86.8331 30.2988 86.4547 30.0718 86.1275 29.813C85.8052 29.5542 85.5538 29.2563 85.3731 28.9194C85.1924 28.5776 85.1021 28.1821 85.1021 27.7329C85.1021 27.2935 85.1949 26.8931 85.3804 26.5317C85.5709 26.1704 85.8394 25.8604 86.1861 25.6016C86.5328 25.3379 86.9405 25.1353 87.4092 24.9937C87.8829 24.8521 88.4053 24.7812 88.9766 24.7812C89.7676 24.7812 90.4512 24.9253 91.0274 25.2134C91.6085 25.5015 92.0577 25.8921 92.3751 26.3853C92.6924 26.8784 92.8511 27.4326 92.8511 28.0479H90.8443C90.8443 27.7158 90.7735 27.4229 90.6319 27.1689C90.4952 26.915 90.2852 26.7148 90.002 26.5684C89.7237 26.4219 89.3721 26.3486 88.9473 26.3486C88.5372 26.3486 88.1954 26.4097 87.9219 26.5317C87.6534 26.6538 87.4507 26.8198 87.314 27.0298C87.1822 27.2397 87.1163 27.4741 87.1163 27.7329C87.1163 27.9282 87.1627 28.104 87.2554 28.2603C87.3482 28.4116 87.4874 28.5557 87.6729 28.6924C87.8585 28.8242 88.088 28.9487 88.3614 29.0659C88.6397 29.1782 88.962 29.2905 89.3282 29.4028C89.9141 29.5786 90.4268 29.7739 90.8663 29.9888C91.3106 30.2036 91.6793 30.4478 91.9722 30.7212C92.2701 30.9946 92.4923 31.3022 92.6387 31.644C92.7901 31.9858 92.8658 32.374 92.8658 32.8086C92.8658 33.2676 92.7755 33.6777 92.5948 34.0391C92.4141 34.4004 92.1553 34.708 91.8184 34.9619C91.4815 35.2158 91.0762 35.4087 90.6026 35.5405C90.1339 35.6724 89.609 35.7383 89.0279 35.7383C88.5103 35.7383 87.9976 35.6699 87.4898 35.5332C86.9869 35.3916 86.5303 35.1816 86.1202 34.9033C85.71 34.6201 85.3829 34.2637 85.1387 33.834C84.8946 33.3994 84.7725 32.8916 84.7725 32.3105H86.794C86.794 32.6475 86.8477 32.9355 86.9551 33.1748C87.0674 33.4092 87.2237 33.6021 87.4239 33.7534C87.629 33.8999 87.8682 34.0073 88.1417 34.0757C88.4151 34.144 88.7105 34.1782 89.0279 34.1782C89.4381 34.1782 89.775 34.1221 90.0386 34.0098C90.3072 33.8926 90.5074 33.7314 90.6392 33.5264C90.7759 33.3213 90.8443 33.0869 90.8443 32.8232ZM98.022 27.667V29.0586H93.481V27.667H98.022ZM94.6968 25.7188H96.6378V33.3066C96.6378 33.541 96.6695 33.7217 96.733 33.8486C96.7965 33.9756 96.8917 34.061 97.0186 34.105C97.1456 34.1489 97.2969 34.1709 97.4727 34.1709C97.5997 34.1709 97.7169 34.1636 97.8243 34.1489C97.9317 34.1343 98.022 34.1196 98.0953 34.105L98.1026 35.5552C97.9415 35.6089 97.7584 35.6528 97.5533 35.687C97.3531 35.7212 97.126 35.7383 96.8721 35.7383C96.4376 35.7383 96.0567 35.665 95.7296 35.5186C95.4024 35.3672 95.1485 35.1255 94.9678 34.7935C94.7872 34.4565 94.6968 34.0122 94.6968 33.4604V25.7188ZM98.7764 31.71V31.5562C98.7764 30.9751 98.8594 30.4404 99.0255 29.9521C99.1915 29.459 99.4332 29.0317 99.7506 28.6704C100.068 28.3091 100.456 28.0283 100.915 27.8281C101.374 27.623 101.897 27.5205 102.482 27.5205C103.078 27.5205 103.606 27.623 104.065 27.8281C104.528 28.0283 104.919 28.3091 105.236 28.6704C105.554 29.0317 105.795 29.459 105.961 29.9521C106.128 30.4404 106.211 30.9751 106.211 31.5562V31.71C106.211 32.2861 106.128 32.8208 105.961 33.314C105.795 33.8022 105.554 34.2295 105.236 34.5957C104.919 34.957 104.531 35.2378 104.072 35.438C103.613 35.6382 103.088 35.7383 102.497 35.7383C101.911 35.7383 101.386 35.6382 100.922 35.438C100.459 35.2378 100.068 34.957 99.7506 34.5957C99.4332 34.2295 99.1915 33.8022 99.0255 33.314C98.8594 32.8208 98.7764 32.2861 98.7764 31.71ZM100.71 31.5562V31.71C100.71 32.0566 100.744 32.3813 100.813 32.6841C100.881 32.9868 100.986 33.2529 101.128 33.4824C101.269 33.7119 101.452 33.8926 101.677 34.0244C101.906 34.1514 102.18 34.2148 102.497 34.2148C102.81 34.2148 103.078 34.1514 103.303 34.0244C103.527 33.8926 103.711 33.7119 103.852 33.4824C103.999 33.2529 104.106 32.9868 104.174 32.6841C104.243 32.3813 104.277 32.0566 104.277 31.71V31.5562C104.277 31.2144 104.243 30.8945 104.174 30.5967C104.106 30.2939 103.999 30.0278 103.852 29.7983C103.711 29.564 103.525 29.3809 103.295 29.249C103.071 29.1123 102.8 29.0439 102.482 29.0439C102.17 29.0439 101.901 29.1123 101.677 29.249C101.452 29.3809 101.269 29.564 101.128 29.7983C100.986 30.0278 100.881 30.2939 100.813 30.5967C100.744 30.8945 100.71 31.2144 100.71 31.5562ZM109.55 29.2856V35.5918H107.617V27.667H109.448L109.55 29.2856ZM111.96 27.6157L111.931 29.4175C111.823 29.3979 111.701 29.3833 111.565 29.3735C111.433 29.3638 111.308 29.3589 111.191 29.3589C110.893 29.3589 110.632 29.4004 110.407 29.4834C110.183 29.5615 109.995 29.6763 109.843 29.8276C109.697 29.979 109.585 30.1646 109.506 30.3843C109.428 30.5991 109.384 30.8433 109.375 31.1167L108.957 31.0654C108.957 30.5625 109.008 30.0962 109.111 29.6665C109.213 29.2368 109.362 28.8608 109.558 28.5386C109.753 28.2163 109.997 27.9673 110.29 27.7915C110.588 27.6108 110.93 27.5205 111.315 27.5205C111.423 27.5205 111.538 27.5303 111.66 27.5498C111.787 27.5645 111.887 27.5864 111.96 27.6157ZM116.435 35.7383C115.835 35.7383 115.295 35.6406 114.816 35.4453C114.338 35.25 113.93 34.979 113.593 34.6323C113.261 34.2808 113.005 33.873 112.824 33.4092C112.648 32.9404 112.561 32.4375 112.561 31.9004V31.6074C112.561 30.9971 112.648 30.4429 112.824 29.9448C113 29.4419 113.249 29.0098 113.571 28.6484C113.894 28.2871 114.279 28.0088 114.729 27.8135C115.178 27.6182 115.673 27.5205 116.215 27.5205C116.777 27.5205 117.273 27.6157 117.702 27.8062C118.132 27.9917 118.491 28.2554 118.779 28.5972C119.067 28.939 119.284 29.3491 119.431 29.8276C119.577 30.3013 119.65 30.8262 119.65 31.4023V32.2153H113.44V30.8823H117.746V30.7358C117.736 30.4282 117.678 30.1475 117.57 29.8936C117.463 29.6348 117.297 29.4297 117.072 29.2783C116.848 29.1221 116.557 29.0439 116.201 29.0439C115.913 29.0439 115.661 29.1074 115.446 29.2344C115.236 29.3564 115.061 29.5322 114.919 29.7617C114.782 29.9863 114.68 30.2549 114.611 30.5674C114.543 30.8799 114.509 31.2266 114.509 31.6074V31.9004C114.509 32.2324 114.553 32.54 114.641 32.8232C114.733 33.1064 114.868 33.353 115.044 33.563C115.224 33.7681 115.439 33.9292 115.688 34.0464C115.942 34.1587 116.23 34.2148 116.552 34.2148C116.958 34.2148 117.324 34.1367 117.651 33.9805C117.983 33.8193 118.271 33.5825 118.515 33.27L119.489 34.2808C119.323 34.5249 119.099 34.7593 118.815 34.9839C118.537 35.2085 118.2 35.3916 117.805 35.5332C117.409 35.6699 116.953 35.7383 116.435 35.7383Z" fill="black"/>
<path d="M54.0077 17.6392H54.8514C54.8075 18.0435 54.6918 18.4053 54.5043 18.7246C54.3168 19.0439 54.0516 19.2974 53.7089 19.4849C53.3661 19.6694 52.9384 19.7617 52.4257 19.7617C52.0507 19.7617 51.7094 19.6914 51.4017 19.5508C51.097 19.4102 50.8348 19.2109 50.6151 18.9531C50.3954 18.6924 50.2255 18.3804 50.1054 18.0171C49.9882 17.6509 49.9296 17.2437 49.9296 16.7954V16.1582C49.9296 15.71 49.9882 15.3042 50.1054 14.9409C50.2255 14.5747 50.3969 14.2612 50.6195 14.0005C50.8451 13.7397 51.1161 13.5391 51.4325 13.3984C51.7489 13.2578 52.1049 13.1875 52.5004 13.1875C52.9838 13.1875 53.3925 13.2783 53.7264 13.46C54.0604 13.6416 54.3197 13.8936 54.5043 14.2158C54.6918 14.5352 54.8075 14.9058 54.8514 15.3276H54.0077C53.9667 15.0288 53.8905 14.7725 53.7792 14.5586C53.6679 14.3418 53.5096 14.1748 53.3046 14.0576C53.0995 13.9404 52.8314 13.8818 52.5004 13.8818C52.2162 13.8818 51.9657 13.936 51.7489 14.0444C51.535 14.1528 51.3549 14.3066 51.2084 14.5059C51.0648 14.7051 50.9564 14.9438 50.8832 15.2222C50.8099 15.5005 50.7733 15.8096 50.7733 16.1494V16.7954C50.7733 17.1089 50.8055 17.4033 50.87 17.6787C50.9374 17.9541 51.0385 18.1958 51.1732 18.4038C51.308 18.6118 51.4794 18.7759 51.6874 18.896C51.8954 19.0132 52.1415 19.0718 52.4257 19.0718C52.786 19.0718 53.0731 19.0146 53.287 18.9004C53.5009 18.7861 53.662 18.6221 53.7704 18.4082C53.8817 18.1943 53.9608 17.938 54.0077 17.6392ZM55.6688 17.3491V17.248C55.6688 16.9053 55.7186 16.5874 55.8182 16.2944C55.9179 15.9985 56.0614 15.7422 56.2489 15.5254C56.4364 15.3057 56.6635 15.1357 56.9301 15.0156C57.1967 14.8926 57.4955 14.8311 57.8265 14.8311C58.1605 14.8311 58.4608 14.8926 58.7274 15.0156C58.997 15.1357 59.2255 15.3057 59.413 15.5254C59.6034 15.7422 59.7484 15.9985 59.848 16.2944C59.9476 16.5874 59.9974 16.9053 59.9974 17.248V17.3491C59.9974 17.6919 59.9476 18.0098 59.848 18.3027C59.7484 18.5957 59.6034 18.8521 59.413 19.0718C59.2255 19.2886 58.9984 19.4585 58.7318 19.5815C58.4681 19.7017 58.1693 19.7617 57.8353 19.7617C57.5013 19.7617 57.2011 19.7017 56.9345 19.5815C56.6679 19.4585 56.4393 19.2886 56.2489 19.0718C56.0614 18.8521 55.9179 18.5957 55.8182 18.3027C55.7186 18.0098 55.6688 17.6919 55.6688 17.3491ZM56.4818 17.248V17.3491C56.4818 17.5864 56.5096 17.8105 56.5653 18.0215C56.621 18.2295 56.7045 18.4141 56.8158 18.5752C56.9301 18.7363 57.0721 18.8638 57.2421 18.9575C57.412 19.0483 57.6097 19.0938 57.8353 19.0938C58.058 19.0938 58.2528 19.0483 58.4198 18.9575C58.5897 18.8638 58.7304 18.7363 58.8417 18.5752C58.953 18.4141 59.0365 18.2295 59.0922 18.0215C59.1508 17.8105 59.1801 17.5864 59.1801 17.3491V17.248C59.1801 17.0137 59.1508 16.7925 59.0922 16.5845C59.0365 16.3735 58.9515 16.1875 58.8373 16.0264C58.726 15.8623 58.5853 15.7334 58.4154 15.6396C58.2484 15.5459 58.0521 15.499 57.8265 15.499C57.6039 15.499 57.4076 15.5459 57.2377 15.6396C57.0707 15.7334 56.9301 15.8623 56.8158 16.0264C56.7045 16.1875 56.621 16.3735 56.5653 16.5845C56.5096 16.7925 56.4818 17.0137 56.4818 17.248ZM61.8256 15.8638V19.6738H61.0082V14.9189H61.7816L61.8256 15.8638ZM61.6586 17.1162L61.2806 17.103C61.2836 16.7778 61.3261 16.4775 61.4081 16.2021C61.4901 15.9238 61.6117 15.6821 61.7728 15.4771C61.934 15.272 62.1346 15.1138 62.3749 15.0024C62.6151 14.8882 62.8934 14.8311 63.2098 14.8311C63.4325 14.8311 63.6376 14.8633 63.8251 14.9277C64.0126 14.9893 64.1752 15.0874 64.3129 15.2222C64.4506 15.3569 64.5575 15.5298 64.6337 15.7407C64.7098 15.9517 64.7479 16.2065 64.7479 16.5054V19.6738H63.9349V16.5449C63.9349 16.2959 63.8925 16.0967 63.8075 15.9473C63.7255 15.7979 63.6083 15.6895 63.4559 15.6221C63.3036 15.5518 63.1249 15.5166 62.9198 15.5166C62.6796 15.5166 62.4789 15.5591 62.3178 15.644C62.1566 15.729 62.0277 15.8462 61.931 15.9956C61.8344 16.145 61.764 16.3164 61.7201 16.5098C61.6791 16.7002 61.6586 16.9023 61.6586 17.1162ZM64.7391 16.668L64.1942 16.835C64.1971 16.5742 64.2396 16.3237 64.3217 16.0835C64.4066 15.8433 64.5282 15.6294 64.6864 15.4419C64.8475 15.2544 65.0453 15.1064 65.2797 14.998C65.514 14.8867 65.7821 14.8311 66.0839 14.8311C66.3387 14.8311 66.5643 14.8647 66.7606 14.9321C66.9598 14.9995 67.1268 15.1035 67.2616 15.2441C67.3993 15.3818 67.5033 15.5591 67.5736 15.7759C67.6439 15.9927 67.6791 16.2505 67.6791 16.5493V19.6738H66.8617V16.5405C66.8617 16.2739 66.8192 16.0674 66.7343 15.9209C66.6522 15.7715 66.535 15.6675 66.3827 15.6089C66.2333 15.5474 66.0546 15.5166 65.8466 15.5166C65.6679 15.5166 65.5096 15.5474 65.372 15.6089C65.2343 15.6704 65.1185 15.7554 65.0248 15.8638C64.931 15.9692 64.8593 16.0908 64.8095 16.2285C64.7626 16.3662 64.7391 16.5127 64.7391 16.668ZM69.7929 14.9189V19.6738H68.9755V14.9189H69.7929ZM68.9139 13.6577C68.9139 13.5259 68.9535 13.4146 69.0326 13.3237C69.1146 13.2329 69.2347 13.1875 69.3929 13.1875C69.5482 13.1875 69.6669 13.2329 69.7489 13.3237C69.8339 13.4146 69.8763 13.5259 69.8763 13.6577C69.8763 13.7837 69.8339 13.8921 69.7489 13.9829C69.6669 14.0708 69.5482 14.1147 69.3929 14.1147C69.2347 14.1147 69.1146 14.0708 69.0326 13.9829C68.9535 13.8921 68.9139 13.7837 68.9139 13.6577ZM71.911 15.9341V19.6738H71.098V14.9189H71.8671L71.911 15.9341ZM71.7177 17.1162L71.3793 17.103C71.3822 16.7778 71.4305 16.4775 71.5243 16.2021C71.618 15.9238 71.7499 15.6821 71.9198 15.4771C72.0897 15.272 72.2919 15.1138 72.5262 15.0024C72.7636 14.8882 73.0258 14.8311 73.3129 14.8311C73.5472 14.8311 73.7582 14.8633 73.9457 14.9277C74.1332 14.9893 74.2929 15.0889 74.4247 15.2266C74.5595 15.3643 74.662 15.543 74.7323 15.7627C74.8026 15.9795 74.8378 16.2446 74.8378 16.5581V19.6738H74.0204V16.5493C74.0204 16.3003 73.9838 16.1011 73.9105 15.9517C73.8373 15.7993 73.7304 15.6895 73.5897 15.6221C73.4491 15.5518 73.2762 15.5166 73.0712 15.5166C72.869 15.5166 72.6845 15.5591 72.5175 15.644C72.3534 15.729 72.2113 15.8462 72.0912 15.9956C71.974 16.145 71.8817 16.3164 71.8143 16.5098C71.7499 16.7002 71.7177 16.9023 71.7177 17.1162ZM79.1532 14.9189H79.8915V19.5728C79.8915 19.9917 79.8065 20.3491 79.6366 20.645C79.4667 20.9409 79.2294 21.165 78.9247 21.3174C78.6229 21.4727 78.2743 21.5503 77.8788 21.5503C77.7147 21.5503 77.5214 21.5239 77.2987 21.4712C77.079 21.4214 76.8622 21.335 76.6483 21.2119C76.4374 21.0918 76.2601 20.9292 76.1166 20.7241L76.5429 20.2407C76.7421 20.481 76.9501 20.6479 77.1669 20.7417C77.3866 20.8354 77.6034 20.8823 77.8173 20.8823C78.0751 20.8823 78.2977 20.834 78.4852 20.7373C78.6727 20.6406 78.8178 20.4971 78.9203 20.3066C79.0258 20.1191 79.0785 19.8877 79.0785 19.6123V15.9648L79.1532 14.9189ZM75.8793 17.3491V17.2568C75.8793 16.8936 75.9218 16.564 76.0067 16.2681C76.0946 15.9692 76.2191 15.7129 76.3803 15.499C76.5443 15.2852 76.7421 15.1211 76.9735 15.0068C77.205 14.8896 77.4657 14.8311 77.7557 14.8311C78.0546 14.8311 78.3153 14.8838 78.538 14.9893C78.7636 15.0918 78.954 15.2427 79.1093 15.4419C79.2675 15.6382 79.392 15.8755 79.4828 16.1538C79.5736 16.4321 79.6366 16.7471 79.6718 17.0986V17.5029C79.6395 17.8516 79.5765 18.165 79.4828 18.4434C79.392 18.7217 79.2675 18.959 79.1093 19.1553C78.954 19.3516 78.7636 19.5024 78.538 19.6079C78.3124 19.7104 78.0487 19.7617 77.747 19.7617C77.4628 19.7617 77.205 19.7017 76.9735 19.5815C76.745 19.4614 76.5487 19.293 76.3846 19.0762C76.2206 18.8594 76.0946 18.6045 76.0067 18.3115C75.9218 18.0156 75.8793 17.6948 75.8793 17.3491ZM76.6923 17.2568V17.3491C76.6923 17.5864 76.7157 17.8091 76.7626 18.0171C76.8124 18.2251 76.8871 18.4082 76.9867 18.5664C77.0892 18.7246 77.2196 18.8491 77.3778 18.9399C77.536 19.0278 77.725 19.0718 77.9447 19.0718C78.2142 19.0718 78.4369 19.0146 78.6127 18.9004C78.7885 18.7861 78.9276 18.6353 79.0302 18.4478C79.1356 18.2603 79.2177 18.0566 79.2762 17.8369V16.7778C79.244 16.6167 79.1942 16.4614 79.1268 16.312C79.0624 16.1597 78.9774 16.0249 78.872 15.9077C78.7694 15.7876 78.642 15.6924 78.4896 15.6221C78.3373 15.5518 78.1586 15.5166 77.9535 15.5166C77.7308 15.5166 77.5389 15.5635 77.3778 15.6572C77.2196 15.748 77.0892 15.874 76.9867 16.0352C76.8871 16.1934 76.8124 16.3779 76.7626 16.5889C76.7157 16.7969 76.6923 17.0195 76.6923 17.2568ZM86.1273 18.4126C86.1273 18.2954 86.101 18.187 86.0482 18.0874C85.9984 17.9849 85.8944 17.8926 85.7362 17.8105C85.5809 17.7256 85.3466 17.6523 85.0331 17.5908C84.7694 17.5352 84.5306 17.4692 84.3168 17.3931C84.1058 17.3169 83.9257 17.2246 83.7762 17.1162C83.6298 17.0078 83.517 16.8804 83.4379 16.7339C83.3588 16.5874 83.3192 16.416 83.3192 16.2197C83.3192 16.0322 83.3602 15.855 83.4423 15.688C83.5272 15.521 83.6459 15.373 83.7982 15.2441C83.9535 15.1152 84.1395 15.0142 84.3563 14.9409C84.5731 14.8677 84.8148 14.8311 85.0814 14.8311C85.4623 14.8311 85.7875 14.8984 86.057 15.0332C86.3265 15.168 86.5331 15.3481 86.6766 15.5737C86.8202 15.7964 86.892 16.0439 86.892 16.3164H86.079C86.079 16.1846 86.0394 16.0571 85.9603 15.9341C85.8842 15.8081 85.7714 15.7041 85.622 15.6221C85.4755 15.54 85.2953 15.499 85.0814 15.499C84.8558 15.499 84.6727 15.5342 84.5321 15.6045C84.3944 15.6719 84.2933 15.7583 84.2289 15.8638C84.1674 15.9692 84.1366 16.0806 84.1366 16.1978C84.1366 16.2856 84.1512 16.3647 84.1805 16.4351C84.2128 16.5024 84.2684 16.5654 84.3475 16.624C84.4266 16.6797 84.538 16.7324 84.6815 16.7822C84.8251 16.832 85.0082 16.8818 85.2308 16.9316C85.6205 17.0195 85.9413 17.125 86.1932 17.248C86.4452 17.3711 86.6327 17.522 86.7557 17.7007C86.8788 17.8794 86.9403 18.0962 86.9403 18.3511C86.9403 18.5591 86.8964 18.7495 86.8085 18.9224C86.7235 19.0952 86.599 19.2446 86.4349 19.3706C86.2738 19.4937 86.0804 19.5903 85.8549 19.6606C85.6322 19.728 85.3817 19.7617 85.1034 19.7617C84.6845 19.7617 84.33 19.687 84.0399 19.5376C83.7499 19.3882 83.5302 19.1948 83.3807 18.9575C83.2313 18.7202 83.1566 18.4697 83.1566 18.2061H83.974C83.9857 18.4287 84.0502 18.606 84.1674 18.7378C84.2845 18.8667 84.4281 18.959 84.598 19.0146C84.7679 19.0674 84.9364 19.0938 85.1034 19.0938C85.3261 19.0938 85.5121 19.0645 85.6615 19.0059C85.8138 18.9473 85.9296 18.8667 86.0087 18.7642C86.0878 18.6616 86.1273 18.5444 86.1273 18.4126ZM87.7929 17.3491V17.248C87.7929 16.9053 87.8427 16.5874 87.9423 16.2944C88.0419 15.9985 88.1854 15.7422 88.3729 15.5254C88.5604 15.3057 88.7875 15.1357 89.0541 15.0156C89.3207 14.8926 89.6195 14.8311 89.9506 14.8311C90.2845 14.8311 90.5848 14.8926 90.8514 15.0156C91.121 15.1357 91.3495 15.3057 91.537 15.5254C91.7274 15.7422 91.8724 15.9985 91.972 16.2944C92.0717 16.5874 92.1215 16.9053 92.1215 17.248V17.3491C92.1215 17.6919 92.0717 18.0098 91.972 18.3027C91.8724 18.5957 91.7274 18.8521 91.537 19.0718C91.3495 19.2886 91.1224 19.4585 90.8558 19.5815C90.5922 19.7017 90.2933 19.7617 89.9594 19.7617C89.6254 19.7617 89.3251 19.7017 89.0585 19.5815C88.7919 19.4585 88.5634 19.2886 88.3729 19.0718C88.1854 18.8521 88.0419 18.5957 87.9423 18.3027C87.8427 18.0098 87.7929 17.6919 87.7929 17.3491ZM88.6058 17.248V17.3491C88.6058 17.5864 88.6337 17.8105 88.6893 18.0215C88.745 18.2295 88.8285 18.4141 88.9398 18.5752C89.0541 18.7363 89.1962 18.8638 89.3661 18.9575C89.536 19.0483 89.7338 19.0938 89.9594 19.0938C90.182 19.0938 90.3768 19.0483 90.5438 18.9575C90.7137 18.8638 90.8544 18.7363 90.9657 18.5752C91.077 18.4141 91.1605 18.2295 91.2162 18.0215C91.2748 17.8105 91.3041 17.5864 91.3041 17.3491V17.248C91.3041 17.0137 91.2748 16.7925 91.2162 16.5845C91.1605 16.3735 91.0756 16.1875 90.9613 16.0264C90.85 15.8623 90.7094 15.7334 90.5394 15.6396C90.3724 15.5459 90.1762 15.499 89.9506 15.499C89.7279 15.499 89.5316 15.5459 89.3617 15.6396C89.1947 15.7334 89.0541 15.8623 88.9398 16.0264C88.8285 16.1875 88.745 16.3735 88.6893 16.5845C88.6337 16.7925 88.6058 17.0137 88.6058 17.248ZM92.9257 17.3491V17.248C92.9257 16.9053 92.9755 16.5874 93.0751 16.2944C93.1747 15.9985 93.3182 15.7422 93.5057 15.5254C93.6932 15.3057 93.9203 15.1357 94.1869 15.0156C94.4535 14.8926 94.7523 14.8311 95.0834 14.8311C95.4174 14.8311 95.7177 14.8926 95.9843 15.0156C96.2538 15.1357 96.4823 15.3057 96.6698 15.5254C96.8602 15.7422 97.0053 15.9985 97.1049 16.2944C97.2045 16.5874 97.2543 16.9053 97.2543 17.248V17.3491C97.2543 17.6919 97.2045 18.0098 97.1049 18.3027C97.0053 18.5957 96.8602 18.8521 96.6698 19.0718C96.4823 19.2886 96.2553 19.4585 95.9887 19.5815C95.725 19.7017 95.4262 19.7617 95.0922 19.7617C94.7582 19.7617 94.4579 19.7017 94.1913 19.5815C93.9247 19.4585 93.6962 19.2886 93.5057 19.0718C93.3182 18.8521 93.1747 18.5957 93.0751 18.3027C92.9755 18.0098 92.9257 17.6919 92.9257 17.3491ZM93.7387 17.248V17.3491C93.7387 17.5864 93.7665 17.8105 93.8221 18.0215C93.8778 18.2295 93.9613 18.4141 94.0726 18.5752C94.1869 18.7363 94.329 18.8638 94.4989 18.9575C94.6688 19.0483 94.8666 19.0938 95.0922 19.0938C95.3148 19.0938 95.5096 19.0483 95.6766 18.9575C95.8466 18.8638 95.9872 18.7363 96.0985 18.5752C96.2098 18.4141 96.2933 18.2295 96.349 18.0215C96.4076 17.8105 96.4369 17.5864 96.4369 17.3491V17.248C96.4369 17.0137 96.4076 16.7925 96.349 16.5845C96.2933 16.3735 96.2084 16.1875 96.0941 16.0264C95.9828 15.8623 95.8422 15.7334 95.6722 15.6396C95.5053 15.5459 95.309 15.499 95.0834 15.499C94.8607 15.499 94.6644 15.5459 94.4945 15.6396C94.3275 15.7334 94.1869 15.8623 94.0726 16.0264C93.9613 16.1875 93.8778 16.3735 93.8221 16.5845C93.7665 16.7925 93.7387 17.0137 93.7387 17.248ZM99.0868 15.9341V19.6738H98.2738V14.9189H99.0429L99.0868 15.9341ZM98.8934 17.1162L98.5551 17.103C98.558 16.7778 98.6063 16.4775 98.7001 16.2021C98.7938 15.9238 98.9257 15.6821 99.0956 15.4771C99.2655 15.272 99.4677 15.1138 99.702 15.0024C99.9393 14.8882 100.202 14.8311 100.489 14.8311C100.723 14.8311 100.934 14.8633 101.121 14.9277C101.309 14.9893 101.469 15.0889 101.6 15.2266C101.735 15.3643 101.838 15.543 101.908 15.7627C101.978 15.9795 102.014 16.2446 102.014 16.5581V19.6738H101.196V16.5493C101.196 16.3003 101.16 16.1011 101.086 15.9517C101.013 15.7993 100.906 15.6895 100.766 15.6221C100.625 15.5518 100.452 15.5166 100.247 15.5166C100.045 15.5166 99.8602 15.5591 99.6932 15.644C99.5292 15.729 99.3871 15.8462 99.267 15.9956C99.1498 16.145 99.0575 16.3164 98.9901 16.5098C98.9257 16.7002 98.8934 16.9023 98.8934 17.1162ZM107.472 14.9189V15.543H104.901V14.9189H107.472ZM105.771 13.7632H106.584V18.4961C106.584 18.6572 106.609 18.7788 106.659 18.8608C106.708 18.9429 106.773 18.9971 106.852 19.0234C106.931 19.0498 107.016 19.063 107.107 19.063C107.174 19.063 107.245 19.0571 107.318 19.0454C107.394 19.0308 107.451 19.019 107.489 19.0103L107.494 19.6738C107.429 19.6943 107.344 19.7134 107.239 19.731C107.136 19.7515 107.012 19.7617 106.865 19.7617C106.666 19.7617 106.483 19.7222 106.316 19.6431C106.149 19.564 106.016 19.4321 105.916 19.2476C105.819 19.0601 105.771 18.8081 105.771 18.4917V13.7632ZM108.122 17.3491V17.248C108.122 16.9053 108.172 16.5874 108.271 16.2944C108.371 15.9985 108.515 15.7422 108.702 15.5254C108.89 15.3057 109.117 15.1357 109.383 15.0156C109.65 14.8926 109.949 14.8311 110.28 14.8311C110.614 14.8311 110.914 14.8926 111.181 15.0156C111.45 15.1357 111.679 15.3057 111.866 15.5254C112.057 15.7422 112.202 15.9985 112.301 16.2944C112.401 16.5874 112.451 16.9053 112.451 17.248V17.3491C112.451 17.6919 112.401 18.0098 112.301 18.3027C112.202 18.5957 112.057 18.8521 111.866 19.0718C111.679 19.2886 111.452 19.4585 111.185 19.5815C110.921 19.7017 110.622 19.7617 110.288 19.7617C109.954 19.7617 109.654 19.7017 109.388 19.5815C109.121 19.4585 108.892 19.2886 108.702 19.0718C108.515 18.8521 108.371 18.5957 108.271 18.3027C108.172 18.0098 108.122 17.6919 108.122 17.3491ZM108.935 17.248V17.3491C108.935 17.5864 108.963 17.8105 109.018 18.0215C109.074 18.2295 109.158 18.4141 109.269 18.5752C109.383 18.7363 109.525 18.8638 109.695 18.9575C109.865 19.0483 110.063 19.0938 110.288 19.0938C110.511 19.0938 110.706 19.0483 110.873 18.9575C111.043 18.8638 111.183 18.7363 111.295 18.5752C111.406 18.4141 111.49 18.2295 111.545 18.0215C111.604 17.8105 111.633 17.5864 111.633 17.3491V17.248C111.633 17.0137 111.604 16.7925 111.545 16.5845C111.49 16.3735 111.405 16.1875 111.29 16.0264C111.179 15.8623 111.038 15.7334 110.869 15.6396C110.702 15.5459 110.505 15.499 110.28 15.499C110.057 15.499 109.861 15.5459 109.691 15.6396C109.524 15.7334 109.383 15.8623 109.269 16.0264C109.158 16.1875 109.074 16.3735 109.018 16.5845C108.963 16.7925 108.935 17.0137 108.935 17.248ZM117.693 14.9189V15.543H115.122V14.9189H117.693ZM115.993 13.7632H116.806V18.4961C116.806 18.6572 116.83 18.7788 116.88 18.8608C116.93 18.9429 116.995 18.9971 117.074 19.0234C117.153 19.0498 117.238 19.063 117.328 19.063C117.396 19.063 117.466 19.0571 117.539 19.0454C117.616 19.0308 117.673 19.019 117.711 19.0103L117.715 19.6738C117.651 19.6943 117.566 19.7134 117.46 19.731C117.358 19.7515 117.233 19.7617 117.087 19.7617C116.888 19.7617 116.704 19.7222 116.537 19.6431C116.37 19.564 116.237 19.4321 116.138 19.2476C116.041 19.0601 115.993 18.8081 115.993 18.4917V13.7632ZM119.46 12.9238V19.6738H118.647V12.9238H119.46ZM119.266 17.1162L118.928 17.103C118.931 16.7778 118.979 16.4775 119.073 16.2021C119.167 15.9238 119.299 15.6821 119.469 15.4771C119.639 15.272 119.841 15.1138 120.075 15.0024C120.312 14.8882 120.575 14.8311 120.862 14.8311C121.096 14.8311 121.307 14.8633 121.495 14.9277C121.682 14.9893 121.842 15.0889 121.974 15.2266C122.108 15.3643 122.211 15.543 122.281 15.7627C122.351 15.9795 122.387 16.2446 122.387 16.5581V19.6738H121.569V16.5493C121.569 16.3003 121.533 16.1011 121.459 15.9517C121.386 15.7993 121.279 15.6895 121.139 15.6221C120.998 15.5518 120.825 15.5166 120.62 15.5166C120.418 15.5166 120.233 15.5591 120.066 15.644C119.902 15.729 119.76 15.8462 119.64 15.9956C119.523 16.145 119.431 16.3164 119.363 16.5098C119.299 16.7002 119.266 16.9023 119.266 17.1162ZM125.577 19.7617C125.246 19.7617 124.946 19.7061 124.676 19.5947C124.41 19.4805 124.18 19.3208 123.986 19.1157C123.796 18.9106 123.649 18.6675 123.547 18.3862C123.444 18.105 123.393 17.7974 123.393 17.4634V17.2788C123.393 16.8921 123.45 16.5479 123.564 16.2461C123.679 15.9414 123.834 15.6836 124.03 15.4727C124.226 15.2617 124.449 15.1021 124.698 14.9937C124.947 14.8853 125.205 14.8311 125.472 14.8311C125.811 14.8311 126.104 14.8896 126.35 15.0068C126.599 15.124 126.803 15.2881 126.961 15.499C127.12 15.707 127.237 15.9531 127.313 16.2373C127.389 16.5186 127.427 16.8262 127.427 17.1602V17.5249H123.876V16.8613H126.614V16.7998C126.602 16.5889 126.558 16.3838 126.482 16.1846C126.409 15.9854 126.292 15.8213 126.131 15.6924C125.97 15.5635 125.75 15.499 125.472 15.499C125.287 15.499 125.117 15.5386 124.962 15.6177C124.807 15.6938 124.673 15.8081 124.562 15.9604C124.451 16.1128 124.364 16.2988 124.303 16.5186C124.241 16.7383 124.21 16.9917 124.21 17.2788V17.4634C124.21 17.689 124.241 17.9014 124.303 18.1006C124.367 18.2969 124.459 18.4697 124.579 18.6191C124.703 18.7686 124.85 18.8857 125.023 18.9707C125.199 19.0557 125.398 19.0981 125.621 19.0981C125.908 19.0981 126.151 19.0396 126.35 18.9224C126.55 18.8052 126.724 18.6484 126.873 18.4521L127.366 18.8433C127.263 18.9985 127.133 19.1465 126.974 19.2871C126.816 19.4277 126.621 19.542 126.39 19.6299C126.161 19.7178 125.891 19.7617 125.577 19.7617Z" fill="black"/>
<g clip-path="url(#clip0_301_7057)">
<path d="M29.0196 15.7187L29.6468 14.6374C30.0328 13.9625 30.8943 13.7353 31.5697 14.1209C32.2452 14.5066 32.4726 15.3675 32.0867 16.0424L26.0559 26.476H30.4187C31.8316 26.476 32.6243 28.1358 32.0108 29.2859H19.2256C18.4468 29.2859 17.8196 28.6592 17.8196 27.881C17.8196 27.1028 18.4468 26.476 19.2256 26.476H22.8096L27.3999 18.5285L25.9663 16.0424C25.5803 15.3675 25.8078 14.5135 26.4832 14.1209C27.1587 13.7353 28.0133 13.9625 28.4062 14.6374L29.0196 15.7187ZM23.5954 30.7322L22.2445 33.0737C21.8585 33.7486 20.997 33.9759 20.3215 33.5902C19.6461 33.2046 19.4186 32.3437 19.8046 31.6688L20.8109 29.9333C21.9412 29.582 22.8648 29.8506 23.5954 30.7322ZM35.2364 26.4829H38.8962C39.6751 26.4829 40.3023 27.1096 40.3023 27.8879C40.3023 28.6661 39.6751 29.2928 38.8962 29.2928H36.863L38.2346 31.6688C38.6206 32.3437 38.3931 33.1977 37.7177 33.5902C37.0422 33.9759 36.1876 33.7486 35.7947 33.0737C33.4858 29.0724 31.7489 26.0766 30.5979 24.0794C29.4193 22.0478 30.2602 20.0092 31.0942 19.3205C32.0177 20.9045 33.3962 23.2943 35.2364 26.4829ZM29.0265 7.94336C19.584 7.94336 11.9336 15.5878 11.9336 25.0229C11.9336 34.458 19.584 42.1025 29.0265 42.1025C38.4689 42.1025 46.1194 34.458 46.1194 25.0229C46.1194 15.5878 38.4689 7.94336 29.0265 7.94336ZM43.9138 25.0229C43.9138 33.1977 37.2903 39.8986 29.0265 39.8986C20.8453 39.8986 14.1391 33.2803 14.1391 25.0229C14.1391 16.8481 20.7626 10.1472 29.0265 10.1472C37.2076 10.1472 43.9138 16.7655 43.9138 25.0229Z" fill="url(#paint1_linear_301_7057)" style="mix-blend-mode:multiply"/>
</g>
<defs>
<linearGradient id="paint0_linear_301_7057" x1="3.07534" y1="31.1755" x2="97.0597" y2="-39.9226" gradientUnits="userSpaceOnUse">
<stop stop-color="#00ACF2"/>
<stop offset="1" stop-color="#B0D866"/>
</linearGradient>
<linearGradient id="paint1_linear_301_7057" x1="12.6637" y1="28.9824" x2="45.4242" y2="20.2643" gradientUnits="userSpaceOnUse">
<stop stop-color="#00ACF2"/>
<stop offset="1" stop-color="#B0D866"/>
</linearGradient>
<clipPath id="clip0_301_7057">
<rect width="35.2885" height="35.261" fill="white" transform="translate(11.3828 7.39258)"/>
</clipPath>
</defs>
</svg>
