<svg width="22" height="20" viewBox="0 0 22 20" fill="none" xmlns="http://www.w3.org/2000/svg">
<path d="M13.563 19.5416H13.332C12.8664 19.4903 12.4277 19.2754 12.0796 18.9282C11.7314 18.5811 11.492 18.1196 11.396 17.611L8.448 2.43459L5.412 10.2549C5.32613 10.4735 5.18455 10.6594 5.00472 10.7897C4.8249 10.92 4.61469 10.9889 4.4 10.9881H1.1C0.808262 10.9881 0.528472 10.8594 0.322183 10.6302C0.115892 10.401 0 10.0902 0 9.76617C0 9.44209 0.115892 9.13129 0.322183 8.90213C0.528472 8.67298 0.808262 8.54424 1.1 8.54424H3.674L6.435 1.46927C6.62086 0.994499 6.93765 0.597564 7.33968 0.335693C7.74172 0.0738224 8.20824 -0.0394547 8.67197 0.0121945C9.1357 0.0638437 9.57268 0.277751 9.91992 0.623074C10.2671 0.968397 10.5067 1.42729 10.604 1.9336L13.552 17.0977L16.588 9.30184C16.6705 9.07869 16.8107 8.88767 16.9908 8.75285C17.1708 8.61803 17.3828 8.54544 17.6 8.54424H20.9C21.1917 8.54424 21.4715 8.67298 21.6778 8.90213C21.8841 9.13129 22 9.44209 22 9.76617C22 10.0902 21.8841 10.401 21.6778 10.6302C21.4715 10.8594 21.1917 10.9881 20.9 10.9881H18.326L15.565 18.0631C15.3964 18.4987 15.1174 18.8704 14.7619 19.133C14.4064 19.3955 13.9899 19.5375 13.563 19.5416Z" fill="#56DB40"/>
</svg>
