<svg width="24" height="24" viewBox="0 0 24 24" fill="none" xmlns="http://www.w3.org/2000/svg">
<path d="M16.5672 9.37505L15.115 6.6631L12.2688 5.7144L12.2623 5.73465L7.83883 6.99849C7.52592 7.08894 7.25077 7.27837 7.05462 7.5384C6.85846 7.79843 6.75189 8.11503 6.75086 8.44074V12.3751H8.25086V8.44079L11.7009 7.4551L10.1769 12.1254L10.1696 12.1228L8.78847 15.99C8.72164 16.174 8.58582 16.3249 8.40974 16.4107C8.23366 16.4964 8.03114 16.5103 7.84502 16.4493L4.73805 15.4135L4.26367 16.8366L7.37064 17.8722C7.92885 18.0582 8.53773 18.0182 9.06677 17.7606C9.59581 17.5031 10.0029 17.0486 10.2009 16.4945L11.3367 13.3141L12.1417 13.5766L14.4058 15.8406C14.4758 15.9101 14.5312 15.9928 14.569 16.0839C14.6068 16.175 14.6261 16.2728 14.6259 16.3714V21.3751H16.1259V16.3714C16.1266 16.0758 16.0688 15.783 15.9557 15.5099C15.8426 15.2368 15.6764 14.9888 15.4668 14.7803L13.2044 12.518L14.4599 8.67062L15.3631 10.2964C15.4606 10.4717 15.6031 10.6178 15.776 10.7196C15.9489 10.8213 16.1459 10.875 16.3465 10.8751H20.2509V9.37505H16.5672ZM13.4459 5.14257C13.7406 5.38877 14.1103 5.52714 14.4942 5.53482C14.8781 5.5425 15.2531 5.41904 15.5574 5.18483C15.8616 4.95061 16.0769 4.61964 16.1677 4.24656C16.2584 3.87349 16.2192 3.48061 16.0566 3.13281C15.8939 2.785 15.6175 2.50306 15.273 2.33354C14.9285 2.16402 14.5365 2.11705 14.1617 2.20039C13.7869 2.28373 13.4517 2.4924 13.2115 2.79193C12.9713 3.09147 12.8404 3.46397 12.8405 3.84793C12.84 4.09496 12.8941 4.33905 12.9987 4.56282C13.1034 4.78659 13.2561 4.98454 13.4459 5.14257Z" fill="#173175"/>
</svg>
