<svg width="44" height="45" viewBox="0 0 44 45" fill="none" xmlns="http://www.w3.org/2000/svg">
<rect x="0.199219" y="0.599609" width="43.0467" height="43.9194" rx="21.5233" fill="#FFE6E6"/>
<path d="M30.707 17.4649C30.414 16.7728 29.9915 16.1455 29.4632 15.6183C28.9345 15.0895 28.3111 14.6693 27.627 14.3805C26.9176 14.0798 26.1567 13.9259 25.3885 13.9278C24.3109 13.9278 23.2594 14.2288 22.3457 14.7976C22.1271 14.9336 21.9194 15.083 21.7227 15.2458C21.5259 15.083 21.3183 14.9336 21.0997 14.7976C20.1859 14.2288 19.1345 13.9278 18.0568 13.9278C17.2808 13.9278 16.5288 14.0794 15.8184 14.3805C15.132 14.6704 14.5134 15.0875 13.9822 15.6183C13.4532 16.1449 13.0306 16.7723 12.7383 17.4649C12.4345 18.1853 12.2793 18.9503 12.2793 19.7376C12.2793 20.4803 12.4279 21.2542 12.723 22.0415C12.9701 22.6994 13.3242 23.3818 13.7767 24.071C14.4937 25.1616 15.4796 26.299 16.7037 27.4521C18.7323 29.3634 20.7412 30.6837 20.8264 30.7373L21.3445 31.0763C21.574 31.2257 21.8691 31.2257 22.0987 31.0763L22.6167 30.7373C22.702 30.6815 24.7087 29.3634 26.7395 27.4521C27.9636 26.299 28.9495 25.1616 29.6665 24.071C30.119 23.3818 30.4753 22.6994 30.7201 22.0415C31.0152 21.2542 31.1639 20.4803 31.1639 19.7376C31.166 18.9503 31.0108 18.1853 30.707 17.4649Z" fill="#FF0505"/>
</svg>
