<svg width="16" height="17" viewBox="0 0 16 17" fill="none" xmlns="http://www.w3.org/2000/svg">
<path d="M14.1208 4.67538C13.9179 4.19618 13.6255 3.76192 13.2597 3.39694C12.8937 3.03086 12.4621 2.73994 11.9885 2.54001C11.4974 2.33186 10.9706 2.22532 10.4388 2.22657C9.69274 2.22657 8.96482 2.43502 8.33224 2.82874C8.18091 2.92292 8.03714 3.02637 7.90094 3.13909C7.76474 3.02637 7.62097 2.92292 7.46963 2.82874C6.83706 2.43502 6.10914 2.22657 5.36306 2.22657C4.82582 2.22657 4.30523 2.33157 3.81339 2.54001C3.3382 2.74073 2.90992 3.02946 2.54218 3.39694C2.17594 3.76151 1.88339 4.19587 1.68108 4.67538C1.47073 5.1741 1.36328 5.70369 1.36328 6.24873C1.36328 6.76289 1.46619 7.29866 1.67049 7.8437C1.8415 8.29918 2.08666 8.77165 2.39992 9.24875C2.8963 10.0038 3.57882 10.7912 4.42629 11.5895C5.83068 12.9127 7.22145 13.8268 7.28047 13.8638L7.63913 14.0985C7.79803 14.202 8.00233 14.202 8.16123 14.0985L8.5199 13.8638C8.57892 13.8252 9.96817 12.9127 11.3741 11.5895C12.2215 10.7912 12.9041 10.0038 13.4004 9.24875C13.7137 8.77165 13.9604 8.29918 14.1299 7.8437C14.3342 7.29866 14.4371 6.76289 14.4371 6.24873C14.4386 5.70369 14.3311 5.1741 14.1208 4.67538Z" fill="#FF0505"/>
</svg>
