<svg width="18" height="18" viewBox="0 0 18 18" fill="none" xmlns="http://www.w3.org/2000/svg">
<g clip-path="url(#clip0_301_8054)">
<path d="M1.86037 0C1.55206 0 1.25637 0.122477 1.03836 0.340488C0.820352 0.558499 0.697875 0.854186 0.697875 1.1625C0.697875 1.47081 0.820352 1.7665 1.03836 1.98451C1.25637 2.20252 1.55206 2.325 1.86037 2.325C2.16869 2.325 2.46438 2.20252 2.68239 1.98451C2.9004 1.7665 3.02288 1.47081 3.02288 1.1625C3.02288 0.854186 2.9004 0.558499 2.68239 0.340488C2.46438 0.122477 2.16869 0 1.86037 0V0ZM16.1404 0C15.832 0 15.5362 0.122517 15.3181 0.340598C15.1 0.55868 14.9775 0.854461 14.9775 1.16288C14.9775 1.47129 15.1 1.76707 15.3181 1.98515C15.5362 2.20323 15.832 2.32575 16.1404 2.32575C16.4488 2.32575 16.7446 2.20323 16.9627 1.98515C17.1807 1.76707 17.3032 1.47129 17.3032 1.16288C17.3032 0.854461 17.1807 0.55868 16.9627 0.340598C16.7446 0.122517 16.4488 0 16.1404 0V0ZM9.00037 1.72125C8.69206 1.72125 8.39637 1.84373 8.17836 2.06174C7.96035 2.27975 7.83787 2.57544 7.83787 2.88375C7.83787 3.19206 7.96035 3.48775 8.17836 3.70576C8.39637 3.92377 8.69206 4.04625 9.00037 4.04625C9.30869 4.04625 9.60437 3.92377 9.82239 3.70576C10.0404 3.48775 10.1629 3.19206 10.1629 2.88375C10.1629 2.57544 10.0404 2.27975 9.82239 2.06174C9.60437 1.84373 9.30869 1.72125 9.00037 1.72125ZM1.86037 3.954C1.36707 3.954 0.893974 4.14996 0.545156 4.49878C0.196339 4.8476 0.000375038 5.3207 0.000375038 5.814C0.000375038 6.3073 0.196339 6.7804 0.545156 7.12922C0.893974 7.47804 1.36707 7.674 1.86037 7.674C2.35368 7.674 2.82678 7.47804 3.17559 7.12922C3.52441 6.7804 3.72037 6.3073 3.72037 5.814C3.72037 5.3207 3.52441 4.8476 3.17559 4.49878C2.82678 4.14996 2.35368 3.954 1.86037 3.954ZM16.1404 3.954C15.6471 3.954 15.174 4.14996 14.8252 4.49878C14.4763 4.8476 14.2804 5.3207 14.2804 5.814C14.2804 6.3073 14.4763 6.7804 14.8252 7.12922C15.174 7.47804 15.6471 7.674 16.1404 7.674C16.6337 7.674 17.1068 7.47804 17.4556 7.12922C17.8044 6.7804 18.0004 6.3073 18.0004 5.814C18.0004 5.3207 17.8044 4.8476 17.4556 4.49878C17.1068 4.14996 16.6337 3.954 16.1404 3.954ZM9.00037 6.372C8.69206 6.372 8.39637 6.49448 8.17836 6.71249C7.96035 6.9305 7.83787 7.22619 7.83787 7.5345C7.83787 7.84281 7.96035 8.1385 8.17836 8.35651C8.39637 8.57452 8.69206 8.697 9.00037 8.697C9.30869 8.697 9.60437 8.57452 9.82239 8.35651C10.0404 8.1385 10.1629 7.84281 10.1629 7.5345C10.1629 7.22619 10.0404 6.9305 9.82239 6.71249C9.60437 6.49448 9.30869 6.372 9.00037 6.372ZM1.86037 9.30225C1.55206 9.30225 1.25637 9.42473 1.03836 9.64274C0.820352 9.86075 0.697875 10.1564 0.697875 10.4648C0.697875 10.7731 0.820352 11.0688 1.03836 11.2868C1.25637 11.5048 1.55206 11.6273 1.86037 11.6273C2.16869 11.6273 2.46438 11.5048 2.68239 11.2868C2.9004 11.0688 3.02288 10.7731 3.02288 10.4648C3.02288 10.1564 2.9004 9.86075 2.68239 9.64274C2.46438 9.42473 2.16869 9.30225 1.86037 9.30225ZM16.1404 9.30225C15.8319 9.30225 15.536 9.42481 15.3178 9.64296C15.0997 9.86111 14.9771 10.157 14.9771 10.4655C14.9771 10.774 15.0997 11.0699 15.3178 11.288C15.536 11.5062 15.8319 11.6287 16.1404 11.6287C16.4489 11.6287 16.7448 11.5062 16.9629 11.288C17.1811 11.0699 17.3036 10.774 17.3036 10.4655C17.3036 10.157 17.1811 9.86111 16.9629 9.64296C16.7448 9.42481 16.4489 9.30225 16.1404 9.30225ZM9.00037 10.3253C8.50687 10.3252 8.03358 10.5213 7.68463 10.8703C7.33567 11.2192 7.13962 11.6925 7.13962 12.186C7.13962 12.6795 7.33567 13.1528 7.68463 13.5017C8.03358 13.8507 8.50687 14.0468 9.00037 14.0468C9.49388 14.0468 9.96716 13.8507 10.3161 13.5017C10.6651 13.1528 10.8611 12.6795 10.8611 12.186C10.8611 11.6925 10.6651 11.2192 10.3161 10.8703C9.96716 10.5213 9.49388 10.3253 9.00037 10.3253ZM1.86037 13.2555C1.36687 13.2556 0.893624 13.4517 0.544736 13.8008C0.195848 14.1498 -9.94183e-05 14.6231 3.78419e-08 15.1166C9.9494e-05 15.6101 0.196238 16.0834 0.545266 16.4323C0.894295 16.7812 1.36762 16.9771 1.86112 16.977C2.35463 16.977 2.82792 16.781 3.17687 16.432C3.52583 16.083 3.72187 15.6098 3.72187 15.1163C3.72187 14.6227 3.52583 14.1495 3.17687 13.8005C2.82792 13.4515 2.35463 13.2555 1.86112 13.2555H1.86037ZM16.1404 13.953C15.8319 13.953 15.536 14.0756 15.3178 14.2937C15.0997 14.5119 14.9771 14.8077 14.9771 15.1163C14.9771 15.4248 15.0997 15.7206 15.3178 15.9388C15.536 16.1569 15.8319 16.2795 16.1404 16.2795C16.4488 16.2795 16.7446 16.157 16.9627 15.9389C17.1807 15.7208 17.3032 15.425 17.3032 15.1166C17.3032 14.8082 17.1807 14.5124 16.9627 14.2943C16.7446 14.0763 16.4488 13.9537 16.1404 13.9537V13.953ZM9.00037 15.675C8.69206 15.675 8.39637 15.7975 8.17836 16.0155C7.96035 16.2335 7.83787 16.5292 7.83787 16.8375C7.83787 17.1458 7.96035 17.4415 8.17836 17.6595C8.39637 17.8775 8.69206 18 9.00037 18C9.30869 18 9.60437 17.8775 9.82239 17.6595C10.0404 17.4415 10.1629 17.1458 10.1629 16.8375C10.1629 16.5292 10.0404 16.2335 9.82239 16.0155C9.60437 15.7975 9.30869 15.675 9.00037 15.675Z" fill="#DA5050"/>
</g>
<defs>
<clipPath id="clip0_301_8054">
<rect width="18" height="18" fill="white"/>
</clipPath>
</defs>
</svg>
