<svg width="43" height="47" viewBox="0 0 43 47" fill="none" xmlns="http://www.w3.org/2000/svg">
<rect x="0.306641" y="0.855469" width="41.8833" height="45.9189" rx="20.9416" fill="#FBF8EE"/>
<path d="M22.6034 17.0023C22.6034 17.0023 22.8579 17.9839 21.7672 18.2384C20.8128 18.4634 20.6129 17.4999 20.6129 17.4999C20.6129 17.4999 20.4016 16.5274 19.9653 16.432C19.7994 16.3956 19.763 16.4365 19.2881 16.3661C18.4769 16.2434 18.2633 15.8502 18.1951 15.4935C18.1724 15.3844 18.1633 15.2776 18.1565 15.1845C18.1452 15.0549 18.1338 14.9504 18.0883 14.8913C18.052 14.8436 17.5475 14.6505 17.6157 14.4073C17.7066 14.0847 18.3019 13.8279 18.2769 13.5279C18.2792 13.4507 18.2292 13.1985 18.2224 13.1644C18.1747 12.8781 18.1906 12.4781 18.2815 12.0828C18.5314 10.992 19.2427 10.1672 20.4629 10.0513C21.5559 9.95132 22.8057 10.7648 23.3169 11.7351C23.6441 12.3577 23.1692 13.9642 22.6102 14.8141C21.8831 15.923 22.6034 17.0023 22.6034 17.0023Z" fill="#FFCA28"/>
<path d="M18.7584 15.3732C18.5857 15.4846 18.3903 15.5164 18.1949 15.4937C18.1722 15.3846 18.1631 15.2778 18.1562 15.1846C18.3108 15.2165 18.5062 15.2074 18.6221 15.1687C18.8357 15.096 18.9493 15.2551 18.7584 15.3732Z" fill="#795548"/>
<path d="M19.4022 13.7648C19.4107 13.5441 19.3017 13.3607 19.1587 13.3552C19.0158 13.3497 18.893 13.5242 18.8845 13.7449C18.876 13.9656 18.985 14.149 19.128 14.1545C19.271 14.16 19.3937 13.9855 19.4022 13.7648Z" fill="#404040"/>
<path d="M18.9997 13.1969C18.7498 13.2787 18.6839 13.1151 18.7657 12.9764C18.8247 12.8765 18.9747 12.7878 19.2724 12.8356C19.5519 12.881 19.6723 13.0378 19.7496 13.1332C19.8268 13.2287 19.8223 13.3264 19.7587 13.3355C19.67 13.3536 19.3087 13.0969 18.9997 13.1969Z" fill="#6D4C41"/>
<path d="M29.7522 27.5574L25.5325 28.4005L24.3577 24.3398L21.5332 26.2327L23.5919 30.3683L23.601 30.3615C23.7736 30.6677 24.0577 30.8956 24.394 30.9977C24.4963 31.0295 24.5986 31.0477 24.7031 31.0545V31.0591L24.7372 31.0568C24.8644 31.0636 24.9894 31.0545 25.1098 31.0295L30.318 29.0503L29.7522 27.5574Z" fill="#616161"/>
<path d="M30.6555 26.6917C30.5827 26.5689 30.4259 26.5303 30.3032 26.603L29.7647 26.9257C29.3989 27.1438 29.2012 27.7642 29.2012 27.7642L30.001 29.1071L31.1213 30.0797C31.4099 30.3046 31.8075 30.3296 32.1234 30.1456L32.3665 30.0024C32.4733 29.9388 32.5097 29.8002 32.446 29.6934L30.6555 26.6917Z" fill="#325599"/>
<path d="M17.4817 34.6363L20.0744 29.6826C20.0744 29.6826 23.3034 27.0104 23.5851 26.8218C24.6372 26.1174 24.8463 25.138 24.7418 24.4268C24.66 23.8746 24.2941 23.1406 24.2941 23.1406L20.0562 24.404L20.2562 25.1812C20.2562 25.1812 18.9587 26.8581 18.6565 27.2081C18.3543 27.558 17.8362 28.0465 17.434 29.4258C17.0091 30.8801 15.9434 34.3863 15.9434 34.3863L17.4817 34.6363Z" fill="#7C7C7C"/>
<path d="M17.4784 36.1795C17.6192 36.2022 17.751 36.1068 17.7738 35.9682L17.8737 35.3478C17.9442 34.9274 17.5965 34.3775 17.5965 34.3775L16.0536 34.123L14.588 34.3526C14.2289 34.4298 13.954 34.7161 13.8926 35.0774L13.8449 35.3569C13.8245 35.4796 13.9063 35.5955 14.029 35.616L17.4784 36.1795Z" fill="#4568AD"/>
<path d="M18.6634 19.9172L16.6274 18.3675L15.6367 19.4264L17.6909 21.4169L17.6932 21.4146C18.0954 21.835 19.0384 22.1213 19.8223 21.4078C20.5676 20.7284 21.4879 19.2809 21.4879 19.2809L19.895 18.0039L18.6634 19.9172Z" fill="url(#paint0_linear_292_11)"/>
<path d="M18.7109 18.9909C19.2949 20.6247 20.7265 20.6747 20.7265 20.6747L21.8672 18.7205C22.0144 18.4679 22.0555 18.1672 21.9814 17.8843C21.9073 17.6015 21.724 17.3596 21.4718 17.2117L21.2832 17.1003C20.7583 16.7936 20.3129 16.9435 19.6062 17.9752C18.9723 18.9045 18.7109 18.9909 18.7109 18.9909Z" fill="#ED6D23"/>
<path d="M20.0561 24.4017C19.4925 22.1657 19.388 20.5956 19.5152 19.3367C19.6789 17.7506 20.4355 16.8031 21.2854 16.5031C22.3352 16.1327 23.0623 16.6667 23.3555 17.6166C23.5554 18.2642 23.5168 18.7618 23.5009 19.0708C23.5009 19.0708 23.3555 20.7683 24.7052 22.8929C24.7052 22.8929 24.5757 23.8154 22.4215 24.3221C21.4626 24.5471 20.0561 24.4017 20.0561 24.4017Z" fill="url(#paint1_linear_292_11)"/>
<path d="M23.525 22.3227C23.525 22.3227 22.5388 21.8319 22.5274 21.8273C22.4979 21.8114 22.4655 21.8015 22.4322 21.7982C22.3988 21.7948 22.3651 21.7981 22.333 21.8078C22.3009 21.8175 22.271 21.8335 22.2451 21.8548C22.2192 21.876 22.1978 21.9022 22.182 21.9318L21.9707 22.3272C21.9366 22.3931 21.9343 22.4658 21.9571 22.5317C21.8435 22.5976 21.564 22.7703 21.5049 22.8862C21.4367 23.018 21.514 23.1566 21.5867 23.1884C21.6708 23.2248 21.7094 23.343 21.6844 23.4316C21.6571 23.5225 21.6594 23.6156 21.7026 23.6906C21.7457 23.7656 21.8003 23.7951 21.9048 23.8156C21.9548 23.8247 22.0071 23.8883 22.0071 23.9383C22.0048 24.0156 22.0048 24.1496 22.0434 24.1996C22.1207 24.3019 22.2479 24.2701 22.3138 24.345C22.3388 24.3746 22.3411 24.5041 22.3934 24.5518C22.5479 24.6973 23.0501 24.4291 23.0501 24.4291L24.009 23.5406L23.525 22.3227Z" fill="#EDA600"/>
<path d="M23.2076 22.168L23.8144 22.3384L24.2302 23.4859C24.2302 23.4859 22.9327 24.763 22.7123 24.4062C22.6418 24.2949 22.7714 24.1744 22.5828 24.104C22.4487 24.054 22.3487 23.9904 22.3873 23.7836C22.4032 23.7063 22.3419 23.6109 22.2874 23.6041C22.042 23.5745 21.9783 23.4382 22.051 23.2655C22.0919 23.1701 22.0829 23.0087 21.9442 22.936C21.8943 22.9087 21.8238 22.7974 21.8556 22.6383C21.9079 22.3907 23.2076 22.168 23.2076 22.168Z" fill="url(#paint2_linear_292_11)"/>
<path d="M24.0419 23.6292L26.2892 22.1136V22.1113C26.5596 21.8432 26.655 21.6569 26.7096 21.4319C26.8823 20.7275 26.4232 20.2367 26.4232 20.2367L24.3441 17.9121L23.0625 19.2369L24.8894 21.0638L23.5238 22.3249L24.0419 23.6292Z" fill="url(#paint3_linear_292_11)"/>
<path d="M24.087 20.5966C24.087 20.5966 25.464 19.2355 25.4277 18.1879C25.4277 18.1879 24.771 18.1857 23.7939 17.4472C23.1781 16.9836 22.3601 16.945 22.0306 17.4858C21.7374 17.963 21.7852 18.5515 22.3487 19.2264C22.7713 19.7286 24.087 20.5966 24.087 20.5966Z" fill="#ED6D23"/>
<path d="M15.5341 18.6371L15.5273 18.6417C15.4296 18.7644 15.2614 18.7984 15.1524 18.7144L14.7093 18.3803C14.6002 18.2985 14.5911 18.1304 14.6888 18.0077C14.7865 17.885 14.9547 17.8509 15.0637 17.935L15.5068 18.269C15.6182 18.3531 15.6341 18.5144 15.5341 18.6371Z" fill="url(#paint4_linear_292_11)"/>
<path d="M15.9076 17.2399C15.9144 17.2444 15.9167 17.249 15.9167 17.249C16.1189 17.4648 16.2984 17.6443 16.3757 17.6921C16.5802 17.8216 16.7711 17.9852 16.8892 18.2147C17.1096 18.6442 16.8279 19.0668 16.4984 19.3781C16.1712 19.6917 15.9644 19.7599 15.6076 19.7008C15.3168 19.6531 14.701 19.0009 14.701 19.0009C14.6374 18.9259 14.5647 18.8487 14.4919 18.776C14.4647 18.7487 14.4351 18.7214 14.4079 18.6919L14.4056 18.6896C14.3215 18.6078 14.3102 18.4987 14.4033 18.3851C14.526 18.2351 14.6465 18.3124 14.6601 18.3238L14.6624 18.326C14.7192 18.3783 14.7805 18.4487 14.826 18.4828C14.9578 18.5805 15.0305 18.5987 15.0305 18.5987L15.6531 17.808L15.4418 17.5262C15.4418 17.5262 15.4395 17.5216 15.4327 17.5148C15.41 17.4785 15.3213 17.3489 15.4895 17.1967C15.6758 17.0376 15.869 17.2035 15.9076 17.2399Z" fill="url(#paint5_linear_292_11)"/>
<path d="M15.8867 18.312C15.7777 18.4278 15.6072 18.446 15.505 18.3551L15.0346 17.9347C14.9324 17.8439 14.9369 17.6757 15.046 17.5598C15.155 17.4439 15.3255 17.4257 15.4277 17.5166L15.8981 17.937C15.9981 18.0302 15.9935 18.1961 15.8867 18.312Z" fill="url(#paint6_linear_292_11)"/>
<path d="M15.2759 18.3811C15.3782 18.2334 15.5032 18.0516 15.6418 17.8948C15.6622 17.8721 15.6804 17.8516 15.7009 17.8312C15.8917 17.6335 16.1417 17.5994 16.4553 17.7698C16.4666 17.7766 16.4757 17.7812 16.4871 17.788C16.5053 17.7994 16.5234 17.8107 16.5439 17.8221L16.5462 17.8244C16.5734 17.8425 16.6007 17.8607 16.628 17.8812C16.7211 17.9493 16.7916 18.0334 16.8347 18.1152C17.0074 18.3902 16.9574 18.6515 16.9574 18.6515C16.9574 18.6515 16.7575 19.2605 16.4621 19.1537C16.1667 19.0469 16.0144 18.6265 16.0144 18.6265L16.0917 18.322C16.0031 18.3129 15.9258 18.3515 15.8213 18.4697C15.7872 18.5083 15.7486 18.5561 15.7031 18.6129C15.6986 18.6197 15.6418 18.6901 15.6372 18.6947C15.5691 18.7696 15.4918 18.806 15.3986 18.7992C15.2782 18.7924 15.1759 18.6765 15.1191 18.631C15.1623 18.5765 15.2191 18.4606 15.2759 18.3811Z" fill="url(#paint7_linear_292_11)"/>
<path d="M15.1406 19.0835L15.5087 18.7813L15.7042 18.5586L15.9587 18.3359L16.0473 18.3746L15.9927 18.6654L16.1836 18.9517L16.304 19.054L15.6792 19.4971L15.1406 19.0835Z" fill="url(#paint8_radial_292_11)"/>
<path d="M15.1659 18.9168C15.1591 19.0577 15.0227 19.1349 15.0318 19.1372C15.0705 19.1531 15.2613 19.1054 15.4727 18.8691C15.6363 18.685 15.7931 18.4464 15.9839 18.3896C15.918 18.7123 16.0612 18.96 16.3248 19.0577C16.1225 18.8691 15.9589 18.551 16.143 18.2965C15.993 18.2056 15.818 18.3555 15.7294 18.4646C15.6272 18.5873 15.5363 18.7782 15.3477 18.7532C15.2182 18.7373 15.1704 18.6555 15.2159 18.5328C15.3295 18.2328 15.5954 17.9261 15.868 17.7556C15.968 17.6943 16.1725 17.6784 16.4361 17.7307C16.243 17.5807 15.9135 17.6284 15.7885 17.6875C15.6817 17.7375 15.709 17.717 15.6135 17.6557C15.5658 17.6239 15.5181 17.592 15.4727 17.5625C15.5113 17.6261 15.5795 17.7034 15.5908 17.7784C15.6044 17.8715 15.5158 17.9511 15.4613 18.017C15.3204 18.1851 15.1977 18.0397 15.0523 17.9488C15.15 18.0647 15.1727 18.101 15.2227 18.1828C15.2886 18.2942 15.1886 18.3851 15.1159 18.4714C14.9682 18.6487 14.6637 18.2874 14.6433 18.3101C14.6205 18.3374 15.1727 18.7623 15.1659 18.9168Z" fill="#EDA600"/>
<path d="M24.0107 11.6903C23.7244 10.9314 23.1177 10.6928 22.92 10.6337C22.8314 10.3587 22.3792 9.31575 20.6636 9.5657C20.2455 9.62705 19.9387 9.8202 19.6661 9.99062C19.5502 10.0633 19.4388 10.1338 19.3366 10.1792C19.2525 10.2179 19.1048 10.2519 18.9844 10.2088C18.7094 10.1133 18.8071 9.6975 18.8071 9.6975C18.8071 9.6975 17.7937 9.87928 18.2118 10.8632C17.8709 11.0063 17.7073 11.3631 17.6414 11.6994C17.5505 12.1584 17.7687 12.6038 18.2072 12.8083C18.2072 12.8083 18.1323 12.0652 19.2025 12.1289C19.5343 12.1493 19.8797 12.2061 20.191 12.088C20.3091 12.0425 20.4205 11.9698 20.5364 11.9153H20.5773C20.9795 12.1402 20.4273 13.0855 20.8681 13.6536C20.9545 13.7649 21.0317 13.7263 21.0317 13.7263L21.2181 13.465C21.3589 13.2855 21.4862 13.1287 21.6566 13.1696C22.1588 13.29 22.052 14.1876 21.4498 14.3762C21.3908 14.3944 21.5112 15.401 22.7519 15.4237C23.3927 15.4351 23.629 14.9079 23.629 14.9079C23.629 14.9079 23.354 14.9715 23.2995 14.7375C23.27 14.6171 23.3836 14.4557 23.5881 14.2808C24.1743 13.7763 23.9766 13.1832 23.8948 12.9969C23.9812 12.8287 24.2334 12.2834 24.0107 11.6903Z" fill="#543930"/>
<path d="M23.8896 13.0006C23.9009 12.9802 23.7032 13.4528 22.8852 13.3597C22.5489 13.3529 22.0649 14.1573 22.5466 14.7026C22.9738 15.1843 23.6237 14.9117 23.6237 14.9117C23.6237 14.9117 23.5351 14.9367 23.4056 14.8889C23.3215 14.8571 23.2942 14.7481 23.2942 14.7435C23.2647 14.6231 23.3783 14.4617 23.5828 14.2868C24.1691 13.7778 23.9714 13.1847 23.8896 13.0006Z" fill="url(#paint9_radial_292_11)"/>
<path d="M24.0092 11.6911C23.8592 11.2911 23.5752 10.9526 23.198 10.7526C23.1435 10.7231 23.0094 10.6549 22.9162 10.6367C22.9571 10.814 22.9503 11.0026 22.8708 11.1934C22.8685 11.2003 22.7776 11.4866 22.5254 11.7138C22.7004 11.966 22.7867 12.2705 22.8662 12.5705C22.9367 12.8318 23.0026 13.1181 22.8844 13.3612C23.0412 13.3544 23.2912 13.4021 23.5684 13.284C23.8342 13.1703 23.9774 12.8681 24.0478 12.5977C24.1228 12.2978 24.1183 11.9819 24.0092 11.6911Z" fill="url(#paint10_radial_292_11)"/>
<path d="M22.87 11.1943C23.0768 10.6899 22.8064 10.2172 22.3906 9.89685C21.902 9.52192 21.2521 9.48102 20.6636 9.56737C20.2455 9.62872 19.9387 9.82186 19.6661 9.99229C19.5502 10.065 19.4388 10.1354 19.3366 10.1809C19.2525 10.2195 19.1048 10.2536 18.9844 10.2104C18.7094 10.115 18.8071 9.69916 18.8071 9.69916C18.8071 9.69916 17.7937 9.88095 18.2118 10.8649C17.8709 11.008 17.7073 11.3648 17.6414 11.7011C17.5505 12.1601 17.7687 12.6054 18.2072 12.81C18.2072 12.81 18.1323 12.0669 19.2025 12.1305C19.5343 12.151 19.8797 12.2078 20.191 12.0896C20.4659 11.9851 20.5614 11.8397 20.8658 11.8624C21.1953 11.8874 21.6316 12.0192 21.9702 11.9737C22.6564 11.8806 22.8678 11.2034 22.87 11.1943Z" fill="url(#paint11_radial_292_11)"/>
<path d="M22.5472 14.7018C22.3314 14.4632 22.2791 14.0769 21.9383 13.8633C21.8701 14.086 21.7042 14.2973 21.4475 14.3768C21.3884 14.395 21.5088 15.4016 22.7495 15.4244C23.3903 15.4357 23.6266 14.9085 23.6266 14.9085C23.6266 14.9085 22.9835 15.1812 22.5472 14.7018Z" fill="url(#paint12_radial_292_11)"/>
<defs>
<linearGradient id="paint0_linear_292_11" x1="15.6828" y1="19.7227" x2="19.4876" y2="19.934" gradientUnits="userSpaceOnUse">
<stop offset="0.598" stop-color="#FFCA28"/>
<stop offset="1" stop-color="#FFB300"/>
</linearGradient>
<linearGradient id="paint1_linear_292_11" x1="19.2803" y1="19.8849" x2="25.0941" y2="21.5242" gradientUnits="userSpaceOnUse">
<stop stop-color="#F78C1F"/>
<stop offset="0.482" stop-color="#F47F12"/>
<stop offset="1" stop-color="#EF6C00"/>
</linearGradient>
<linearGradient id="paint2_linear_292_11" x1="23.9773" y1="22.7506" x2="22.4978" y2="23.4691" gradientUnits="userSpaceOnUse">
<stop offset="0.598" stop-color="#FFCA28"/>
<stop offset="1" stop-color="#FFB300"/>
</linearGradient>
<linearGradient id="paint3_linear_292_11" x1="25.7636" y1="22.4829" x2="23.9035" y2="20.4537" gradientUnits="userSpaceOnUse">
<stop offset="0.598" stop-color="#FFCA28"/>
<stop offset="1" stop-color="#FFB300"/>
</linearGradient>
<linearGradient id="paint4_linear_292_11" x1="15.334" y1="18.097" x2="14.8783" y2="18.5571" gradientUnits="userSpaceOnUse">
<stop offset="0.5" stop-color="#FFCA28"/>
<stop offset="1" stop-color="#FFB300"/>
</linearGradient>
<linearGradient id="paint5_linear_292_11" x1="15.0503" y1="19.3452" x2="16.4713" y2="17.749" gradientUnits="userSpaceOnUse">
<stop stop-color="#FFB300"/>
<stop offset="0.138" stop-color="#FFCA28"/>
<stop offset="0.831" stop-color="#FFCA28"/>
</linearGradient>
<linearGradient id="paint6_linear_292_11" x1="15.6863" y1="17.7233" x2="15.242" y2="18.1522" gradientUnits="userSpaceOnUse">
<stop offset="0.5" stop-color="#FFCA28"/>
<stop offset="1" stop-color="#FFB300"/>
</linearGradient>
<linearGradient id="paint7_linear_292_11" x1="15.6896" y1="18.1174" x2="16.8162" y2="18.9764" gradientUnits="userSpaceOnUse">
<stop offset="0.5" stop-color="#FFCA28"/>
<stop offset="1" stop-color="#FFB300"/>
</linearGradient>
<radialGradient id="paint8_radial_292_11" cx="0" cy="0" r="1" gradientUnits="userSpaceOnUse" gradientTransform="translate(15.7712 18.6722) scale(0.706008)">
<stop stop-color="#FFB300"/>
<stop offset="1" stop-color="#FFCA28"/>
</radialGradient>
<radialGradient id="paint9_radial_292_11" cx="0" cy="0" r="1" gradientUnits="userSpaceOnUse" gradientTransform="translate(22.3377 14.1535) rotate(21.3098) scale(1.61988 2.33293)">
<stop offset="0.45" stop-color="#6D4C41" stop-opacity="0"/>
<stop offset="1" stop-color="#6D4C41"/>
</radialGradient>
<radialGradient id="paint10_radial_292_11" cx="0" cy="0" r="1" gradientUnits="userSpaceOnUse" gradientTransform="translate(22.5522 12.5304) rotate(-6.6787) scale(1.64195 2.07193)">
<stop offset="0.45" stop-color="#6D4C41" stop-opacity="0"/>
<stop offset="1" stop-color="#6D4C41"/>
</radialGradient>
<radialGradient id="paint11_radial_292_11" cx="0" cy="0" r="1" gradientUnits="userSpaceOnUse" gradientTransform="translate(20.7232 11.9083) rotate(-7.776) scale(3.3796 2.54016)">
<stop offset="0.45" stop-color="#6D4C41" stop-opacity="0"/>
<stop offset="1" stop-color="#6D4C41"/>
</radialGradient>
<radialGradient id="paint12_radial_292_11" cx="0" cy="0" r="1" gradientUnits="userSpaceOnUse" gradientTransform="translate(22.718 14.3677) rotate(15.3024) scale(1.81935 1.16972)">
<stop offset="0.45" stop-color="#6D4C41" stop-opacity="0"/>
<stop offset="1" stop-color="#6D4C41"/>
</radialGradient>
</defs>
</svg>
