<svg width="345" height="1495" viewBox="0 0 345 1495" fill="none" xmlns="http://www.w3.org/2000/svg">
<path d="M155.023 377.017C158.785 377.017 161.834 380.224 161.834 384.18C161.834 388.137 158.785 391.344 155.023 391.344L116.708 391.344C112.946 391.344 109.896 388.137 109.896 384.18C109.896 380.224 112.946 377.017 116.708 377.017L155.023 377.017Z" fill="#D1D0FF"/>
<path d="M155.023 402.089C158.785 402.089 161.834 405.297 161.834 409.253C161.834 413.209 158.785 416.417 155.023 416.417L104.787 416.417C101.025 416.417 97.9757 413.209 97.9757 409.253C97.9757 405.297 101.025 402.089 104.787 402.089L155.023 402.089Z" fill="#D1D0FF"/>
<path d="M155.023 427.162C158.785 427.162 161.834 430.369 161.834 434.326C161.834 438.282 158.785 441.489 155.023 441.489L97.1242 441.489C93.3622 441.489 90.3126 438.282 90.3126 434.326C90.3126 430.369 93.3622 427.162 97.1242 427.162L155.023 427.162Z" fill="#D1D0FF"/>
<path d="M155.023 452.235C158.785 452.235 161.834 455.442 161.834 459.398C161.834 463.355 158.785 466.562 155.023 466.562L83.501 466.562C79.739 466.562 76.6894 463.355 76.6894 459.398C76.6894 455.442 79.739 452.235 83.501 452.235L155.023 452.235Z" fill="#D1D0FF"/>
<path d="M155.023 477.307C158.785 477.307 161.834 480.515 161.834 484.471C161.834 488.427 158.785 491.635 155.023 491.635L73.2836 491.635C69.5216 491.635 66.472 488.427 66.472 484.471C66.472 480.515 69.5216 477.307 73.2836 477.307L155.023 477.307Z" fill="#D1D0FF"/>
<path d="M155.023 502.38C158.785 502.38 161.834 505.587 161.834 509.544C161.834 513.5 158.785 516.707 155.023 516.707L60.5118 516.707C56.7498 516.707 53.7002 513.5 53.7002 509.544C53.7002 505.587 56.7498 502.38 60.5118 502.38L155.023 502.38Z" fill="#D1D0FF"/>
<path d="M155.023 527.453C158.785 527.453 161.834 530.66 161.834 534.616C161.834 538.573 158.785 541.78 155.023 541.78L50.2944 541.78C46.5324 541.78 43.4828 538.573 43.4828 534.616C43.4828 530.66 46.5324 527.453 50.2944 527.453L155.023 527.453Z" fill="#D1D0FF"/>
<path d="M155.023 552.525C158.785 552.525 161.834 555.733 161.834 559.689C161.834 563.645 158.785 566.853 155.023 566.853L40.9284 566.853C37.1665 566.853 34.1168 563.645 34.1168 559.689C34.1168 555.733 37.1665 552.525 40.9284 552.525L155.023 552.525Z" fill="#D1D0FF"/>
<path d="M155.023 577.598C158.785 577.598 161.834 580.805 161.834 584.762C161.834 588.718 158.785 591.925 155.023 591.925L29.0081 591.925C25.2462 591.925 22.1965 588.718 22.1965 584.762C22.1965 580.805 25.2462 577.598 29.0081 577.598L155.023 577.598Z" fill="#D1D0FF"/>
<path d="M155.023 602.671C158.785 602.671 161.834 605.878 161.834 609.834C161.834 613.791 158.785 616.998 155.023 616.998L20.4936 616.998C16.7317 616.998 13.682 613.791 13.682 609.834C13.682 605.878 16.7317 602.671 20.4936 602.671L155.023 602.671Z" fill="#D1D0FF"/>
<path d="M155.023 627.743C158.785 627.743 161.834 630.951 161.834 634.907C161.834 638.863 158.785 642.071 155.023 642.071L11.1277 642.071C7.36569 642.071 4.31604 638.863 4.31604 634.907C4.31604 630.951 7.36569 627.743 11.1277 627.743L155.023 627.743Z" fill="#D1D0FF"/>
<path d="M155.023 652.816C158.785 652.816 161.834 656.023 161.834 659.98C161.834 663.936 158.785 667.143 155.023 667.143L4.31603 667.143C0.554071 667.143 -2.49558 663.936 -2.49558 659.98C-2.49558 656.023 0.554072 652.816 4.31603 652.816L155.023 652.816Z" fill="#D1D0FF"/>
<path d="M155.023 677.889C158.785 677.889 161.834 681.096 161.834 685.052C161.834 689.009 158.785 692.216 155.023 692.216L0.0587696 692.216C-3.70316 692.216 -6.75285 689.009 -6.75285 685.052C-6.75284 681.096 -3.70316 677.889 0.0587703 677.889L155.023 677.889Z" fill="#D1D0FF"/>
<path d="M155.023 702.961C158.785 702.961 161.834 706.169 161.834 710.125C161.834 714.081 158.785 717.289 155.023 717.289L-5.90138 717.288C-9.66334 717.288 -12.713 714.081 -12.713 710.125C-12.713 706.169 -9.66334 702.961 -5.90137 702.961L155.023 702.961Z" fill="#D1D0FF"/>
<path d="M155.023 728.034C158.785 728.034 161.834 731.241 161.834 735.198C161.834 739.154 158.785 742.361 155.023 742.361L-10.1586 742.361C-13.9206 742.361 -16.9703 739.154 -16.9703 735.198C-16.9703 731.241 -13.9206 728.034 -10.1586 728.034L155.023 728.034Z" fill="#D1D0FF"/>
<path d="M155.023 753.107C158.785 753.107 161.834 756.314 161.834 760.27C161.834 764.227 158.785 767.434 155.023 767.434L-10.1586 767.434C-13.9206 767.434 -16.9703 764.227 -16.9703 760.27C-16.9703 756.314 -13.9206 753.107 -10.1586 753.107L155.023 753.107Z" fill="#D1D0FF"/>
<path d="M155.023 778.179C158.785 778.179 161.834 781.387 161.834 785.343C161.834 789.299 158.785 792.507 155.023 792.507L-5.90138 792.507C-9.66334 792.507 -12.713 789.299 -12.713 785.343C-12.713 781.387 -9.66334 778.179 -5.90138 778.179L155.023 778.179Z" fill="#D1D0FF"/>
<path d="M155.023 803.252C158.785 803.252 161.834 806.459 161.834 810.416C161.834 814.372 158.785 817.579 155.023 817.579L-2.49559 817.579C-6.25752 817.579 -9.3072 814.372 -9.3072 810.416C-9.3072 806.459 -6.25752 803.252 -2.49559 803.252L155.023 803.252Z" fill="#D1D0FF"/>
<path d="M155.023 828.325C158.785 828.325 161.834 831.532 161.834 835.488C161.834 839.445 158.785 842.652 155.023 842.652L0.0587631 842.652C-3.70317 842.652 -6.75285 839.445 -6.75285 835.488C-6.75285 831.532 -3.70317 828.325 0.0587637 828.325L155.023 828.325Z" fill="#D1D0FF"/>
<path d="M155.023 853.397C158.785 853.397 161.834 856.604 161.834 860.561C161.834 864.517 158.785 867.724 155.023 867.724L11.1276 867.724C7.36568 867.724 4.31603 864.517 4.31603 860.561C4.31603 856.604 7.36568 853.397 11.1276 853.397L155.023 853.397Z" fill="#D1D0FF"/>
<path d="M155.023 878.47C158.785 878.47 161.834 881.677 161.834 885.634C161.834 889.59 158.785 892.797 155.023 892.797L25.6023 892.797C21.8403 892.797 18.7907 889.59 18.7907 885.634C18.7907 881.677 21.8403 878.47 25.6023 878.47L155.023 878.47Z" fill="#D1D0FF"/>
<path d="M155.023 903.543C158.785 903.543 161.834 906.75 161.834 910.706C161.834 914.663 158.785 917.87 155.023 917.87L38.3741 917.87C34.6121 917.87 31.5625 914.663 31.5625 910.706C31.5625 906.75 34.6121 903.543 38.3741 903.543L155.023 903.543Z" fill="#D1D0FF"/>
<path d="M155.023 928.615C158.785 928.615 161.834 931.823 161.834 935.779C161.834 939.735 158.785 942.942 155.023 942.942L57.106 942.942C53.344 942.942 50.2944 939.735 50.2944 935.779C50.2944 931.822 53.344 928.615 57.106 928.615L155.023 928.615Z" fill="#D1D0FF"/>
<path d="M155.023 953.688C158.785 953.688 161.834 956.895 161.834 960.852C161.834 964.808 158.785 968.015 155.023 968.015L73.2836 968.015C69.5216 968.015 66.4719 964.808 66.4719 960.852C66.4719 956.895 69.5216 953.688 73.2836 953.688L155.023 953.688Z" fill="#D1D0FF"/>
<path d="M155.023 978.76C158.785 978.76 161.834 981.968 161.834 985.924C161.834 989.88 158.785 993.088 155.023 993.088L87.7582 993.088C83.9963 993.088 80.9466 989.88 80.9466 985.924C80.9466 981.968 83.9963 978.76 87.7582 978.76L155.023 978.76Z" fill="#D1D0FF"/>
<path d="M155.023 1003.83C158.785 1003.83 161.834 1007.04 161.834 1011C161.834 1014.95 158.785 1018.16 155.023 1018.16L103.936 1018.16C100.174 1018.16 97.1242 1014.95 97.1242 1011C97.1242 1007.04 100.174 1003.83 103.936 1003.83L155.023 1003.83Z" fill="#D1D0FF"/>
<path d="M155.023 1028.91C158.785 1028.91 161.834 1032.11 161.834 1036.07C161.834 1040.03 158.785 1043.23 155.023 1043.23L116.708 1043.23C112.946 1043.23 109.896 1040.03 109.896 1036.07C109.896 1032.11 112.946 1028.91 116.708 1028.91L155.023 1028.91Z" fill="#D1D0FF"/>
<path d="M155.023 1053.98C158.785 1053.98 161.834 1057.19 161.834 1061.14C161.834 1065.1 158.785 1068.31 155.023 1068.31L125.222 1068.31C121.46 1068.31 118.41 1065.1 118.41 1061.14C118.41 1057.19 121.46 1053.98 125.222 1053.98L155.023 1053.98Z" fill="#D1D0FF"/>
<path d="M155.023 1079.05C158.785 1079.05 161.834 1082.26 161.834 1086.21C161.834 1090.17 158.785 1093.38 155.023 1093.38L125.222 1093.38C121.46 1093.38 118.41 1090.17 118.41 1086.21C118.41 1082.26 121.46 1079.05 125.222 1079.05L155.023 1079.05Z" fill="#D1D0FF"/>
<path d="M155.023 1104.12C158.785 1104.12 161.834 1107.33 161.834 1111.29C161.834 1115.24 158.785 1118.45 155.023 1118.45L128.628 1118.45C124.866 1118.45 121.816 1115.24 121.816 1111.29C121.816 1107.33 124.866 1104.12 128.628 1104.12L155.023 1104.12Z" fill="#D1D0FF"/>
<path d="M155.023 1129.2C158.785 1129.2 161.834 1132.4 161.834 1136.36C161.834 1140.32 158.785 1143.52 155.023 1143.52L128.628 1143.52C124.866 1143.52 121.816 1140.32 121.816 1136.36C121.816 1132.4 124.866 1129.2 128.628 1129.2L155.023 1129.2Z" fill="#D1D0FF"/>
<path d="M155.023 1154.27C158.785 1154.27 161.834 1157.48 161.834 1161.43C161.834 1165.39 158.785 1168.6 155.023 1168.6L125.222 1168.6C121.46 1168.6 118.41 1165.39 118.41 1161.43C118.41 1157.48 121.46 1154.27 125.222 1154.27L155.023 1154.27Z" fill="#D1D0FF"/>
<path d="M155.023 1179.34C158.785 1179.34 161.834 1182.55 161.834 1186.51C161.834 1190.46 158.785 1193.67 155.023 1193.67L119.262 1193.67C115.5 1193.67 112.45 1190.46 112.45 1186.51C112.45 1182.55 115.5 1179.34 119.262 1179.34L155.023 1179.34Z" fill="#D1D0FF"/>
<path d="M155.023 1204.41C158.785 1204.41 161.834 1207.62 161.834 1211.58C161.834 1215.53 158.785 1218.74 155.023 1218.74L109.896 1218.74C106.134 1218.74 103.084 1215.53 103.084 1211.58C103.084 1207.62 106.134 1204.41 109.896 1204.41L155.023 1204.41Z" fill="#D1D0FF"/>
<path d="M155.023 1229.49C158.785 1229.49 161.834 1232.69 161.834 1236.65C161.834 1240.61 158.785 1243.81 155.023 1243.81L107.342 1243.81C103.58 1243.81 100.53 1240.61 100.53 1236.65C100.53 1232.69 103.58 1229.49 107.342 1229.49L155.023 1229.49Z" fill="#D1D0FF"/>
<path d="M157.577 1254.56C161.339 1254.56 164.389 1257.77 164.389 1261.72C164.389 1265.68 161.339 1268.89 157.577 1268.89L104.787 1268.89C101.025 1268.89 97.9756 1265.68 97.9756 1261.72C97.9756 1257.77 101.025 1254.56 104.787 1254.56L157.577 1254.56Z" fill="#D1D0FF"/>
<path d="M159.28 1279.63C163.042 1279.63 166.092 1282.84 166.092 1286.8C166.092 1290.75 163.042 1293.96 159.28 1293.96L107.342 1293.96C103.58 1293.96 100.53 1290.75 100.53 1286.8C100.53 1282.84 103.58 1279.63 107.342 1279.63L159.28 1279.63Z" fill="#D1D0FF"/>
<path d="M158.429 1304.71C162.191 1304.71 165.24 1307.91 165.24 1311.87C165.24 1315.83 162.191 1319.03 158.429 1319.03L113.302 1319.03C109.54 1319.03 106.49 1315.83 106.49 1311.87C106.49 1307.91 109.54 1304.71 113.302 1304.71L158.429 1304.71Z" fill="#D1D0FF"/>
<path d="M158.429 1329.78C162.191 1329.78 165.24 1332.99 165.24 1336.94C165.24 1340.9 162.191 1344.1 158.429 1344.1L118.41 1344.1C114.648 1344.1 111.599 1340.9 111.599 1336.94C111.599 1332.99 114.648 1329.78 118.41 1329.78L158.429 1329.78Z" fill="#D1D0FF"/>
<path d="M158.429 1354.85C162.191 1354.85 165.24 1358.06 165.24 1362.01C165.24 1365.97 162.191 1369.18 158.429 1369.18L122.668 1369.18C118.906 1369.18 115.856 1365.97 115.856 1362.01C115.856 1358.06 118.906 1354.85 122.668 1354.85L158.429 1354.85Z" fill="#D1D0FF"/>
<path d="M158.429 1379.92C162.191 1379.92 165.24 1383.13 165.24 1387.09C165.24 1391.04 162.191 1394.25 158.429 1394.25L133.737 1394.25C129.975 1394.25 126.925 1391.04 126.925 1387.09C126.925 1383.13 129.975 1379.92 133.737 1379.92L158.429 1379.92Z" fill="#D1D0FF"/>
<path d="M158.429 1405C162.191 1405 165.24 1408.2 165.24 1412.16C165.24 1416.12 162.191 1419.32 158.429 1419.32L145.657 1419.32C141.895 1419.32 138.845 1416.12 138.845 1412.16C138.845 1408.2 141.895 1405 145.657 1405L158.429 1405Z" fill="#D1D0FF"/>
<path d="M158.429 1430.07C162.191 1430.07 165.24 1433.28 165.24 1437.23C165.24 1441.19 162.191 1444.4 158.429 1444.4C154.667 1444.4 151.617 1441.19 151.617 1437.23C151.617 1433.28 154.667 1430.07 158.429 1430.07Z" fill="#D1D0FF"/>
<path d="M245.277 0.926813C249.039 0.926813 252.088 4.13407 252.088 8.09042C252.088 12.0468 249.039 15.254 245.277 15.254L181.418 15.254C177.656 15.254 174.606 12.0468 174.606 8.09041C174.606 4.13407 177.656 0.92681 181.418 0.92681L245.277 0.926813Z" fill="#F1C9FF"/>
<path d="M267.414 25.9995C271.176 25.9995 274.226 29.2067 274.226 33.1631C274.226 37.1194 271.176 40.3267 267.414 40.3267L181.418 40.3267C177.656 40.3267 174.606 37.1194 174.606 33.1631C174.606 29.2067 177.656 25.9995 181.418 25.9995L267.414 25.9995Z" fill="#F1C9FF"/>
<path d="M287.849 51.0721C291.611 51.0721 294.661 54.2794 294.661 58.2357C294.661 62.1921 291.611 65.3994 287.849 65.3994L181.418 65.3994C177.656 65.3994 174.606 62.1921 174.606 58.2357C174.606 54.2794 177.656 51.0721 181.418 51.0721L287.849 51.0721Z" fill="#F1C9FF"/>
<path d="M306.581 76.1448C310.343 76.1448 313.393 79.352 313.393 83.3084C313.393 87.2648 310.343 90.472 306.581 90.472L181.418 90.472C177.656 90.472 174.606 87.2648 174.606 83.3084C174.606 79.352 177.656 76.1448 181.418 76.1448L306.581 76.1448Z" fill="#F1C9FF"/>
<path d="M318.501 101.217C322.263 101.217 325.313 104.425 325.313 108.381C325.313 112.337 322.263 115.545 318.501 115.545L181.418 115.545C177.656 115.545 174.606 112.337 174.606 108.381C174.606 104.425 177.656 101.217 181.418 101.217L318.501 101.217Z" fill="#F1C9FF"/>
<path d="M329.57 126.29C333.332 126.29 336.382 129.497 336.382 133.454C336.382 137.41 333.332 140.617 329.57 140.617L181.418 140.617C177.656 140.617 174.606 137.41 174.606 133.454C174.606 129.497 177.656 126.29 181.418 126.29L255.494 126.29L329.57 126.29Z" fill="#F1C9FF"/>
<path d="M337.233 151.363C340.995 151.363 344.045 154.57 344.045 158.526C344.045 162.483 340.995 165.69 337.233 165.69L181.418 165.69C177.656 165.69 174.606 162.483 174.606 158.526C174.606 154.57 177.656 151.363 181.418 151.363L337.233 151.363Z" fill="#F1C9FF"/>
<path d="M337.233 176.435C340.995 176.435 344.045 179.643 344.045 183.599C344.045 187.555 340.995 190.763 337.233 190.763L181.418 190.763C177.656 190.763 174.606 187.555 174.606 183.599C174.606 179.643 177.656 176.435 181.418 176.435L337.233 176.435Z" fill="#F1C9FF"/>
<path d="M337.233 201.508C340.995 201.508 344.045 204.715 344.045 208.672C344.045 212.628 340.995 215.835 337.233 215.835L181.418 215.835C177.656 215.835 174.606 212.628 174.606 208.672C174.606 204.715 177.656 201.508 181.418 201.508L337.233 201.508Z" fill="#F1C9FF"/>
<path d="M337.233 226.581C340.995 226.581 344.045 229.788 344.045 233.744C344.045 237.701 340.995 240.908 337.233 240.908L181.418 240.908C177.656 240.908 174.606 237.701 174.606 233.744C174.606 229.788 177.656 226.581 181.418 226.581L337.233 226.581Z" fill="#F1C9FF"/>
<path d="M332.976 251.653C336.738 251.653 339.788 254.861 339.788 258.817C339.788 262.773 336.738 265.981 332.976 265.981L181.418 265.981C177.656 265.981 174.606 262.773 174.606 258.817C174.606 254.861 177.656 251.653 181.418 251.653L332.976 251.653Z" fill="#F1C9FF"/>
<path d="M327.016 276.726C330.778 276.726 333.828 279.933 333.828 283.89C333.828 287.846 330.778 291.053 327.016 291.053L181.418 291.053C177.656 291.053 174.606 287.846 174.606 283.89C174.606 279.933 177.656 276.726 181.418 276.726L327.016 276.726Z" fill="#F1C9FF"/>
<path d="M320.204 301.799C323.966 301.799 327.016 305.006 327.016 308.962C327.016 312.919 323.966 316.126 320.204 316.126L181.418 316.126C177.656 316.126 174.606 312.919 174.606 308.962C174.606 305.006 177.656 301.799 181.418 301.799L320.204 301.799Z" fill="#F1C9FF"/>
<path d="M315.947 326.871C319.709 326.871 322.759 330.079 322.759 334.035C322.759 337.991 319.709 341.199 315.947 341.199L181.418 341.199C177.656 341.199 174.606 337.991 174.606 334.035C174.606 330.079 177.656 326.871 181.418 326.871L315.947 326.871Z" fill="#F1C9FF"/>
<path d="M309.987 351.944C313.749 351.944 316.799 355.151 316.799 359.108C316.799 363.064 313.749 366.271 309.987 366.271L181.418 366.271C177.656 366.271 174.606 363.064 174.606 359.108C174.606 355.151 177.656 351.944 181.418 351.944L309.987 351.944Z" fill="#F1C9FF"/>
<path d="M304.027 377.017C307.789 377.017 310.838 380.224 310.838 384.18C310.838 388.137 307.789 391.344 304.027 391.344L181.418 391.344C177.656 391.344 174.606 388.137 174.606 384.18C174.606 380.224 177.656 377.017 181.418 377.017L304.027 377.017Z" fill="#F1C9FF"/>
<path d="M298.067 402.089C301.829 402.089 304.878 405.297 304.878 409.253C304.878 413.209 301.829 416.417 298.067 416.417L181.418 416.417C177.656 416.417 174.606 413.209 174.606 409.253C174.606 405.297 177.656 402.089 181.418 402.089L298.067 402.089Z" fill="#F1C9FF"/>
<path d="M287.849 427.162C291.611 427.162 294.661 430.369 294.661 434.326C294.661 438.282 291.611 441.489 287.849 441.489L181.418 441.489C177.656 441.489 174.606 438.282 174.606 434.326C174.606 430.369 177.656 427.162 181.418 427.162L287.849 427.162Z" fill="#F1C9FF"/>
<path d="M280.186 452.235C283.948 452.235 286.998 455.442 286.998 459.398C286.998 463.355 283.948 466.562 280.186 466.562L181.418 466.562C177.656 466.562 174.606 463.355 174.606 459.398C174.606 455.442 177.656 452.235 181.418 452.235L280.186 452.235Z" fill="#F1C9FF"/>
<path d="M274.226 477.307C277.988 477.307 281.038 480.515 281.038 484.471C281.038 488.427 277.988 491.635 274.226 491.635L181.418 491.635C177.656 491.635 174.606 488.427 174.606 484.471C174.606 480.515 177.656 477.307 181.418 477.307L274.226 477.307Z" fill="#F1C9FF"/>
<path d="M271.672 502.38C275.434 502.38 278.483 505.587 278.483 509.544C278.483 513.5 275.434 516.707 271.672 516.707L181.418 516.707C177.656 516.707 174.606 513.5 174.606 509.544C174.606 505.587 177.656 502.38 181.418 502.38L271.672 502.38Z" fill="#F1C9FF"/>
<path d="M269.969 527.453C273.731 527.453 276.78 530.66 276.78 534.616C276.78 538.573 273.731 541.78 269.969 541.78L181.418 541.78C177.656 541.78 174.606 538.573 174.606 534.616C174.606 530.66 177.656 527.453 181.418 527.453L269.969 527.453Z" fill="#F1C9FF"/>
<path d="M269.969 552.525C273.731 552.525 276.78 555.733 276.78 559.689C276.78 563.645 273.731 566.853 269.969 566.853L181.418 566.853C177.656 566.853 174.606 563.645 174.606 559.689C174.606 555.733 177.656 552.525 181.418 552.525L269.969 552.525Z" fill="#F1C9FF"/>
<path d="M271.672 577.598C275.434 577.598 278.483 580.805 278.483 584.762C278.483 588.718 275.434 591.925 271.672 591.925L181.418 591.925C177.656 591.925 174.606 588.718 174.606 584.762C174.606 580.805 177.656 577.598 181.418 577.598L271.672 577.598Z" fill="#F1C9FF"/>
<path d="M276.78 602.671C280.542 602.671 283.592 605.878 283.592 609.834C283.592 613.791 280.542 616.998 276.78 616.998L181.418 616.998C177.656 616.998 174.606 613.791 174.606 609.834C174.606 605.878 177.656 602.671 181.418 602.671L276.78 602.671Z" fill="#F1C9FF"/>
<path d="M274.226 627.743C277.988 627.743 281.038 630.951 281.038 634.907C281.038 638.863 277.988 642.071 274.226 642.071L181.418 642.071C177.656 642.071 174.606 638.863 174.606 634.907C174.606 630.951 177.656 627.743 181.418 627.743L274.226 627.743Z" fill="#F1C9FF"/>
<path d="M267.414 652.816C271.176 652.816 274.226 656.023 274.226 659.98C274.226 663.936 271.176 667.143 267.414 667.143L181.418 667.143C177.656 667.143 174.606 663.936 174.606 659.98C174.606 656.023 177.656 652.816 181.418 652.816L267.414 652.816Z" fill="#F1C9FF"/>
<path d="M256.346 677.889C260.107 677.889 263.157 681.096 263.157 685.052C263.157 689.009 260.107 692.216 256.346 692.216L181.418 692.216C177.656 692.216 174.606 689.009 174.606 685.052C174.606 681.096 177.656 677.889 181.418 677.889L256.346 677.889Z" fill="#F1C9FF"/>
<path d="M248.682 702.961C252.444 702.961 255.494 706.169 255.494 710.125C255.494 714.081 252.444 717.289 248.682 717.289L181.418 717.289C177.656 717.289 174.606 714.081 174.606 710.125C174.606 706.169 177.656 702.961 181.418 702.961L248.682 702.961Z" fill="#F1C9FF"/>
<path d="M239.317 728.034C243.078 728.034 246.128 731.241 246.128 735.198C246.128 739.154 243.078 742.361 239.317 742.361L181.418 742.361C177.656 742.361 174.606 739.154 174.606 735.198C174.606 731.241 177.656 728.034 181.418 728.034L239.317 728.034Z" fill="#F1C9FF"/>
<path d="M227.396 753.107C231.158 753.107 234.208 756.314 234.208 760.27C234.208 764.227 231.158 767.434 227.396 767.434L181.418 767.434C177.656 767.434 174.606 764.227 174.606 760.27C174.606 756.314 177.656 753.107 181.418 753.107L227.396 753.107Z" fill="#F1C9FF"/>
<path d="M217.179 778.179C220.941 778.179 223.99 781.387 223.99 785.343C223.99 789.299 220.941 792.507 217.179 792.507L181.418 792.507C177.656 792.507 174.606 789.299 174.606 785.343C174.606 781.387 177.656 778.179 181.418 778.179L217.179 778.179Z" fill="#F1C9FF"/>
<path d="M211.219 803.252C214.981 803.252 218.03 806.459 218.03 810.416C218.03 814.372 214.981 817.579 211.219 817.579L181.418 817.579C177.656 817.579 174.606 814.372 174.606 810.416C174.606 806.459 177.656 803.252 181.418 803.252L211.219 803.252Z" fill="#F1C9FF"/>
<path d="M244.425 1279.63C248.187 1279.63 251.237 1282.84 251.237 1286.8C251.237 1290.75 248.187 1293.96 244.425 1293.96L181.418 1293.96C177.656 1293.96 174.606 1290.75 174.606 1286.8C174.606 1282.84 177.656 1279.63 181.418 1279.63L244.425 1279.63Z" fill="#F1C9FF"/>
<path d="M251.237 1304.71C254.999 1304.71 258.048 1307.91 258.048 1311.87C258.048 1315.83 254.999 1319.03 251.237 1319.03L181.418 1319.03C177.656 1319.03 174.606 1315.83 174.606 1311.87C174.606 1307.91 177.656 1304.71 181.418 1304.71L251.237 1304.71Z" fill="#F1C9FF"/>
<path d="M260.603 1329.78C264.365 1329.78 267.414 1332.99 267.414 1336.94C267.414 1340.9 264.365 1344.1 260.603 1344.1L181.418 1344.1C177.656 1344.1 174.606 1340.9 174.606 1336.94C174.606 1332.99 177.656 1329.78 181.418 1329.78L260.603 1329.78Z" fill="#F1C9FF"/>
<path d="M274.226 1354.85C277.988 1354.85 281.038 1358.06 281.038 1362.01C281.038 1365.97 277.988 1369.18 274.226 1369.18L181.418 1369.18C177.656 1369.18 174.606 1365.97 174.606 1362.01C174.606 1358.06 177.656 1354.85 181.418 1354.85L274.226 1354.85Z" fill="#F1C9FF"/>
<path d="M281.038 1379.92C284.8 1379.92 287.849 1383.13 287.849 1387.09C287.849 1391.04 284.8 1394.25 281.038 1394.25L181.418 1394.25C177.656 1394.25 174.606 1391.04 174.606 1387.09C174.606 1383.13 177.656 1379.92 181.418 1379.92L281.038 1379.92Z" fill="#F1C9FF"/>
<path d="M271.672 1405C275.434 1405 278.483 1408.2 278.483 1412.16C278.483 1416.12 275.434 1419.32 271.672 1419.32L181.418 1419.32C177.656 1419.32 174.606 1416.12 174.606 1412.16C174.606 1408.2 177.656 1405 181.418 1405L271.672 1405Z" fill="#F1C9FF"/>
<path d="M256.346 1430.07C260.107 1430.07 263.157 1433.28 263.157 1437.23C263.157 1441.19 260.107 1444.4 256.346 1444.4L181.418 1444.4C177.656 1444.4 174.606 1441.19 174.606 1437.23C174.606 1433.28 177.656 1430.07 181.418 1430.07L256.346 1430.07Z" fill="#F1C9FF"/>
<path d="M244.425 1455.14C248.187 1455.14 251.237 1458.35 251.237 1462.3C251.237 1466.26 248.187 1469.47 244.425 1469.47L181.418 1469.47C177.656 1469.47 174.606 1466.26 174.606 1462.3C174.606 1458.35 177.656 1455.14 181.418 1455.14L244.425 1455.14Z" fill="#F1C9FF"/>
<path d="M220.585 0.926812C224.347 0.926812 227.396 4.13407 227.396 8.09042C227.396 12.0468 224.347 15.254 220.585 15.254L181.418 15.254C177.656 15.254 174.606 12.0468 174.606 8.09041C174.606 4.13407 177.656 0.92681 181.418 0.92681L220.585 0.926812Z" fill="url(#paint0_linear_221_471)"/>
<path d="M241.871 25.9995C245.633 25.9995 248.683 29.2067 248.683 33.1631C248.683 37.1194 245.633 40.3267 241.871 40.3267L181.418 40.3267C177.656 40.3267 174.606 37.1194 174.606 33.1631C174.606 29.2067 177.656 25.9995 181.418 25.9995L241.871 25.9995Z" fill="url(#paint1_linear_221_471)"/>
<path d="M264.86 51.0721C268.622 51.0721 271.672 54.2794 271.672 58.2357C271.672 62.1921 268.622 65.3994 264.86 65.3994L181.418 65.3994C177.656 65.3994 174.606 62.1921 174.606 58.2357C174.606 54.2794 177.656 51.0721 181.418 51.0721L264.86 51.0721Z" fill="url(#paint2_linear_221_471)"/>
<path d="M280.186 76.1448C283.948 76.1448 286.998 79.352 286.998 83.3084C286.998 87.2648 283.948 90.472 280.186 90.472L181.418 90.472C177.656 90.472 174.606 87.2648 174.606 83.3084C174.606 79.352 177.656 76.1448 181.418 76.1448L280.186 76.1448Z" fill="url(#paint3_linear_221_471)"/>
<path d="M293.809 101.217C297.571 101.217 300.621 104.425 300.621 108.381C300.621 112.337 297.571 115.545 293.809 115.545L181.418 115.545C177.656 115.545 174.606 112.337 174.606 108.381C174.606 104.425 177.656 101.217 181.418 101.217L293.809 101.217Z" fill="url(#paint4_linear_221_471)"/>
<path d="M298.067 126.29C301.829 126.29 304.878 129.497 304.878 133.454C304.878 137.41 301.829 140.617 298.067 140.617L181.418 140.617C177.656 140.617 174.606 137.41 174.606 133.454C174.606 129.497 177.656 126.29 181.418 126.29L298.067 126.29Z" fill="url(#paint5_linear_221_471)"/>
<path d="M298.067 151.363C301.829 151.363 304.878 154.57 304.878 158.526C304.878 162.483 301.829 165.69 298.067 165.69L181.418 165.69C177.656 165.69 174.606 162.483 174.606 158.526C174.606 154.57 177.656 151.363 181.418 151.363L298.067 151.363Z" fill="url(#paint6_linear_221_471)"/>
<path d="M298.067 176.435C301.829 176.435 304.878 179.643 304.878 183.599C304.878 187.555 301.829 190.763 298.067 190.763L181.418 190.763C177.656 190.763 174.606 187.555 174.606 183.599C174.606 179.643 177.656 176.435 181.418 176.435L298.067 176.435Z" fill="url(#paint7_linear_221_471)"/>
<path d="M298.067 201.508C301.829 201.508 304.878 204.715 304.878 208.672C304.878 212.628 301.829 215.835 298.067 215.835L181.418 215.835C177.656 215.835 174.606 212.628 174.606 208.672C174.606 204.715 177.656 201.508 181.418 201.508L298.067 201.508Z" fill="url(#paint8_linear_221_471)"/>
<path d="M293.809 226.581C297.571 226.581 300.621 229.788 300.621 233.744C300.621 237.701 297.571 240.908 293.809 240.908L181.418 240.908C177.656 240.908 174.606 237.701 174.606 233.744C174.606 229.788 177.656 226.581 181.418 226.581L293.809 226.581Z" fill="url(#paint9_linear_221_471)"/>
<path d="M285.295 251.653C289.057 251.653 292.106 254.861 292.106 258.817C292.106 262.773 289.057 265.981 285.295 265.981L181.418 265.981C177.656 265.981 174.606 262.773 174.606 258.817C174.606 254.861 177.656 251.653 181.418 251.653L285.295 251.653Z" fill="url(#paint10_linear_221_471)"/>
<path d="M276.78 276.726C280.542 276.726 283.592 279.933 283.592 283.89C283.592 287.846 280.542 291.053 276.78 291.053L181.418 291.053C177.656 291.053 174.606 287.846 174.606 283.89C174.606 279.933 177.656 276.726 181.418 276.726L276.78 276.726Z" fill="url(#paint11_linear_221_471)"/>
<path d="M264.86 301.799C268.622 301.799 271.672 305.006 271.672 308.962C271.672 312.919 268.622 316.126 264.86 316.126L181.418 316.126C177.656 316.126 174.606 312.919 174.606 308.962C174.606 305.006 177.656 301.799 181.418 301.799L264.86 301.799Z" fill="url(#paint12_linear_221_471)"/>
<path d="M260.603 326.871C264.365 326.871 267.414 330.079 267.414 334.035C267.414 337.991 264.365 341.199 260.603 341.199L181.418 341.199C177.656 341.199 174.606 337.991 174.606 334.035C174.606 330.079 177.656 326.871 181.418 326.871L260.603 326.871Z" fill="url(#paint13_linear_221_471)"/>
<path d="M254.643 351.944C258.405 351.944 261.454 355.151 261.454 359.108C261.454 363.064 258.405 366.271 254.643 366.271L181.418 366.271C177.656 366.271 174.606 363.064 174.606 359.108C174.606 355.151 177.656 351.944 181.418 351.944L254.643 351.944Z" fill="url(#paint14_linear_221_471)"/>
<path d="M251.237 377.017C254.999 377.017 258.048 380.224 258.048 384.18C258.048 388.137 254.999 391.344 251.237 391.344L181.418 391.344C177.656 391.344 174.606 388.137 174.606 384.18C174.606 380.224 177.656 377.017 181.418 377.017L251.237 377.017Z" fill="url(#paint15_linear_221_471)"/>
<path d="M251.237 402.089C254.999 402.089 258.048 405.297 258.048 409.253C258.048 413.209 254.999 416.417 251.237 416.417L181.418 416.417C177.656 416.417 174.606 413.209 174.606 409.253C174.606 405.297 177.656 402.089 181.418 402.089L251.237 402.089Z" fill="url(#paint16_linear_221_471)"/>
<path d="M251.237 427.162C254.999 427.162 258.048 430.369 258.048 434.326C258.048 438.282 254.999 441.489 251.237 441.489L181.418 441.489C177.656 441.489 174.606 438.282 174.606 434.326C174.606 430.369 177.656 427.162 181.418 427.162L251.237 427.162Z" fill="url(#paint17_linear_221_471)"/>
<path d="M248.682 452.235C252.444 452.235 255.494 455.442 255.494 459.398C255.494 463.355 252.444 466.562 248.682 466.562L181.418 466.562C177.656 466.562 174.606 463.355 174.606 459.398C174.606 455.442 177.656 452.235 181.418 452.235L248.682 452.235Z" fill="url(#paint18_linear_221_471)"/>
<path d="M244.425 477.307C248.187 477.307 251.237 480.515 251.237 484.471C251.237 488.427 248.187 491.635 244.425 491.635L181.418 491.635C177.656 491.635 174.606 488.427 174.606 484.471C174.606 480.515 177.656 477.307 181.418 477.307L244.425 477.307Z" fill="url(#paint19_linear_221_471)"/>
<path d="M235.059 502.38C238.821 502.38 241.871 505.587 241.871 509.544C241.871 513.5 238.821 516.707 235.059 516.707L181.418 516.707C177.656 516.707 174.606 513.5 174.606 509.544C174.606 505.587 177.656 502.38 181.418 502.38L235.059 502.38Z" fill="url(#paint20_linear_221_471)"/>
<path d="M220.585 527.453C224.347 527.453 227.396 530.66 227.396 534.616C227.396 538.573 224.347 541.78 220.585 541.78L181.418 541.78C177.656 541.78 174.606 538.573 174.606 534.616C174.606 530.66 177.656 527.453 181.418 527.453L220.585 527.453Z" fill="url(#paint21_linear_221_471)"/>
<path d="M211.219 552.525C214.981 552.525 218.03 555.733 218.03 559.689C218.03 563.645 214.981 566.853 211.219 566.853L181.418 566.853C177.656 566.853 174.606 563.645 174.606 559.689C174.606 555.733 177.656 552.525 181.418 552.525L211.219 552.525Z" fill="url(#paint22_linear_221_471)"/>
<path d="M199.298 577.598C203.06 577.598 206.11 580.805 206.11 584.762C206.11 588.718 203.06 591.925 199.298 591.925L181.418 591.925C177.656 591.925 174.606 588.718 174.606 584.762C174.606 580.805 177.656 577.598 181.418 577.598L199.298 577.598Z" fill="url(#paint23_linear_221_471)"/>
<path d="M187.378 602.671C191.14 602.671 194.19 605.878 194.19 609.834C194.19 613.791 191.14 616.998 187.378 616.998L181.418 616.998C177.656 616.998 174.606 613.791 174.606 609.834C174.606 605.878 177.656 602.671 181.418 602.671L187.378 602.671Z" fill="url(#paint24_linear_221_471)"/>
<path d="M183.972 627.743C187.734 627.743 190.784 630.951 190.784 634.907C190.784 638.863 187.734 642.071 183.972 642.071L181.418 642.071C177.656 642.071 174.606 638.863 174.606 634.907C174.606 630.951 177.656 627.743 181.418 627.743L183.972 627.743Z" fill="url(#paint25_linear_221_471)"/>
<path d="M183.972 652.816C187.734 652.816 190.784 656.023 190.784 659.98C190.784 663.936 187.734 667.143 183.972 667.143L181.418 667.143C177.656 667.143 174.606 663.936 174.606 659.98C174.606 656.023 177.656 652.816 181.418 652.816L183.972 652.816Z" fill="url(#paint26_linear_221_471)"/>
<path d="M183.972 677.889C187.734 677.889 190.784 681.096 190.784 685.052C190.784 689.009 187.734 692.216 183.972 692.216L181.418 692.216C177.656 692.216 174.606 689.009 174.606 685.052C174.606 681.096 177.656 677.889 181.418 677.889L183.972 677.889Z" fill="url(#paint27_linear_221_471)"/>
<path d="M183.972 702.961C187.734 702.961 190.784 706.169 190.784 710.125C190.784 714.081 187.734 717.289 183.972 717.289L181.418 717.289C177.656 717.289 174.606 714.081 174.606 710.125C174.606 706.169 177.656 702.961 181.418 702.961L183.972 702.961Z" fill="url(#paint28_linear_221_471)"/>
<path d="M191.635 728.034C195.397 728.034 198.447 731.241 198.447 735.198C198.447 739.154 195.397 742.361 191.635 742.361L181.418 742.361C177.656 742.361 174.606 739.154 174.606 735.198C174.606 731.241 177.656 728.034 181.418 728.034L191.635 728.034Z" fill="url(#paint29_linear_221_471)"/>
<path d="M183.972 753.107C187.734 753.107 190.784 756.314 190.784 760.27C190.784 764.227 187.734 767.434 183.972 767.434L181.418 767.434C177.656 767.434 174.606 764.227 174.606 760.27C174.606 756.314 177.656 753.107 181.418 753.107L183.972 753.107Z" fill="url(#paint30_linear_221_471)"/>
<path d="M187.378 778.179C191.14 778.179 194.19 781.387 194.19 785.343C194.19 789.299 191.14 792.507 187.378 792.507L181.418 792.507C177.656 792.507 174.606 789.299 174.606 785.343C174.606 781.387 177.656 778.179 181.418 778.179L187.378 778.179Z" fill="url(#paint31_linear_221_471)"/>
<path d="M199.298 803.252C203.06 803.252 206.11 806.459 206.11 810.416C206.11 814.372 203.06 817.579 199.298 817.579L181.418 817.579C177.656 817.579 174.606 814.372 174.606 810.416C174.606 806.459 177.656 803.252 181.418 803.252L199.298 803.252Z" fill="url(#paint32_linear_221_471)"/>
<path d="M201.853 828.325C205.615 828.325 208.664 831.532 208.664 835.488C208.664 839.445 205.615 842.652 201.853 842.652L181.418 842.652C177.656 842.652 174.606 839.445 174.606 835.488C174.606 831.532 177.656 828.325 181.418 828.325L201.853 828.325Z" fill="url(#paint33_linear_221_471)"/>
<path d="M201.853 853.397C205.615 853.397 208.664 856.604 208.664 860.561C208.664 864.517 205.615 867.724 201.853 867.724L181.418 867.724C177.656 867.724 174.606 864.517 174.606 860.561C174.606 856.604 177.656 853.397 181.418 853.397L201.853 853.397Z" fill="url(#paint34_linear_221_471)"/>
<path d="M195.893 878.47C199.654 878.47 202.704 881.677 202.704 885.634C202.704 889.59 199.654 892.797 195.893 892.797L181.418 892.797C177.656 892.797 174.606 889.59 174.606 885.634C174.606 881.677 177.656 878.47 181.418 878.47L195.893 878.47Z" fill="url(#paint35_linear_221_471)"/>
<path d="M191.635 903.543C195.397 903.543 198.447 906.75 198.447 910.706C198.447 914.663 195.397 917.87 191.635 917.87L181.418 917.87C177.656 917.87 174.606 914.663 174.606 910.706C174.606 906.75 177.656 903.543 181.418 903.543L191.635 903.543Z" fill="url(#paint36_linear_221_471)"/>
<path d="M195.892 928.615C199.654 928.615 202.704 931.823 202.704 935.779C202.704 939.735 199.654 942.942 195.892 942.942L181.418 942.942C177.656 942.942 174.606 939.735 174.606 935.779C174.606 931.823 177.656 928.615 181.418 928.615L195.892 928.615Z" fill="url(#paint37_linear_221_471)"/>
<path d="M217.179 953.688C220.941 953.688 223.99 956.895 223.99 960.852C223.99 964.808 220.941 968.015 217.179 968.015L181.418 968.015C177.656 968.015 174.606 964.808 174.606 960.852C174.606 956.895 177.656 953.688 181.418 953.688L217.179 953.688Z" fill="url(#paint38_linear_221_471)"/>
<path d="M236.762 978.76C240.524 978.76 243.574 981.968 243.574 985.924C243.574 989.88 240.524 993.088 236.762 993.088L181.418 993.088C177.656 993.088 174.606 989.88 174.606 985.924C174.606 981.968 177.656 978.76 181.418 978.76L236.762 978.76Z" fill="url(#paint39_linear_221_471)"/>
<path d="M248.682 1003.83C252.444 1003.83 255.494 1007.04 255.494 1011C255.494 1014.95 252.444 1018.16 248.682 1018.16L181.418 1018.16C177.656 1018.16 174.606 1014.95 174.606 1011C174.606 1007.04 177.656 1003.83 181.418 1003.83L248.682 1003.83Z" fill="url(#paint40_linear_221_471)"/>
<path d="M258.048 1028.91C261.81 1028.91 264.86 1032.11 264.86 1036.07C264.86 1040.03 261.81 1043.23 258.048 1043.23L181.418 1043.23C177.656 1043.23 174.606 1040.03 174.606 1036.07C174.606 1032.11 177.656 1028.91 181.418 1028.91L258.048 1028.91Z" fill="url(#paint41_linear_221_471)"/>
<path d="M264.86 1053.98C268.622 1053.98 271.672 1057.19 271.672 1061.14C271.672 1065.1 268.622 1068.31 264.86 1068.31L181.418 1068.31C177.656 1068.31 174.606 1065.1 174.606 1061.14C174.606 1057.19 177.656 1053.98 181.418 1053.98L264.86 1053.98Z" fill="url(#paint42_linear_221_471)"/>
<path d="M274.226 1079.05C277.988 1079.05 281.038 1082.26 281.038 1086.21C281.038 1090.17 277.988 1093.38 274.226 1093.38L181.418 1093.38C177.656 1093.38 174.606 1090.17 174.606 1086.21C174.606 1082.26 177.656 1079.05 181.418 1079.05L274.226 1079.05Z" fill="url(#paint43_linear_221_471)"/>
<path d="M276.78 1104.12C280.542 1104.12 283.592 1107.33 283.592 1111.29C283.592 1115.24 280.542 1118.45 276.78 1118.45L181.418 1118.45C177.656 1118.45 174.606 1115.24 174.606 1111.29C174.606 1107.33 177.656 1104.12 181.418 1104.12L276.78 1104.12Z" fill="url(#paint44_linear_221_471)"/>
<path d="M271.672 1129.2C275.434 1129.2 278.483 1132.4 278.483 1136.36C278.483 1140.32 275.434 1143.52 271.672 1143.52L181.418 1143.52C177.656 1143.52 174.606 1140.32 174.606 1136.36C174.606 1132.4 177.656 1129.2 181.418 1129.2L271.672 1129.2Z" fill="url(#paint45_linear_221_471)"/>
<path d="M264.86 1154.27C268.622 1154.27 271.672 1157.48 271.672 1161.43C271.672 1165.39 268.622 1168.6 264.86 1168.6L181.418 1168.6C177.656 1168.6 174.606 1165.39 174.606 1161.43C174.606 1157.48 177.656 1154.27 181.418 1154.27L264.86 1154.27Z" fill="url(#paint46_linear_221_471)"/>
<path d="M251.237 1179.34C254.999 1179.34 258.048 1182.55 258.048 1186.51C258.048 1190.46 254.999 1193.67 251.237 1193.67L181.418 1193.67C177.656 1193.67 174.606 1190.46 174.606 1186.51C174.606 1182.55 177.656 1179.34 181.418 1179.34L251.237 1179.34Z" fill="url(#paint47_linear_221_471)"/>
<path d="M244.425 1204.41C248.187 1204.41 251.237 1207.62 251.237 1211.58C251.237 1215.53 248.187 1218.74 244.425 1218.74L181.418 1218.74C177.656 1218.74 174.606 1215.53 174.606 1211.58C174.606 1207.62 177.656 1204.41 181.418 1204.41L244.425 1204.41Z" fill="url(#paint48_linear_221_471)"/>
<path d="M244.425 1229.49C248.187 1229.49 251.237 1232.69 251.237 1236.65C251.237 1240.61 248.187 1243.81 244.425 1243.81L181.418 1243.81C177.656 1243.81 174.606 1240.61 174.606 1236.65C174.606 1232.69 177.656 1229.49 181.418 1229.49L244.425 1229.49Z" fill="url(#paint49_linear_221_471)"/>
<path d="M238.465 1254.56C242.227 1254.56 245.277 1257.77 245.277 1261.72C245.277 1265.68 242.227 1268.89 238.465 1268.89L181.418 1268.89C177.656 1268.89 174.606 1265.68 174.606 1261.72C174.606 1257.77 177.656 1254.56 181.418 1254.56L238.465 1254.56Z" fill="url(#paint50_linear_221_471)"/>
<path d="M227.396 1279.63C231.158 1279.63 234.208 1282.84 234.208 1286.8C234.208 1290.75 231.158 1293.96 227.396 1293.96L181.418 1293.96C177.656 1293.96 174.606 1290.75 174.606 1286.8C174.606 1282.84 177.656 1279.63 181.418 1279.63L227.396 1279.63Z" fill="url(#paint51_linear_221_471)"/>
<path d="M224.842 1304.71C228.604 1304.71 231.653 1307.91 231.653 1311.87C231.653 1315.83 228.604 1319.03 224.842 1319.03L181.418 1319.03C177.656 1319.03 174.606 1315.83 174.606 1311.87C174.606 1307.91 177.656 1304.71 181.418 1304.71L224.842 1304.71Z" fill="url(#paint52_linear_221_471)"/>
<path d="M211.219 1329.78C214.981 1329.78 218.03 1332.99 218.03 1336.94C218.03 1340.9 214.981 1344.1 211.219 1344.1L181.418 1344.1C177.656 1344.1 174.606 1340.9 174.606 1336.94C174.606 1332.99 177.656 1329.78 181.418 1329.78L211.219 1329.78Z" fill="url(#paint53_linear_221_471)"/>
<path d="M207.813 1354.85C211.575 1354.85 214.624 1358.06 214.624 1362.01C214.624 1365.97 211.575 1369.18 207.813 1369.18L181.418 1369.18C177.656 1369.18 174.606 1365.97 174.606 1362.01C174.606 1358.06 177.656 1354.85 181.418 1354.85L207.813 1354.85Z" fill="url(#paint54_linear_221_471)"/>
<path d="M207.813 1379.92C211.575 1379.92 214.624 1383.13 214.624 1387.09C214.624 1391.04 211.575 1394.25 207.813 1394.25L181.418 1394.25C177.656 1394.25 174.606 1391.04 174.606 1387.09C174.606 1383.13 177.656 1379.92 181.418 1379.92L207.813 1379.92Z" fill="url(#paint55_linear_221_471)"/>
<path d="M212.922 1405C216.683 1405 219.733 1408.2 219.733 1412.16C219.733 1416.12 216.683 1419.32 212.922 1419.32L181.418 1419.32C177.656 1419.32 174.606 1416.12 174.606 1412.16C174.606 1408.2 177.656 1405 181.418 1405L212.922 1405Z" fill="url(#paint56_linear_221_471)"/>
<path d="M224.842 1430.07C228.604 1430.07 231.653 1433.28 231.653 1437.23C231.653 1441.19 228.604 1444.4 224.842 1444.4L181.418 1444.4C177.656 1444.4 174.606 1441.19 174.606 1437.23C174.606 1433.28 177.656 1430.07 181.418 1430.07L224.842 1430.07Z" fill="url(#paint57_linear_221_471)"/>
<path d="M224.842 1455.14C228.604 1455.14 231.653 1458.35 231.653 1462.3C231.653 1466.26 228.604 1469.47 224.842 1469.47L181.418 1469.47C177.656 1469.47 174.606 1466.26 174.606 1462.3C174.606 1458.35 177.656 1455.14 181.418 1455.14L224.842 1455.14Z" fill="url(#paint58_linear_221_471)"/>
<path d="M219.733 1480.21C223.495 1480.21 226.545 1483.42 226.545 1487.38C226.545 1491.33 223.495 1494.54 219.733 1494.54L181.418 1494.54C177.656 1494.54 174.606 1491.33 174.606 1487.38C174.606 1483.42 177.656 1480.21 181.418 1480.21L219.733 1480.21Z" fill="url(#paint59_linear_221_471)"/>
<path d="M160.983 151.363C163.805 151.363 166.092 153.768 166.092 156.735L166.092 160.317C166.092 163.285 163.805 165.69 160.983 165.69C158.162 165.69 155.874 163.285 155.874 160.317L155.874 156.735C155.874 153.768 158.162 151.363 160.983 151.363Z" fill="url(#paint60_linear_221_471)"/>
<path d="M159.706 176.435C163.233 176.435 166.092 179.442 166.092 183.151L166.092 184.047C166.092 187.756 163.233 190.763 159.706 190.763C156.179 190.763 153.32 187.756 153.32 184.047L153.32 183.151C153.32 179.442 156.179 176.435 159.706 176.435Z" fill="url(#paint61_linear_221_471)"/>
<path d="M159.28 201.508C163.042 201.508 166.092 204.715 166.092 208.672C166.092 212.628 163.042 215.835 159.28 215.835L157.577 215.835C153.815 215.835 150.766 212.628 150.766 208.672C150.766 204.715 153.815 201.508 157.577 201.508L159.28 201.508Z" fill="url(#paint62_linear_221_471)"/>
<path d="M159.28 226.581C163.042 226.581 166.092 229.788 166.092 233.744C166.092 237.701 163.042 240.908 159.28 240.908L153.32 240.908C149.558 240.908 146.508 237.701 146.508 233.744C146.508 229.788 149.558 226.581 153.32 226.581L159.28 226.581Z" fill="url(#paint63_linear_221_471)"/>
<path d="M159.28 251.653C163.042 251.653 166.092 254.861 166.092 258.817C166.092 262.773 163.042 265.981 159.28 265.981L147.36 265.981C143.598 265.981 140.548 262.773 140.548 258.817C140.548 254.861 143.598 251.653 147.36 251.653L159.28 251.653Z" fill="url(#paint64_linear_221_471)"/>
<path d="M159.28 276.726C163.042 276.726 166.092 279.933 166.092 283.89C166.092 287.846 163.042 291.053 159.28 291.053L143.954 291.053C140.192 291.053 137.142 287.846 137.142 283.89C137.142 279.933 140.192 276.726 143.954 276.726L159.28 276.726Z" fill="url(#paint65_linear_221_471)"/>
<path d="M159.28 301.799C163.042 301.799 166.092 305.006 166.092 308.962C166.092 312.919 163.042 316.126 159.28 316.126L139.697 316.126C135.935 316.126 132.885 312.919 132.885 308.962C132.885 305.006 135.935 301.799 139.697 301.799L159.28 301.799Z" fill="url(#paint66_linear_221_471)"/>
<path d="M159.28 326.871C163.042 326.871 166.092 330.079 166.092 334.035C166.092 337.991 163.042 341.199 159.28 341.199L132.885 341.199C129.123 341.199 126.074 337.991 126.074 334.035C126.074 330.079 129.123 326.871 132.885 326.871L159.28 326.871Z" fill="url(#paint67_linear_221_471)"/>
<path d="M159.28 351.944C163.042 351.944 166.092 355.151 166.092 359.108C166.092 363.064 163.042 366.271 159.28 366.271L124.371 366.271C120.609 366.271 117.559 363.064 117.559 359.108C117.559 355.151 120.609 351.944 124.371 351.944L159.28 351.944Z" fill="url(#paint68_linear_221_471)"/>
<path d="M159.28 377.017C163.042 377.017 166.092 380.224 166.092 384.18C166.092 388.137 163.042 391.344 159.28 391.344L120.965 391.344C117.203 391.344 114.153 388.137 114.153 384.18C114.153 380.224 117.203 377.017 120.965 377.017L159.28 377.017Z" fill="url(#paint69_linear_221_471)"/>
<path d="M159.28 402.089C163.042 402.089 166.092 405.297 166.092 409.253C166.092 413.209 163.042 416.417 159.28 416.417L118.41 416.417C114.649 416.417 111.599 413.209 111.599 409.253C111.599 405.297 114.649 402.089 118.41 402.089L159.28 402.089Z" fill="url(#paint70_linear_221_471)"/>
<path d="M159.28 427.162C163.042 427.162 166.092 430.369 166.092 434.326C166.092 438.282 163.042 441.489 159.28 441.489L118.41 441.489C114.649 441.489 111.599 438.282 111.599 434.326C111.599 430.369 114.649 427.162 118.41 427.162L159.28 427.162Z" fill="url(#paint71_linear_221_471)"/>
<path d="M159.28 452.235C163.042 452.235 166.092 455.442 166.092 459.398C166.092 463.355 163.042 466.562 159.28 466.562L116.708 466.562C112.946 466.562 109.896 463.355 109.896 459.398C109.896 455.442 112.946 452.235 116.708 452.235L159.28 452.235Z" fill="url(#paint72_linear_221_471)"/>
<path d="M159.28 477.307C163.042 477.307 166.092 480.515 166.092 484.471C166.092 488.427 163.042 491.635 159.28 491.635L116.708 491.635C112.946 491.635 109.896 488.427 109.896 484.471C109.896 480.515 112.946 477.307 116.708 477.307L159.28 477.307Z" fill="url(#paint73_linear_221_471)"/>
<path d="M159.28 502.38C163.042 502.38 166.092 505.587 166.092 509.544C166.092 513.5 163.042 516.707 159.28 516.707L113.302 516.707C109.54 516.707 106.49 513.5 106.49 509.544C106.49 505.587 109.54 502.38 113.302 502.38L159.28 502.38Z" fill="url(#paint74_linear_221_471)"/>
<path d="M159.28 527.453C163.042 527.453 166.092 530.66 166.092 534.616C166.092 538.573 163.042 541.78 159.28 541.78L110.747 541.78C106.985 541.78 103.936 538.573 103.936 534.616C103.936 530.66 106.985 527.453 110.747 527.453L159.28 527.453Z" fill="url(#paint75_linear_221_471)"/>
<path d="M159.28 552.525C163.042 552.525 166.092 555.733 166.092 559.689C166.092 563.645 163.042 566.853 159.28 566.853L103.936 566.853C100.174 566.853 97.1242 563.645 97.1242 559.689C97.1242 555.733 100.174 552.525 103.936 552.525L159.28 552.525Z" fill="url(#paint76_linear_221_471)"/>
<path d="M159.28 577.598C163.042 577.598 166.092 580.805 166.092 584.762C166.092 588.718 163.042 591.925 159.28 591.925L97.1242 591.925C93.3622 591.925 90.3126 588.718 90.3126 584.762C90.3126 580.805 93.3622 577.598 97.1242 577.598L159.28 577.598Z" fill="url(#paint77_linear_221_471)"/>
<path d="M159.28 602.671C163.042 602.671 166.092 605.878 166.092 609.834C166.092 613.791 163.042 616.998 159.28 616.998L86.9068 616.998C83.1448 616.998 80.0952 613.791 80.0952 609.834C80.0952 605.878 83.1448 602.671 86.9068 602.671L159.28 602.671Z" fill="url(#paint78_linear_221_471)"/>
<path d="M159.28 627.743C163.042 627.743 166.092 630.951 166.092 634.907C166.092 638.863 163.042 642.071 159.28 642.071L75.8379 642.071C72.076 642.071 69.0263 638.863 69.0263 634.907C69.0263 630.951 72.076 627.743 75.8379 627.743L159.28 627.743Z" fill="url(#paint79_linear_221_471)"/>
<path d="M159.28 652.816C163.042 652.816 166.092 656.023 166.092 659.98C166.092 663.936 163.042 667.143 159.28 667.143L69.0263 667.143C65.2644 667.143 62.2147 663.936 62.2147 659.98C62.2147 656.023 65.2644 652.816 69.0263 652.816L159.28 652.816Z" fill="url(#paint80_linear_221_471)"/>
<path d="M159.28 677.889C163.042 677.889 166.092 681.096 166.092 685.052C166.092 689.009 163.042 692.216 159.28 692.216L60.5118 692.216C56.7498 692.216 53.7002 689.009 53.7002 685.052C53.7002 681.096 56.7498 677.889 60.5118 677.889L159.28 677.889Z" fill="url(#paint81_linear_221_471)"/>
<path d="M159.28 702.961C163.042 702.961 166.092 706.169 166.092 710.125C166.092 714.081 163.042 717.289 159.28 717.289L57.106 717.288C53.344 717.288 50.2944 714.081 50.2944 710.125C50.2944 706.169 53.344 702.961 57.106 702.961L159.28 702.961Z" fill="url(#paint82_linear_221_471)"/>
<path d="M159.28 728.034C163.042 728.034 166.092 731.241 166.092 735.198C166.092 739.154 163.042 742.361 159.28 742.361L50.2944 742.361C46.5324 742.361 43.4828 739.154 43.4828 735.198C43.4828 731.241 46.5324 728.034 50.2944 728.034L159.28 728.034Z" fill="url(#paint83_linear_221_471)"/>
<path d="M159.28 753.107C163.042 753.107 166.092 756.314 166.092 760.27C166.092 764.227 163.042 767.434 159.28 767.434L50.2944 767.434C46.5324 767.434 43.4828 764.227 43.4828 760.27C43.4828 756.314 46.5324 753.107 50.2944 753.107L159.28 753.107Z" fill="url(#paint84_linear_221_471)"/>
<path d="M159.28 778.179C163.042 778.179 166.092 781.387 166.092 785.343C166.092 789.299 163.042 792.507 159.28 792.507L50.2944 792.507C46.5324 792.507 43.4828 789.299 43.4828 785.343C43.4828 781.387 46.5324 778.179 50.2944 778.179L159.28 778.179Z" fill="url(#paint85_linear_221_471)"/>
<path d="M159.28 803.252C163.042 803.252 166.092 806.459 166.092 810.416C166.092 814.372 163.042 817.579 159.28 817.579L50.2944 817.579C46.5324 817.579 43.4828 814.372 43.4828 810.416C43.4828 806.459 46.5324 803.252 50.2944 803.252L159.28 803.252Z" fill="url(#paint86_linear_221_471)"/>
<path d="M159.28 828.325C163.042 828.325 166.092 831.532 166.092 835.488C166.092 839.445 163.042 842.652 159.28 842.652L60.5118 842.652C56.7498 842.652 53.7002 839.445 53.7002 835.488C53.7002 831.532 56.7498 828.325 60.5118 828.325L159.28 828.325Z" fill="url(#paint87_linear_221_471)"/>
<path d="M159.28 853.397C163.042 853.397 166.092 856.604 166.092 860.561C166.092 864.517 163.042 867.724 159.28 867.724L69.0263 867.724C65.2644 867.724 62.2147 864.517 62.2147 860.561C62.2147 856.604 65.2644 853.397 69.0263 853.397L159.28 853.397Z" fill="url(#paint88_linear_221_471)"/>
<path d="M159.28 878.47C163.042 878.47 166.092 881.677 166.092 885.634C166.092 889.59 163.042 892.797 159.28 892.797L80.0952 892.797C76.3332 892.797 73.2836 889.59 73.2836 885.634C73.2836 881.677 76.3332 878.47 80.0952 878.47L159.28 878.47Z" fill="url(#paint89_linear_221_471)"/>
<path d="M159.28 903.543C163.042 903.543 166.092 906.75 166.092 910.706C166.092 914.663 163.042 917.87 159.28 917.87L93.7184 917.87C89.9564 917.87 86.9068 914.663 86.9068 910.706C86.9068 906.75 89.9564 903.543 93.7184 903.543L159.28 903.543Z" fill="url(#paint90_linear_221_471)"/>
<path d="M159.28 928.615C163.042 928.615 166.092 931.823 166.092 935.779C166.092 939.735 163.042 942.942 159.28 942.942L104.787 942.942C101.025 942.942 97.9756 939.735 97.9756 935.779C97.9756 931.822 101.025 928.615 104.787 928.615L159.28 928.615Z" fill="url(#paint91_linear_221_471)"/>
<path d="M159.28 953.688C163.042 953.688 166.092 956.895 166.092 960.852C166.092 964.808 163.042 968.015 159.28 968.015L116.708 968.015C112.946 968.015 109.896 964.808 109.896 960.852C109.896 956.895 112.946 953.688 116.708 953.688L159.28 953.688Z" fill="url(#paint92_linear_221_471)"/>
<path d="M159.28 978.76C163.042 978.76 166.092 981.968 166.092 985.924C166.092 989.88 163.042 993.088 159.28 993.088L122.668 993.088C118.906 993.088 115.856 989.88 115.856 985.924C115.856 981.968 118.906 978.76 122.668 978.76L159.28 978.76Z" fill="url(#paint93_linear_221_471)"/>
<path d="M159.28 1003.83C163.042 1003.83 166.092 1007.04 166.092 1011C166.092 1014.95 163.042 1018.16 159.28 1018.16L128.628 1018.16C124.866 1018.16 121.816 1014.95 121.816 1011C121.816 1007.04 124.866 1003.83 128.628 1003.83L159.28 1003.83Z" fill="url(#paint94_linear_221_471)"/>
<path d="M159.28 1028.91C163.042 1028.91 166.092 1032.11 166.092 1036.07C166.092 1040.03 163.042 1043.23 159.28 1043.23L132.034 1043.23C128.272 1043.23 125.222 1040.03 125.222 1036.07C125.222 1032.11 128.272 1028.91 132.034 1028.91L159.28 1028.91Z" fill="url(#paint95_linear_221_471)"/>
<path d="M159.28 1053.98C163.042 1053.98 166.092 1057.19 166.092 1061.14C166.092 1065.1 163.042 1068.31 159.28 1068.31L132.885 1068.31C129.123 1068.31 126.074 1065.1 126.074 1061.14C126.074 1057.19 129.123 1053.98 132.885 1053.98L159.28 1053.98Z" fill="url(#paint96_linear_221_471)"/>
<path d="M159.28 1079.05C163.042 1079.05 166.092 1082.26 166.092 1086.21C166.092 1090.17 163.042 1093.38 159.28 1093.38L132.885 1093.38C129.123 1093.38 126.074 1090.17 126.074 1086.21C126.074 1082.26 129.123 1079.05 132.885 1079.05L159.28 1079.05Z" fill="url(#paint97_linear_221_471)"/>
<path d="M159.28 1104.12C163.042 1104.12 166.092 1107.33 166.092 1111.29C166.092 1115.24 163.042 1118.45 159.28 1118.45L134.588 1118.45C130.826 1118.45 127.776 1115.24 127.776 1111.29C127.776 1107.33 130.826 1104.12 134.588 1104.12L159.28 1104.12Z" fill="url(#paint98_linear_221_471)"/>
<path d="M159.28 1129.2C163.042 1129.2 166.092 1132.4 166.092 1136.36C166.092 1140.32 163.042 1143.52 159.28 1143.52L137.994 1143.52C134.232 1143.52 131.182 1140.32 131.182 1136.36C131.182 1132.4 134.232 1129.2 137.994 1129.2L159.28 1129.2Z" fill="url(#paint99_linear_221_471)"/>
<path d="M159.28 1154.27C163.042 1154.27 166.092 1157.48 166.092 1161.43C166.092 1165.39 163.042 1168.6 159.28 1168.6L140.548 1168.6C136.786 1168.6 133.737 1165.39 133.737 1161.43C133.737 1157.48 136.786 1154.27 140.548 1154.27L159.28 1154.27Z" fill="url(#paint100_linear_221_471)"/>
<path d="M159.28 1179.34C163.042 1179.34 166.092 1182.55 166.092 1186.51C166.092 1190.46 163.042 1193.67 159.28 1193.67L145.657 1193.67C141.895 1193.67 138.845 1190.46 138.845 1186.51C138.845 1182.55 141.895 1179.34 145.657 1179.34L159.28 1179.34Z" fill="url(#paint101_linear_221_471)"/>
<path d="M159.28 1204.41C163.042 1204.41 166.092 1207.62 166.092 1211.58C166.092 1215.53 163.042 1218.74 159.28 1218.74L151.617 1218.74C147.855 1218.74 144.805 1215.53 144.805 1211.58C144.805 1207.62 147.855 1204.41 151.617 1204.41L159.28 1204.41Z" fill="url(#paint102_linear_221_471)"/>
<path d="M159.28 1229.49C163.042 1229.49 166.092 1232.69 166.092 1236.65C166.092 1240.61 163.042 1243.81 159.28 1243.81L158.429 1243.81C154.667 1243.81 151.617 1240.61 151.617 1236.65C151.617 1232.69 154.667 1229.49 158.429 1229.49L159.28 1229.49Z" fill="url(#paint103_linear_221_471)"/>
<path d="M160.132 1254.56C163.423 1254.56 166.092 1257.37 166.092 1260.83L166.092 1262.62C166.092 1266.08 163.423 1268.89 160.132 1268.89C156.84 1268.89 154.171 1266.08 154.171 1262.62L154.171 1260.83C154.171 1257.37 156.84 1254.56 160.132 1254.56Z" fill="url(#paint104_linear_221_471)"/>
<path d="M162.26 1279.63C164.376 1279.63 166.092 1281.44 166.092 1283.66L166.092 1289.93C166.092 1292.16 164.376 1293.96 162.26 1293.96C160.144 1293.96 158.429 1292.16 158.429 1289.93L158.429 1283.66C158.429 1281.44 160.144 1279.63 162.26 1279.63Z" fill="url(#paint105_linear_221_471)"/>
<defs>
<linearGradient id="paint0_linear_221_471" x1="374.697" y1="685.5" x2="-33.9993" y2="685.5" gradientUnits="userSpaceOnUse">
<stop stop-color="#FF5CB2"/>
<stop offset="1" stop-color="#C625FF"/>
</linearGradient>
<linearGradient id="paint1_linear_221_471" x1="374.697" y1="685.5" x2="-33.9993" y2="685.5" gradientUnits="userSpaceOnUse">
<stop stop-color="#FF5CB2"/>
<stop offset="1" stop-color="#C625FF"/>
</linearGradient>
<linearGradient id="paint2_linear_221_471" x1="374.697" y1="685.5" x2="-33.9993" y2="685.5" gradientUnits="userSpaceOnUse">
<stop stop-color="#FF5CB2"/>
<stop offset="1" stop-color="#C625FF"/>
</linearGradient>
<linearGradient id="paint3_linear_221_471" x1="374.697" y1="685.5" x2="-33.9993" y2="685.5" gradientUnits="userSpaceOnUse">
<stop stop-color="#FF5CB2"/>
<stop offset="1" stop-color="#C625FF"/>
</linearGradient>
<linearGradient id="paint4_linear_221_471" x1="374.697" y1="685.5" x2="-33.9993" y2="685.5" gradientUnits="userSpaceOnUse">
<stop stop-color="#FF5CB2"/>
<stop offset="1" stop-color="#C625FF"/>
</linearGradient>
<linearGradient id="paint5_linear_221_471" x1="374.697" y1="685.5" x2="-33.9993" y2="685.5" gradientUnits="userSpaceOnUse">
<stop stop-color="#FF5CB2"/>
<stop offset="1" stop-color="#C625FF"/>
</linearGradient>
<linearGradient id="paint6_linear_221_471" x1="374.697" y1="685.5" x2="-33.9993" y2="685.5" gradientUnits="userSpaceOnUse">
<stop stop-color="#FF5CB2"/>
<stop offset="1" stop-color="#C625FF"/>
</linearGradient>
<linearGradient id="paint7_linear_221_471" x1="374.697" y1="685.5" x2="-33.9993" y2="685.5" gradientUnits="userSpaceOnUse">
<stop stop-color="#FF5CB2"/>
<stop offset="1" stop-color="#C625FF"/>
</linearGradient>
<linearGradient id="paint8_linear_221_471" x1="374.697" y1="685.5" x2="-33.9993" y2="685.5" gradientUnits="userSpaceOnUse">
<stop stop-color="#FF5CB2"/>
<stop offset="1" stop-color="#C625FF"/>
</linearGradient>
<linearGradient id="paint9_linear_221_471" x1="374.697" y1="685.5" x2="-33.9993" y2="685.5" gradientUnits="userSpaceOnUse">
<stop stop-color="#FF5CB2"/>
<stop offset="1" stop-color="#C625FF"/>
</linearGradient>
<linearGradient id="paint10_linear_221_471" x1="374.697" y1="685.5" x2="-33.9993" y2="685.5" gradientUnits="userSpaceOnUse">
<stop stop-color="#FF5CB2"/>
<stop offset="1" stop-color="#C625FF"/>
</linearGradient>
<linearGradient id="paint11_linear_221_471" x1="374.697" y1="685.5" x2="-33.9993" y2="685.5" gradientUnits="userSpaceOnUse">
<stop stop-color="#FF5CB2"/>
<stop offset="1" stop-color="#C625FF"/>
</linearGradient>
<linearGradient id="paint12_linear_221_471" x1="374.697" y1="685.5" x2="-33.9993" y2="685.5" gradientUnits="userSpaceOnUse">
<stop stop-color="#FF5CB2"/>
<stop offset="1" stop-color="#C625FF"/>
</linearGradient>
<linearGradient id="paint13_linear_221_471" x1="374.697" y1="685.5" x2="-33.9993" y2="685.5" gradientUnits="userSpaceOnUse">
<stop stop-color="#FF5CB2"/>
<stop offset="1" stop-color="#C625FF"/>
</linearGradient>
<linearGradient id="paint14_linear_221_471" x1="374.697" y1="685.5" x2="-33.9993" y2="685.5" gradientUnits="userSpaceOnUse">
<stop stop-color="#FF5CB2"/>
<stop offset="1" stop-color="#C625FF"/>
</linearGradient>
<linearGradient id="paint15_linear_221_471" x1="374.697" y1="685.5" x2="-33.9993" y2="685.5" gradientUnits="userSpaceOnUse">
<stop stop-color="#FF5CB2"/>
<stop offset="1" stop-color="#C625FF"/>
</linearGradient>
<linearGradient id="paint16_linear_221_471" x1="374.697" y1="685.5" x2="-33.9993" y2="685.5" gradientUnits="userSpaceOnUse">
<stop stop-color="#FF5CB2"/>
<stop offset="1" stop-color="#C625FF"/>
</linearGradient>
<linearGradient id="paint17_linear_221_471" x1="374.697" y1="685.5" x2="-33.9993" y2="685.5" gradientUnits="userSpaceOnUse">
<stop stop-color="#FF5CB2"/>
<stop offset="1" stop-color="#C625FF"/>
</linearGradient>
<linearGradient id="paint18_linear_221_471" x1="374.697" y1="685.5" x2="-33.9993" y2="685.5" gradientUnits="userSpaceOnUse">
<stop stop-color="#FF5CB2"/>
<stop offset="1" stop-color="#C625FF"/>
</linearGradient>
<linearGradient id="paint19_linear_221_471" x1="374.697" y1="685.5" x2="-33.9993" y2="685.5" gradientUnits="userSpaceOnUse">
<stop stop-color="#FF5CB2"/>
<stop offset="1" stop-color="#C625FF"/>
</linearGradient>
<linearGradient id="paint20_linear_221_471" x1="374.697" y1="685.5" x2="-33.9993" y2="685.5" gradientUnits="userSpaceOnUse">
<stop stop-color="#FF5CB2"/>
<stop offset="1" stop-color="#C625FF"/>
</linearGradient>
<linearGradient id="paint21_linear_221_471" x1="374.697" y1="685.5" x2="-33.9993" y2="685.5" gradientUnits="userSpaceOnUse">
<stop stop-color="#FF5CB2"/>
<stop offset="1" stop-color="#C625FF"/>
</linearGradient>
<linearGradient id="paint22_linear_221_471" x1="374.697" y1="685.5" x2="-33.9993" y2="685.5" gradientUnits="userSpaceOnUse">
<stop stop-color="#FF5CB2"/>
<stop offset="1" stop-color="#C625FF"/>
</linearGradient>
<linearGradient id="paint23_linear_221_471" x1="374.697" y1="685.5" x2="-33.9993" y2="685.5" gradientUnits="userSpaceOnUse">
<stop stop-color="#FF5CB2"/>
<stop offset="1" stop-color="#C625FF"/>
</linearGradient>
<linearGradient id="paint24_linear_221_471" x1="374.697" y1="685.5" x2="-33.9993" y2="685.5" gradientUnits="userSpaceOnUse">
<stop stop-color="#FF5CB2"/>
<stop offset="1" stop-color="#C625FF"/>
</linearGradient>
<linearGradient id="paint25_linear_221_471" x1="374.697" y1="685.5" x2="-33.9993" y2="685.5" gradientUnits="userSpaceOnUse">
<stop stop-color="#FF5CB2"/>
<stop offset="1" stop-color="#C625FF"/>
</linearGradient>
<linearGradient id="paint26_linear_221_471" x1="374.697" y1="685.5" x2="-33.9993" y2="685.5" gradientUnits="userSpaceOnUse">
<stop stop-color="#FF5CB2"/>
<stop offset="1" stop-color="#C625FF"/>
</linearGradient>
<linearGradient id="paint27_linear_221_471" x1="374.697" y1="685.5" x2="-33.9993" y2="685.5" gradientUnits="userSpaceOnUse">
<stop stop-color="#FF5CB2"/>
<stop offset="1" stop-color="#C625FF"/>
</linearGradient>
<linearGradient id="paint28_linear_221_471" x1="374.697" y1="685.5" x2="-33.9993" y2="685.5" gradientUnits="userSpaceOnUse">
<stop stop-color="#FF5CB2"/>
<stop offset="1" stop-color="#C625FF"/>
</linearGradient>
<linearGradient id="paint29_linear_221_471" x1="374.697" y1="685.5" x2="-33.9993" y2="685.5" gradientUnits="userSpaceOnUse">
<stop stop-color="#FF5CB2"/>
<stop offset="1" stop-color="#C625FF"/>
</linearGradient>
<linearGradient id="paint30_linear_221_471" x1="374.697" y1="685.5" x2="-33.9993" y2="685.5" gradientUnits="userSpaceOnUse">
<stop stop-color="#FF5CB2"/>
<stop offset="1" stop-color="#C625FF"/>
</linearGradient>
<linearGradient id="paint31_linear_221_471" x1="374.697" y1="685.5" x2="-33.9993" y2="685.5" gradientUnits="userSpaceOnUse">
<stop stop-color="#FF5CB2"/>
<stop offset="1" stop-color="#C625FF"/>
</linearGradient>
<linearGradient id="paint32_linear_221_471" x1="374.697" y1="685.5" x2="-33.9993" y2="685.5" gradientUnits="userSpaceOnUse">
<stop stop-color="#FF5CB2"/>
<stop offset="1" stop-color="#C625FF"/>
</linearGradient>
<linearGradient id="paint33_linear_221_471" x1="374.697" y1="685.5" x2="-33.9993" y2="685.5" gradientUnits="userSpaceOnUse">
<stop stop-color="#FF5CB2"/>
<stop offset="1" stop-color="#C625FF"/>
</linearGradient>
<linearGradient id="paint34_linear_221_471" x1="374.697" y1="685.5" x2="-33.9993" y2="685.5" gradientUnits="userSpaceOnUse">
<stop stop-color="#FF5CB2"/>
<stop offset="1" stop-color="#C625FF"/>
</linearGradient>
<linearGradient id="paint35_linear_221_471" x1="374.697" y1="685.5" x2="-33.9993" y2="685.5" gradientUnits="userSpaceOnUse">
<stop stop-color="#FF5CB2"/>
<stop offset="1" stop-color="#C625FF"/>
</linearGradient>
<linearGradient id="paint36_linear_221_471" x1="374.697" y1="685.5" x2="-33.9993" y2="685.5" gradientUnits="userSpaceOnUse">
<stop stop-color="#FF5CB2"/>
<stop offset="1" stop-color="#C625FF"/>
</linearGradient>
<linearGradient id="paint37_linear_221_471" x1="374.697" y1="685.5" x2="-33.9993" y2="685.5" gradientUnits="userSpaceOnUse">
<stop stop-color="#FF5CB2"/>
<stop offset="1" stop-color="#C625FF"/>
</linearGradient>
<linearGradient id="paint38_linear_221_471" x1="374.697" y1="685.5" x2="-33.9993" y2="685.5" gradientUnits="userSpaceOnUse">
<stop stop-color="#FF5CB2"/>
<stop offset="1" stop-color="#C625FF"/>
</linearGradient>
<linearGradient id="paint39_linear_221_471" x1="374.697" y1="685.5" x2="-33.9993" y2="685.5" gradientUnits="userSpaceOnUse">
<stop stop-color="#FF5CB2"/>
<stop offset="1" stop-color="#C625FF"/>
</linearGradient>
<linearGradient id="paint40_linear_221_471" x1="374.697" y1="685.5" x2="-33.9993" y2="685.5" gradientUnits="userSpaceOnUse">
<stop stop-color="#FF5CB2"/>
<stop offset="1" stop-color="#C625FF"/>
</linearGradient>
<linearGradient id="paint41_linear_221_471" x1="374.697" y1="685.5" x2="-33.9993" y2="685.5" gradientUnits="userSpaceOnUse">
<stop stop-color="#FF5CB2"/>
<stop offset="1" stop-color="#C625FF"/>
</linearGradient>
<linearGradient id="paint42_linear_221_471" x1="374.697" y1="685.5" x2="-33.9993" y2="685.5" gradientUnits="userSpaceOnUse">
<stop stop-color="#FF5CB2"/>
<stop offset="1" stop-color="#C625FF"/>
</linearGradient>
<linearGradient id="paint43_linear_221_471" x1="374.697" y1="685.5" x2="-33.9993" y2="685.5" gradientUnits="userSpaceOnUse">
<stop stop-color="#FF5CB2"/>
<stop offset="1" stop-color="#C625FF"/>
</linearGradient>
<linearGradient id="paint44_linear_221_471" x1="374.697" y1="685.5" x2="-33.9993" y2="685.5" gradientUnits="userSpaceOnUse">
<stop stop-color="#FF5CB2"/>
<stop offset="1" stop-color="#C625FF"/>
</linearGradient>
<linearGradient id="paint45_linear_221_471" x1="374.697" y1="685.5" x2="-33.9993" y2="685.5" gradientUnits="userSpaceOnUse">
<stop stop-color="#FF5CB2"/>
<stop offset="1" stop-color="#C625FF"/>
</linearGradient>
<linearGradient id="paint46_linear_221_471" x1="374.697" y1="685.5" x2="-33.9993" y2="685.5" gradientUnits="userSpaceOnUse">
<stop stop-color="#FF5CB2"/>
<stop offset="1" stop-color="#C625FF"/>
</linearGradient>
<linearGradient id="paint47_linear_221_471" x1="374.697" y1="685.5" x2="-33.9993" y2="685.5" gradientUnits="userSpaceOnUse">
<stop stop-color="#FF5CB2"/>
<stop offset="1" stop-color="#C625FF"/>
</linearGradient>
<linearGradient id="paint48_linear_221_471" x1="374.697" y1="685.5" x2="-33.9993" y2="685.5" gradientUnits="userSpaceOnUse">
<stop stop-color="#FF5CB2"/>
<stop offset="1" stop-color="#C625FF"/>
</linearGradient>
<linearGradient id="paint49_linear_221_471" x1="374.697" y1="685.5" x2="-33.9993" y2="685.5" gradientUnits="userSpaceOnUse">
<stop stop-color="#FF5CB2"/>
<stop offset="1" stop-color="#C625FF"/>
</linearGradient>
<linearGradient id="paint50_linear_221_471" x1="374.697" y1="685.5" x2="-33.9993" y2="685.5" gradientUnits="userSpaceOnUse">
<stop stop-color="#FF5CB2"/>
<stop offset="1" stop-color="#C625FF"/>
</linearGradient>
<linearGradient id="paint51_linear_221_471" x1="374.697" y1="685.5" x2="-33.9993" y2="685.5" gradientUnits="userSpaceOnUse">
<stop stop-color="#FF5CB2"/>
<stop offset="1" stop-color="#C625FF"/>
</linearGradient>
<linearGradient id="paint52_linear_221_471" x1="374.697" y1="685.5" x2="-33.9993" y2="685.5" gradientUnits="userSpaceOnUse">
<stop stop-color="#FF5CB2"/>
<stop offset="1" stop-color="#C625FF"/>
</linearGradient>
<linearGradient id="paint53_linear_221_471" x1="374.697" y1="685.5" x2="-33.9993" y2="685.5" gradientUnits="userSpaceOnUse">
<stop stop-color="#FF5CB2"/>
<stop offset="1" stop-color="#C625FF"/>
</linearGradient>
<linearGradient id="paint54_linear_221_471" x1="374.697" y1="685.5" x2="-33.9993" y2="685.5" gradientUnits="userSpaceOnUse">
<stop stop-color="#FF5CB2"/>
<stop offset="1" stop-color="#C625FF"/>
</linearGradient>
<linearGradient id="paint55_linear_221_471" x1="374.697" y1="685.5" x2="-33.9993" y2="685.5" gradientUnits="userSpaceOnUse">
<stop stop-color="#FF5CB2"/>
<stop offset="1" stop-color="#C625FF"/>
</linearGradient>
<linearGradient id="paint56_linear_221_471" x1="374.697" y1="685.5" x2="-33.9993" y2="685.5" gradientUnits="userSpaceOnUse">
<stop stop-color="#FF5CB2"/>
<stop offset="1" stop-color="#C625FF"/>
</linearGradient>
<linearGradient id="paint57_linear_221_471" x1="374.697" y1="685.5" x2="-33.9993" y2="685.5" gradientUnits="userSpaceOnUse">
<stop stop-color="#FF5CB2"/>
<stop offset="1" stop-color="#C625FF"/>
</linearGradient>
<linearGradient id="paint58_linear_221_471" x1="374.697" y1="685.5" x2="-33.9993" y2="685.5" gradientUnits="userSpaceOnUse">
<stop stop-color="#FF5CB2"/>
<stop offset="1" stop-color="#C625FF"/>
</linearGradient>
<linearGradient id="paint59_linear_221_471" x1="374.697" y1="685.5" x2="-33.9993" y2="685.5" gradientUnits="userSpaceOnUse">
<stop stop-color="#FF5CB2"/>
<stop offset="1" stop-color="#C625FF"/>
</linearGradient>
<linearGradient id="paint60_linear_221_471" x1="166.092" y1="1286.8" x2="158.429" y2="1286.8" gradientUnits="userSpaceOnUse">
<stop stop-color="#4742FF"/>
<stop offset="1" stop-color="#706CFB"/>
</linearGradient>
<linearGradient id="paint61_linear_221_471" x1="166.092" y1="1286.8" x2="158.429" y2="1286.8" gradientUnits="userSpaceOnUse">
<stop stop-color="#4742FF"/>
<stop offset="1" stop-color="#706CFB"/>
</linearGradient>
<linearGradient id="paint62_linear_221_471" x1="166.092" y1="1286.8" x2="158.429" y2="1286.8" gradientUnits="userSpaceOnUse">
<stop stop-color="#4742FF"/>
<stop offset="1" stop-color="#706CFB"/>
</linearGradient>
<linearGradient id="paint63_linear_221_471" x1="166.092" y1="1286.8" x2="158.429" y2="1286.8" gradientUnits="userSpaceOnUse">
<stop stop-color="#4742FF"/>
<stop offset="1" stop-color="#706CFB"/>
</linearGradient>
<linearGradient id="paint64_linear_221_471" x1="166.092" y1="1286.8" x2="158.429" y2="1286.8" gradientUnits="userSpaceOnUse">
<stop stop-color="#4742FF"/>
<stop offset="1" stop-color="#706CFB"/>
</linearGradient>
<linearGradient id="paint65_linear_221_471" x1="166.092" y1="1286.8" x2="158.429" y2="1286.8" gradientUnits="userSpaceOnUse">
<stop stop-color="#4742FF"/>
<stop offset="1" stop-color="#706CFB"/>
</linearGradient>
<linearGradient id="paint66_linear_221_471" x1="166.092" y1="1286.8" x2="158.429" y2="1286.8" gradientUnits="userSpaceOnUse">
<stop stop-color="#4742FF"/>
<stop offset="1" stop-color="#706CFB"/>
</linearGradient>
<linearGradient id="paint67_linear_221_471" x1="166.092" y1="1286.8" x2="158.429" y2="1286.8" gradientUnits="userSpaceOnUse">
<stop stop-color="#4742FF"/>
<stop offset="1" stop-color="#706CFB"/>
</linearGradient>
<linearGradient id="paint68_linear_221_471" x1="166.092" y1="1286.8" x2="158.429" y2="1286.8" gradientUnits="userSpaceOnUse">
<stop stop-color="#4742FF"/>
<stop offset="1" stop-color="#706CFB"/>
</linearGradient>
<linearGradient id="paint69_linear_221_471" x1="166.092" y1="1286.8" x2="158.429" y2="1286.8" gradientUnits="userSpaceOnUse">
<stop stop-color="#4742FF"/>
<stop offset="1" stop-color="#706CFB"/>
</linearGradient>
<linearGradient id="paint70_linear_221_471" x1="166.092" y1="1286.8" x2="158.429" y2="1286.8" gradientUnits="userSpaceOnUse">
<stop stop-color="#4742FF"/>
<stop offset="1" stop-color="#706CFB"/>
</linearGradient>
<linearGradient id="paint71_linear_221_471" x1="166.092" y1="1286.8" x2="158.429" y2="1286.8" gradientUnits="userSpaceOnUse">
<stop stop-color="#4742FF"/>
<stop offset="1" stop-color="#706CFB"/>
</linearGradient>
<linearGradient id="paint72_linear_221_471" x1="166.092" y1="1286.8" x2="158.429" y2="1286.8" gradientUnits="userSpaceOnUse">
<stop stop-color="#4742FF"/>
<stop offset="1" stop-color="#706CFB"/>
</linearGradient>
<linearGradient id="paint73_linear_221_471" x1="166.092" y1="1286.8" x2="158.429" y2="1286.8" gradientUnits="userSpaceOnUse">
<stop stop-color="#4742FF"/>
<stop offset="1" stop-color="#706CFB"/>
</linearGradient>
<linearGradient id="paint74_linear_221_471" x1="166.092" y1="1286.8" x2="158.429" y2="1286.8" gradientUnits="userSpaceOnUse">
<stop stop-color="#4742FF"/>
<stop offset="1" stop-color="#706CFB"/>
</linearGradient>
<linearGradient id="paint75_linear_221_471" x1="166.092" y1="1286.8" x2="158.429" y2="1286.8" gradientUnits="userSpaceOnUse">
<stop stop-color="#4742FF"/>
<stop offset="1" stop-color="#706CFB"/>
</linearGradient>
<linearGradient id="paint76_linear_221_471" x1="166.092" y1="1286.8" x2="158.429" y2="1286.8" gradientUnits="userSpaceOnUse">
<stop stop-color="#4742FF"/>
<stop offset="1" stop-color="#706CFB"/>
</linearGradient>
<linearGradient id="paint77_linear_221_471" x1="166.092" y1="1286.8" x2="158.429" y2="1286.8" gradientUnits="userSpaceOnUse">
<stop stop-color="#4742FF"/>
<stop offset="1" stop-color="#706CFB"/>
</linearGradient>
<linearGradient id="paint78_linear_221_471" x1="166.092" y1="1286.8" x2="158.429" y2="1286.8" gradientUnits="userSpaceOnUse">
<stop stop-color="#4742FF"/>
<stop offset="1" stop-color="#706CFB"/>
</linearGradient>
<linearGradient id="paint79_linear_221_471" x1="166.092" y1="1286.8" x2="158.429" y2="1286.8" gradientUnits="userSpaceOnUse">
<stop stop-color="#4742FF"/>
<stop offset="1" stop-color="#706CFB"/>
</linearGradient>
<linearGradient id="paint80_linear_221_471" x1="166.092" y1="1286.8" x2="158.429" y2="1286.8" gradientUnits="userSpaceOnUse">
<stop stop-color="#4742FF"/>
<stop offset="1" stop-color="#706CFB"/>
</linearGradient>
<linearGradient id="paint81_linear_221_471" x1="166.092" y1="1286.8" x2="158.429" y2="1286.8" gradientUnits="userSpaceOnUse">
<stop stop-color="#4742FF"/>
<stop offset="1" stop-color="#706CFB"/>
</linearGradient>
<linearGradient id="paint82_linear_221_471" x1="166.092" y1="1286.8" x2="158.429" y2="1286.8" gradientUnits="userSpaceOnUse">
<stop stop-color="#4742FF"/>
<stop offset="1" stop-color="#706CFB"/>
</linearGradient>
<linearGradient id="paint83_linear_221_471" x1="166.092" y1="1286.8" x2="158.429" y2="1286.8" gradientUnits="userSpaceOnUse">
<stop stop-color="#4742FF"/>
<stop offset="1" stop-color="#706CFB"/>
</linearGradient>
<linearGradient id="paint84_linear_221_471" x1="166.092" y1="1286.8" x2="158.429" y2="1286.8" gradientUnits="userSpaceOnUse">
<stop stop-color="#4742FF"/>
<stop offset="1" stop-color="#706CFB"/>
</linearGradient>
<linearGradient id="paint85_linear_221_471" x1="166.092" y1="1286.8" x2="158.429" y2="1286.8" gradientUnits="userSpaceOnUse">
<stop stop-color="#4742FF"/>
<stop offset="1" stop-color="#706CFB"/>
</linearGradient>
<linearGradient id="paint86_linear_221_471" x1="166.092" y1="1286.8" x2="158.429" y2="1286.8" gradientUnits="userSpaceOnUse">
<stop stop-color="#4742FF"/>
<stop offset="1" stop-color="#706CFB"/>
</linearGradient>
<linearGradient id="paint87_linear_221_471" x1="166.092" y1="1286.8" x2="158.429" y2="1286.8" gradientUnits="userSpaceOnUse">
<stop stop-color="#4742FF"/>
<stop offset="1" stop-color="#706CFB"/>
</linearGradient>
<linearGradient id="paint88_linear_221_471" x1="166.092" y1="1286.8" x2="158.429" y2="1286.8" gradientUnits="userSpaceOnUse">
<stop stop-color="#4742FF"/>
<stop offset="1" stop-color="#706CFB"/>
</linearGradient>
<linearGradient id="paint89_linear_221_471" x1="166.092" y1="1286.8" x2="158.429" y2="1286.8" gradientUnits="userSpaceOnUse">
<stop stop-color="#4742FF"/>
<stop offset="1" stop-color="#706CFB"/>
</linearGradient>
<linearGradient id="paint90_linear_221_471" x1="166.092" y1="1286.8" x2="158.429" y2="1286.8" gradientUnits="userSpaceOnUse">
<stop stop-color="#4742FF"/>
<stop offset="1" stop-color="#706CFB"/>
</linearGradient>
<linearGradient id="paint91_linear_221_471" x1="166.092" y1="1286.8" x2="158.429" y2="1286.8" gradientUnits="userSpaceOnUse">
<stop stop-color="#4742FF"/>
<stop offset="1" stop-color="#706CFB"/>
</linearGradient>
<linearGradient id="paint92_linear_221_471" x1="166.092" y1="1286.8" x2="158.429" y2="1286.8" gradientUnits="userSpaceOnUse">
<stop stop-color="#4742FF"/>
<stop offset="1" stop-color="#706CFB"/>
</linearGradient>
<linearGradient id="paint93_linear_221_471" x1="166.092" y1="1286.8" x2="158.429" y2="1286.8" gradientUnits="userSpaceOnUse">
<stop stop-color="#4742FF"/>
<stop offset="1" stop-color="#706CFB"/>
</linearGradient>
<linearGradient id="paint94_linear_221_471" x1="166.092" y1="1286.8" x2="158.429" y2="1286.8" gradientUnits="userSpaceOnUse">
<stop stop-color="#4742FF"/>
<stop offset="1" stop-color="#706CFB"/>
</linearGradient>
<linearGradient id="paint95_linear_221_471" x1="166.092" y1="1286.8" x2="158.429" y2="1286.8" gradientUnits="userSpaceOnUse">
<stop stop-color="#4742FF"/>
<stop offset="1" stop-color="#706CFB"/>
</linearGradient>
<linearGradient id="paint96_linear_221_471" x1="166.092" y1="1286.8" x2="158.429" y2="1286.8" gradientUnits="userSpaceOnUse">
<stop stop-color="#4742FF"/>
<stop offset="1" stop-color="#706CFB"/>
</linearGradient>
<linearGradient id="paint97_linear_221_471" x1="166.092" y1="1286.8" x2="158.429" y2="1286.8" gradientUnits="userSpaceOnUse">
<stop stop-color="#4742FF"/>
<stop offset="1" stop-color="#706CFB"/>
</linearGradient>
<linearGradient id="paint98_linear_221_471" x1="166.092" y1="1286.8" x2="158.429" y2="1286.8" gradientUnits="userSpaceOnUse">
<stop stop-color="#4742FF"/>
<stop offset="1" stop-color="#706CFB"/>
</linearGradient>
<linearGradient id="paint99_linear_221_471" x1="166.092" y1="1286.8" x2="158.429" y2="1286.8" gradientUnits="userSpaceOnUse">
<stop stop-color="#4742FF"/>
<stop offset="1" stop-color="#706CFB"/>
</linearGradient>
<linearGradient id="paint100_linear_221_471" x1="166.092" y1="1286.8" x2="158.429" y2="1286.8" gradientUnits="userSpaceOnUse">
<stop stop-color="#4742FF"/>
<stop offset="1" stop-color="#706CFB"/>
</linearGradient>
<linearGradient id="paint101_linear_221_471" x1="166.092" y1="1286.8" x2="158.429" y2="1286.8" gradientUnits="userSpaceOnUse">
<stop stop-color="#4742FF"/>
<stop offset="1" stop-color="#706CFB"/>
</linearGradient>
<linearGradient id="paint102_linear_221_471" x1="166.092" y1="1286.8" x2="158.429" y2="1286.8" gradientUnits="userSpaceOnUse">
<stop stop-color="#4742FF"/>
<stop offset="1" stop-color="#706CFB"/>
</linearGradient>
<linearGradient id="paint103_linear_221_471" x1="166.092" y1="1286.8" x2="158.429" y2="1286.8" gradientUnits="userSpaceOnUse">
<stop stop-color="#4742FF"/>
<stop offset="1" stop-color="#706CFB"/>
</linearGradient>
<linearGradient id="paint104_linear_221_471" x1="166.092" y1="1286.8" x2="158.429" y2="1286.8" gradientUnits="userSpaceOnUse">
<stop stop-color="#4742FF"/>
<stop offset="1" stop-color="#706CFB"/>
</linearGradient>
<linearGradient id="paint105_linear_221_471" x1="166.092" y1="1286.8" x2="158.429" y2="1286.8" gradientUnits="userSpaceOnUse">
<stop stop-color="#4742FF"/>
<stop offset="1" stop-color="#706CFB"/>
</linearGradient>
</defs>
</svg>
