<svg width="1366" height="531" viewBox="0 0 1366 531" fill="none" xmlns="http://www.w3.org/2000/svg">
<path d="M352 285.086C352 280.204 355.582 276.246 360 276.246C364.418 276.246 368 280.204 368 285.086V334.811C368 339.693 364.418 343.65 360 343.65C355.582 343.65 352 339.693 352 334.811V285.086Z" fill="#D1D0FF"/>
<path d="M380 285.086C380 280.204 383.582 276.246 388 276.246C392.418 276.246 396 280.204 396 285.086V350.28C396 355.163 392.418 359.12 388 359.12C383.582 359.12 380 355.163 380 350.28V285.086Z" fill="#D1D0FF"/>
<path d="M408 285.086C408 280.204 411.582 276.246 416 276.246C420.418 276.246 424 280.204 424 285.086V360.225C424 365.107 420.418 369.065 416 369.065C411.582 369.065 408 365.107 408 360.225V285.086Z" fill="#D1D0FF"/>
<path d="M436 285.086C436 280.204 439.582 276.246 444 276.246C448.418 276.246 452 280.204 452 285.086V377.905C452 382.787 448.418 386.745 444 386.745C439.582 386.745 436 382.787 436 377.905V285.086Z" fill="#D1D0FF"/>
<path d="M464 285.086C464 280.204 467.582 276.246 472 276.246C476.418 276.246 480 280.204 480 285.086V391.165C480 396.047 476.418 400.005 472 400.005C467.582 400.005 464 396.047 464 391.165V285.086Z" fill="#D1D0FF"/>
<path d="M492 285.086C492 280.204 495.582 276.246 500 276.246C504.418 276.246 508 280.204 508 285.086V407.74C508 412.622 504.418 416.58 500 416.58C495.582 416.58 492 412.622 492 407.74V285.086Z" fill="#D1D0FF"/>
<path d="M520 285.086C520 280.204 523.582 276.246 528 276.246C532.418 276.246 536 280.204 536 285.086V420.999C536 425.882 532.418 429.839 528 429.839C523.582 429.839 520 425.882 520 420.999V285.086Z" fill="#D1D0FF"/>
<path d="M548 285.086C548 280.204 551.582 276.246 556 276.246C560.418 276.246 564 280.204 564 285.086V433.154C564 438.036 560.418 441.994 556 441.994C551.582 441.994 548 438.036 548 433.154V285.086Z" fill="#D1D0FF"/>
<path d="M576 285.086C576 280.204 579.582 276.246 584 276.246C588.418 276.246 592 280.204 592 285.086V448.624C592 453.506 588.418 457.464 584 457.464C579.582 457.464 576 453.506 576 448.624V285.086Z" fill="#D1D0FF"/>
<path d="M604 285.086C604 280.204 607.582 276.246 612 276.246C616.418 276.246 620 280.204 620 285.086V459.674C620 464.556 616.418 468.514 612 468.514C607.582 468.514 604 464.556 604 459.674V285.086Z" fill="#D1D0FF"/>
<path d="M632 285.086C632 280.204 635.582 276.246 640 276.246C644.418 276.246 648 280.204 648 285.086V471.829C648 476.711 644.418 480.669 640 480.669C635.582 480.669 632 476.711 632 471.829V285.086Z" fill="#D1D0FF"/>
<path d="M660 285.086C660 280.204 663.582 276.246 668 276.246C672.418 276.246 676 280.204 676 285.086V480.669C676 485.551 672.418 489.509 668 489.509C663.582 489.509 660 485.551 660 480.669V285.086Z" fill="#D1D0FF"/>
<path d="M688 285.086C688 280.204 691.582 276.246 696 276.246C700.418 276.246 704 280.204 704 285.086V486.194C704 491.076 700.418 495.034 696 495.034C691.582 495.034 688 491.076 688 486.194V285.086Z" fill="#D1D0FF"/>
<path d="M716 285.086C716 280.204 719.582 276.246 724 276.246C728.418 276.246 732 280.204 732 285.086V493.928C732 498.811 728.418 502.768 724 502.768C719.582 502.768 716 498.811 716 493.928V285.086Z" fill="#D1D0FF"/>
<path d="M744 285.086C744 280.204 747.582 276.246 752 276.246C756.418 276.246 760 280.204 760 285.086V499.453C760 504.336 756.418 508.293 752 508.293C747.582 508.293 744 504.336 744 499.453V285.086Z" fill="#D1D0FF"/>
<path d="M772 285.086C772 280.204 775.582 276.246 780 276.246C784.418 276.246 788 280.204 788 285.086V499.453C788 504.336 784.418 508.293 780 508.293C775.582 508.293 772 504.336 772 499.453V285.086Z" fill="#D1D0FF"/>
<path d="M800 285.086C800 280.204 803.582 276.246 808 276.246C812.418 276.246 816 280.204 816 285.086V493.928C816 498.811 812.418 502.768 808 502.768C803.582 502.768 800 498.811 800 493.928V285.086Z" fill="#D1D0FF"/>
<path d="M828 285.086C828 280.204 831.582 276.246 836 276.246C840.418 276.246 844 280.204 844 285.086V489.509C844 494.391 840.418 498.348 836 498.348C831.582 498.348 828 494.391 828 489.509V285.086Z" fill="#D1D0FF"/>
<path d="M856 285.086C856 280.204 859.582 276.246 864 276.246C868.418 276.246 872 280.204 872 285.086V486.194C872 491.076 868.418 495.034 864 495.034C859.582 495.034 856 491.076 856 486.194V285.086Z" fill="#D1D0FF"/>
<path d="M884 285.086C884 280.204 887.582 276.246 892 276.246C896.418 276.246 900 280.204 900 285.086V471.829C900 476.711 896.418 480.669 892 480.669C887.582 480.669 884 476.711 884 471.829V285.086Z" fill="#D1D0FF"/>
<path d="M912 285.086C912 280.204 915.582 276.246 920 276.246C924.418 276.246 928 280.204 928 285.086V453.044C928 457.926 924.418 461.884 920 461.884C915.582 461.884 912 457.926 912 453.044V285.086Z" fill="#D1D0FF"/>
<path d="M940 285.086C940 280.204 943.582 276.246 948 276.246C952.418 276.246 956 280.204 956 285.086V436.469C956 441.351 952.418 445.309 948 445.309C943.582 445.309 940 441.351 940 436.469V285.086Z" fill="#D1D0FF"/>
<path d="M968 285.086C968 280.204 971.582 276.246 976 276.246C980.418 276.246 984 280.204 984 285.086V412.16C984 417.042 980.418 420.999 976 420.999C971.582 420.999 968 417.042 968 412.16V285.086Z" fill="#D1D0FF"/>
<path d="M996 285.086C996 280.204 999.582 276.246 1004 276.246C1008.42 276.246 1012 280.204 1012 285.086V391.165C1012 396.047 1008.42 400.005 1004 400.005C999.582 400.005 996 396.047 996 391.165V285.086Z" fill="#D1D0FF"/>
<path d="M1024 285.086C1024 280.204 1027.58 276.246 1032 276.246C1036.42 276.246 1040 280.204 1040 285.086V372.38C1040 377.262 1036.42 381.22 1032 381.22C1027.58 381.22 1024 377.262 1024 372.38V285.086Z" fill="#D1D0FF"/>
<path d="M1052 285.086C1052 280.204 1055.58 276.246 1060 276.246C1064.42 276.246 1068 280.204 1068 285.086V351.385C1068 356.268 1064.42 360.225 1060 360.225C1055.58 360.225 1052 356.268 1052 351.385V285.086Z" fill="#D1D0FF"/>
<path d="M1080 285.086C1080 280.204 1083.58 276.246 1088 276.246C1092.42 276.246 1096 280.204 1096 285.086V334.811C1096 339.693 1092.42 343.65 1088 343.65C1083.58 343.65 1080 339.693 1080 334.811V285.086Z" fill="#D1D0FF"/>
<path d="M1108 285.086C1108 280.204 1111.58 276.246 1116 276.246C1120.42 276.246 1124 280.204 1124 285.086V323.761C1124 328.643 1120.42 332.601 1116 332.601C1111.58 332.601 1108 328.643 1108 323.761V285.086Z" fill="#D1D0FF"/>
<path d="M1136 285.086C1136 280.204 1139.58 276.246 1144 276.246C1148.42 276.246 1152 280.204 1152 285.086V323.761C1152 328.643 1148.42 332.601 1144 332.601C1139.58 332.601 1136 328.643 1136 323.761V285.086Z" fill="#D1D0FF"/>
<path d="M1164 285.086C1164 280.204 1167.58 276.246 1172 276.246C1176.42 276.246 1180 280.204 1180 285.086V319.341C1180 324.223 1176.42 328.181 1172 328.181C1167.58 328.181 1164 324.223 1164 319.341V285.086Z" fill="#D1D0FF"/>
<path d="M1192 285.086C1192 280.204 1195.58 276.246 1200 276.246C1204.42 276.246 1208 280.204 1208 285.086V319.341C1208 324.223 1204.42 328.181 1200 328.181C1195.58 328.181 1192 324.223 1192 319.341V285.086Z" fill="#D1D0FF"/>
<path d="M1220 285.086C1220 280.204 1223.58 276.246 1228 276.246C1232.42 276.246 1236 280.204 1236 285.086V323.761C1236 328.643 1232.42 332.601 1228 332.601C1223.58 332.601 1220 328.643 1220 323.761V285.086Z" fill="#D1D0FF"/>
<path d="M1248 285.086C1248 280.204 1251.58 276.246 1256 276.246C1260.42 276.246 1264 280.204 1264 285.086V331.496C1264 336.378 1260.42 340.336 1256 340.336C1251.58 340.336 1248 336.378 1248 331.496V285.086Z" fill="#D1D0FF"/>
<path d="M1276 285.086C1276 280.204 1279.58 276.246 1284 276.246C1288.42 276.246 1292 280.204 1292 285.086V343.65C1292 348.533 1288.42 352.49 1284 352.49C1279.58 352.49 1276 348.533 1276 343.65V285.086Z" fill="#D1D0FF"/>
<path d="M1304 285.086C1304 280.204 1307.58 276.246 1312 276.246C1316.42 276.246 1320 280.204 1320 285.086V346.965C1320 351.848 1316.42 355.805 1312 355.805C1307.58 355.805 1304 351.848 1304 346.965V285.086Z" fill="#D1D0FF"/>
<path d="M1332 281.771C1332 276.889 1335.58 272.931 1340 272.931C1344.42 272.931 1348 276.889 1348 281.771V350.28C1348 355.163 1344.42 359.12 1340 359.12C1335.58 359.12 1332 355.163 1332 350.28V281.771Z" fill="#D1D0FF"/>
<path d="M1360 279.561C1360 274.679 1363.58 270.721 1368 270.721C1372.42 270.721 1376 274.679 1376 279.561V346.965C1376 351.848 1372.42 355.805 1368 355.805C1363.58 355.805 1360 351.848 1360 346.965V279.561Z" fill="#D1D0FF"/>
<path d="M1388 280.666C1388 275.784 1391.58 271.826 1396 271.826C1400.42 271.826 1404 275.784 1404 280.666V339.231C1404 344.113 1400.42 348.07 1396 348.07C1391.58 348.07 1388 344.113 1388 339.231V280.666Z" fill="#D1D0FF"/>
<path d="M1416 280.666C1416 275.784 1419.58 271.826 1424 271.826C1428.42 271.826 1432 275.784 1432 280.666V332.601C1432 337.483 1428.42 341.441 1424 341.441C1419.58 341.441 1416 337.483 1416 332.601V280.666Z" fill="#D1D0FF"/>
<path d="M1444 280.666C1444 275.784 1447.58 271.826 1452 271.826C1456.42 271.826 1460 275.784 1460 280.666V327.076C1460 331.958 1456.42 335.916 1452 335.916C1447.58 335.916 1444 331.958 1444 327.076V280.666Z" fill="#D1D0FF"/>
<path d="M1472 280.666C1472 275.784 1475.58 271.826 1480 271.826C1484.42 271.826 1488 275.784 1488 280.666V312.711C1488 317.593 1484.42 321.551 1480 321.551C1475.58 321.551 1472 317.593 1472 312.711V280.666Z" fill="#D1D0FF"/>
<path d="M1500 280.666C1500 275.784 1503.58 271.826 1508 271.826C1512.42 271.826 1516 275.784 1516 280.666V297.241C1516 302.123 1512.42 306.081 1508 306.081C1503.58 306.081 1500 302.123 1500 297.241V280.666Z" fill="#D1D0FF"/>
<path d="M1528 280.666C1528 275.784 1531.58 271.826 1536 271.826C1540.42 271.826 1544 275.784 1544 280.666C1544 285.548 1540.42 289.506 1536 289.506C1531.58 289.506 1528 285.548 1528 280.666Z" fill="#D1D0FF"/>
<path d="M-68 167.958C-68 163.076 -64.4183 159.118 -60 159.118C-55.5817 159.118 -52 163.076 -52 167.958V250.832C-52 255.714 -55.5817 259.672 -60 259.672C-64.4183 259.672 -68 255.714 -68 250.832V167.958Z" fill="#F1C9FF"/>
<path d="M-40 139.228C-40 134.346 -36.4183 130.388 -32 130.388C-27.5817 130.388 -24 134.346 -24 139.228V250.832C-24 255.714 -27.5817 259.672 -32 259.672C-36.4183 259.672 -40 255.714 -40 250.832V139.228Z" fill="#F1C9FF"/>
<path d="M-12 112.709C-12 107.826 -8.41827 103.869 -4 103.869C0.418274 103.869 4 107.826 4 112.709V250.832C4 255.714 0.418274 259.672 -4 259.672C-8.41827 259.672 -12 255.714 -12 250.832V112.709Z" fill="#F1C9FF"/>
<path d="M16 88.3988C16 83.5167 19.5817 79.559 24 79.559C28.4183 79.559 32 83.5167 32 88.3988V250.832C32 255.714 28.4183 259.672 24 259.672C19.5817 259.672 16 255.714 16 250.832V88.3988Z" fill="#F1C9FF"/>
<path d="M44 72.929C44 68.0469 47.5817 64.0892 52 64.0892C56.4183 64.0892 60 68.0469 60 72.929V250.832C60 255.714 56.4183 259.672 52 259.672C47.5817 259.672 44 255.714 44 250.832V72.929Z" fill="#F1C9FF"/>
<path d="M72 58.5642C72 53.6821 75.5817 49.7243 80 49.7243C84.4183 49.7243 88 53.6821 88 58.5642V250.832C88 255.714 84.4183 259.672 80 259.672C75.5817 259.672 72 255.714 72 250.832V154.698V58.5642Z" fill="#F1C9FF"/>
<path d="M100 48.6194C100 43.7372 103.582 39.7795 108 39.7795C112.418 39.7795 116 43.7372 116 48.6194V250.832C116 255.714 112.418 259.672 108 259.672C103.582 259.672 100 255.714 100 250.832V48.6194Z" fill="#F1C9FF"/>
<path d="M128 48.6194C128 43.7372 131.582 39.7795 136 39.7795C140.418 39.7795 144 43.7372 144 48.6194V250.832C144 255.714 140.418 259.672 136 259.672C131.582 259.672 128 255.714 128 250.832V48.6194Z" fill="#F1C9FF"/>
<path d="M156 48.6194C156 43.7372 159.582 39.7795 164 39.7795C168.418 39.7795 172 43.7372 172 48.6194V250.832C172 255.714 168.418 259.672 164 259.672C159.582 259.672 156 255.714 156 250.832V48.6194Z" fill="#F1C9FF"/>
<path d="M184 48.6194C184 43.7372 187.582 39.7795 192 39.7795C196.418 39.7795 200 43.7372 200 48.6194V250.832C200 255.714 196.418 259.672 192 259.672C187.582 259.672 184 255.714 184 250.832V48.6194Z" fill="#F1C9FF"/>
<path d="M212 54.1443C212 49.2622 215.582 45.3044 220 45.3044C224.418 45.3044 228 49.2622 228 54.1443V250.832C228 255.714 224.418 259.672 220 259.672C215.582 259.672 212 255.714 212 250.832V54.1443Z" fill="#F1C9FF"/>
<path d="M240 61.8792C240 56.9971 243.582 53.0393 248 53.0393C252.418 53.0393 256 56.9971 256 61.8792V250.832C256 255.714 252.418 259.672 248 259.672C243.582 259.672 240 255.714 240 250.832V61.8792Z" fill="#F1C9FF"/>
<path d="M268 70.7191C268 65.8369 271.582 61.8792 276 61.8792C280.418 61.8792 284 65.8369 284 70.7191V250.832C284 255.714 280.418 259.672 276 259.672C271.582 259.672 268 255.714 268 250.832V70.7191Z" fill="#F1C9FF"/>
<path d="M296 76.244C296 71.3619 299.582 67.4041 304 67.4041C308.418 67.4041 312 71.3619 312 76.244V250.832C312 255.714 308.418 259.672 304 259.672C299.582 259.672 296 255.714 296 250.832V76.244Z" fill="#F1C9FF"/>
<path d="M324 83.9789C324 79.0968 327.582 75.139 332 75.139C336.418 75.139 340 79.0968 340 83.9789V250.832C340 255.714 336.418 259.672 332 259.672C327.582 259.672 324 255.714 324 250.832V83.9789Z" fill="#F1C9FF"/>
<path d="M352 91.7138C352 86.8317 355.582 82.8739 360 82.8739C364.418 82.8739 368 86.8317 368 91.7138V250.832C368 255.714 364.418 259.672 360 259.672C355.582 259.672 352 255.714 352 250.832V91.7138Z" fill="#F1C9FF"/>
<path d="M380 99.4487C380 94.5666 383.582 90.6088 388 90.6088C392.418 90.6088 396 94.5666 396 99.4487V250.832C396 255.714 392.418 259.672 388 259.672C383.582 259.672 380 255.714 380 250.832V99.4487Z" fill="#F1C9FF"/>
<path d="M408 112.709C408 107.826 411.582 103.869 416 103.869C420.418 103.869 424 107.826 424 112.709V250.832C424 255.714 420.418 259.672 416 259.672C411.582 259.672 408 255.714 408 250.832V112.709Z" fill="#F1C9FF"/>
<path d="M436 122.653C436 117.771 439.582 113.814 444 113.814C448.418 113.814 452 117.771 452 122.653V250.832C452 255.714 448.418 259.672 444 259.672C439.582 259.672 436 255.714 436 250.832V122.653Z" fill="#F1C9FF"/>
<path d="M464 130.388C464 125.506 467.582 121.548 472 121.548C476.418 121.548 480 125.506 480 130.388V250.832C480 255.714 476.418 259.672 472 259.672C467.582 259.672 464 255.714 464 250.832V130.388Z" fill="#F1C9FF"/>
<path d="M492 133.703C492 128.821 495.582 124.863 500 124.863C504.418 124.863 508 128.821 508 133.703V250.832C508 255.714 504.418 259.672 500 259.672C495.582 259.672 492 255.714 492 250.832V133.703Z" fill="#F1C9FF"/>
<path d="M520 135.913C520 131.031 523.582 127.073 528 127.073C532.418 127.073 536 131.031 536 135.913V250.832C536 255.714 532.418 259.672 528 259.672C523.582 259.672 520 255.714 520 250.832V135.913Z" fill="#F1C9FF"/>
<path d="M548 135.913C548 131.031 551.582 127.073 556 127.073C560.418 127.073 564 131.031 564 135.913V250.832C564 255.714 560.418 259.672 556 259.672C551.582 259.672 548 255.714 548 250.832V135.913Z" fill="#F1C9FF"/>
<path d="M576 133.703C576 128.821 579.582 124.863 584 124.863C588.418 124.863 592 128.821 592 133.703V250.832C592 255.714 588.418 259.672 584 259.672C579.582 259.672 576 255.714 576 250.832V133.703Z" fill="#F1C9FF"/>
<path d="M604 127.073C604 122.191 607.582 118.233 612 118.233C616.418 118.233 620 122.191 620 127.073V250.832C620 255.714 616.418 259.672 612 259.672C607.582 259.672 604 255.714 604 250.832V127.073Z" fill="#F1C9FF"/>
<path d="M632 130.388C632 125.506 635.582 121.548 640 121.548C644.418 121.548 648 125.506 648 130.388V250.832C648 255.714 644.418 259.672 640 259.672C635.582 259.672 632 255.714 632 250.832V130.388Z" fill="#F1C9FF"/>
<path d="M660 139.228C660 134.346 663.582 130.388 668 130.388C672.418 130.388 676 134.346 676 139.228V250.832C676 255.714 672.418 259.672 668 259.672C663.582 259.672 660 255.714 660 250.832V139.228Z" fill="#F1C9FF"/>
<path d="M688 153.593C688 148.711 691.582 144.753 696 144.753C700.418 144.753 704 148.711 704 153.593V250.832C704 255.714 700.418 259.672 696 259.672C691.582 259.672 688 255.714 688 250.832V153.593Z" fill="#F1C9FF"/>
<path d="M716 163.538C716 158.656 719.582 154.698 724 154.698C728.418 154.698 732 158.656 732 163.538V250.832C732 255.714 728.418 259.672 724 259.672C719.582 259.672 716 255.714 716 250.832V163.538Z" fill="#F1C9FF"/>
<path d="M744 175.693C744 170.811 747.582 166.853 752 166.853C756.418 166.853 760 170.811 760 175.693V250.832C760 255.714 756.418 259.672 752 259.672C747.582 259.672 744 255.714 744 250.832V175.693Z" fill="#F1C9FF"/>
<path d="M772 191.162C772 186.28 775.582 182.323 780 182.323C784.418 182.323 788 186.28 788 191.162V250.832C788 255.714 784.418 259.672 780 259.672C775.582 259.672 772 255.714 772 250.832V191.162Z" fill="#F1C9FF"/>
<path d="M800 204.422C800 199.54 803.582 195.582 808 195.582C812.418 195.582 816 199.54 816 204.422V250.832C816 255.714 812.418 259.672 808 259.672C803.582 259.672 800 255.714 800 250.832V204.422Z" fill="#F1C9FF"/>
<path d="M828 212.157C828 207.275 831.582 203.317 836 203.317C840.418 203.317 844 207.275 844 212.157V250.832C844 255.714 840.418 259.672 836 259.672C831.582 259.672 828 255.714 828 250.832V212.157Z" fill="#F1C9FF"/>
<path d="M1360 169.063C1360 164.181 1363.58 160.223 1368 160.223C1372.42 160.223 1376 164.181 1376 169.063V250.832C1376 255.714 1372.42 259.672 1368 259.672C1363.58 259.672 1360 255.714 1360 250.832V169.063Z" fill="#F1C9FF"/>
<path d="M1388 160.223C1388 155.341 1391.58 151.383 1396 151.383C1400.42 151.383 1404 155.341 1404 160.223V250.832C1404 255.714 1400.42 259.672 1396 259.672C1391.58 259.672 1388 255.714 1388 250.832V160.223Z" fill="#F1C9FF"/>
<path d="M1416 148.068C1416 143.186 1419.58 139.228 1424 139.228C1428.42 139.228 1432 143.186 1432 148.068V250.832C1432 255.714 1428.42 259.672 1424 259.672C1419.58 259.672 1416 255.714 1416 250.832V148.068Z" fill="#F1C9FF"/>
<path d="M1444 130.388C1444 125.506 1447.58 121.548 1452 121.548C1456.42 121.548 1460 125.506 1460 130.388V250.832C1460 255.714 1456.42 259.672 1452 259.672C1447.58 259.672 1444 255.714 1444 250.832V130.388Z" fill="#F1C9FF"/>
<path d="M1472 121.548C1472 116.666 1475.58 112.709 1480 112.709C1484.42 112.709 1488 116.666 1488 121.548V250.832C1488 255.714 1484.42 259.672 1480 259.672C1475.58 259.672 1472 255.714 1472 250.832V121.548Z" fill="#F1C9FF"/>
<path d="M1500 133.703C1500 128.821 1503.58 124.863 1508 124.863C1512.42 124.863 1516 128.821 1516 133.703V250.832C1516 255.714 1512.42 259.672 1508 259.672C1503.58 259.672 1500 255.714 1500 250.832V133.703Z" fill="#F1C9FF"/>
<path d="M1528 153.593C1528 148.711 1531.58 144.753 1536 144.753C1540.42 144.753 1544 148.711 1544 153.593V250.832C1544 255.714 1540.42 259.672 1536 259.672C1531.58 259.672 1528 255.714 1528 250.832V153.593Z" fill="#F1C9FF"/>
<path d="M1556 169.063C1556 164.181 1559.58 160.223 1564 160.223C1568.42 160.223 1572 164.181 1572 169.063V250.832C1572 255.714 1568.42 259.672 1564 259.672C1559.58 259.672 1556 255.714 1556 250.832V169.063Z" fill="#F1C9FF"/>
<path d="M-68 200.002C-68 195.12 -64.4183 191.162 -60 191.162C-55.5817 191.162 -52 195.12 -52 200.002V250.832C-52 255.714 -55.5817 259.672 -60 259.672C-64.4183 259.672 -68 255.714 -68 250.832V200.002Z" fill="url(#paint0_linear_221_938)"/>
<path d="M-40 172.378C-40 167.496 -36.4183 163.538 -32 163.538C-27.5817 163.538 -24 167.496 -24 172.378V250.832C-24 255.714 -27.5817 259.672 -32 259.672C-36.4183 259.672 -40 255.714 -40 250.832V172.378Z" fill="url(#paint1_linear_221_938)"/>
<path d="M-12 142.543C-12 137.661 -8.41827 133.703 -4 133.703C0.418274 133.703 4 137.661 4 142.543V250.832C4 255.714 0.418274 259.672 -4 259.672C-8.41827 259.672 -12 255.714 -12 250.832V142.543Z" fill="url(#paint2_linear_221_938)"/>
<path d="M16 122.653C16 117.771 19.5817 113.814 24 113.814C28.4183 113.814 32 117.771 32 122.653V250.832C32 255.714 28.4183 259.672 24 259.672C19.5817 259.672 16 255.714 16 250.832V122.653Z" fill="url(#paint3_linear_221_938)"/>
<path d="M44 104.974C44 100.091 47.5817 96.1337 52 96.1337C56.4183 96.1337 60 100.091 60 104.974V250.832C60 255.714 56.4183 259.672 52 259.672C47.5817 259.672 44 255.714 44 250.832V104.974Z" fill="url(#paint4_linear_221_938)"/>
<path d="M72 99.4487C72 94.5666 75.5817 90.6088 80 90.6088C84.4183 90.6088 88 94.5666 88 99.4487V250.832C88 255.714 84.4183 259.672 80 259.672C75.5817 259.672 72 255.714 72 250.832V99.4487Z" fill="url(#paint5_linear_221_938)"/>
<path d="M100 99.4487C100 94.5666 103.582 90.6088 108 90.6088C112.418 90.6088 116 94.5666 116 99.4487V250.832C116 255.714 112.418 259.672 108 259.672C103.582 259.672 100 255.714 100 250.832V99.4487Z" fill="url(#paint6_linear_221_938)"/>
<path d="M128 99.4487C128 94.5666 131.582 90.6088 136 90.6088C140.418 90.6088 144 94.5666 144 99.4487V250.832C144 255.714 140.418 259.672 136 259.672C131.582 259.672 128 255.714 128 250.832V99.4487Z" fill="url(#paint7_linear_221_938)"/>
<path d="M156 99.4487C156 94.5666 159.582 90.6088 164 90.6088C168.418 90.6088 172 94.5666 172 99.4487V250.832C172 255.714 168.418 259.672 164 259.672C159.582 259.672 156 255.714 156 250.832V99.4487Z" fill="url(#paint8_linear_221_938)"/>
<path d="M184 104.974C184 100.091 187.582 96.1337 192 96.1337C196.418 96.1337 200 100.091 200 104.974V250.832C200 255.714 196.418 259.672 192 259.672C187.582 259.672 184 255.714 184 250.832V104.974Z" fill="url(#paint9_linear_221_938)"/>
<path d="M212 116.023C212 111.141 215.582 107.184 220 107.184C224.418 107.184 228 111.141 228 116.023V250.832C228 255.714 224.418 259.672 220 259.672C215.582 259.672 212 255.714 212 250.832V116.023Z" fill="url(#paint10_linear_221_938)"/>
<path d="M240 127.073C240 122.191 243.582 118.233 248 118.233C252.418 118.233 256 122.191 256 127.073V250.832C256 255.714 252.418 259.672 248 259.672C243.582 259.672 240 255.714 240 250.832V127.073Z" fill="url(#paint11_linear_221_938)"/>
<path d="M268 142.543C268 137.661 271.582 133.703 276 133.703C280.418 133.703 284 137.661 284 142.543V250.832C284 255.714 280.418 259.672 276 259.672C271.582 259.672 268 255.714 268 250.832V142.543Z" fill="url(#paint12_linear_221_938)"/>
<path d="M296 148.068C296 143.186 299.582 139.228 304 139.228C308.418 139.228 312 143.186 312 148.068V250.832C312 255.714 308.418 259.672 304 259.672C299.582 259.672 296 255.714 296 250.832V148.068Z" fill="url(#paint13_linear_221_938)"/>
<path d="M324 155.803C324 150.921 327.582 146.963 332 146.963C336.418 146.963 340 150.921 340 155.803V250.832C340 255.714 336.418 259.672 332 259.672C327.582 259.672 324 255.714 324 250.832V155.803Z" fill="url(#paint14_linear_221_938)"/>
<path d="M352 160.223C352 155.341 355.582 151.383 360 151.383C364.418 151.383 368 155.341 368 160.223V250.832C368 255.714 364.418 259.672 360 259.672C355.582 259.672 352 255.714 352 250.832V160.223Z" fill="url(#paint15_linear_221_938)"/>
<path d="M380 160.223C380 155.341 383.582 151.383 388 151.383C392.418 151.383 396 155.341 396 160.223V250.832C396 255.714 392.418 259.672 388 259.672C383.582 259.672 380 255.714 380 250.832V160.223Z" fill="url(#paint16_linear_221_938)"/>
<path d="M408 160.223C408 155.341 411.582 151.383 416 151.383C420.418 151.383 424 155.341 424 160.223V250.832C424 255.714 420.418 259.672 416 259.672C411.582 259.672 408 255.714 408 250.832V160.223Z" fill="url(#paint17_linear_221_938)"/>
<path d="M436 163.538C436 158.656 439.582 154.698 444 154.698C448.418 154.698 452 158.656 452 163.538V250.832C452 255.714 448.418 259.672 444 259.672C439.582 259.672 436 255.714 436 250.832V163.538Z" fill="url(#paint18_linear_221_938)"/>
<path d="M464 169.063C464 164.181 467.582 160.223 472 160.223C476.418 160.223 480 164.181 480 169.063V250.832C480 255.714 476.418 259.672 472 259.672C467.582 259.672 464 255.714 464 250.832V169.063Z" fill="url(#paint19_linear_221_938)"/>
<path d="M492 181.218C492 176.335 495.582 172.378 500 172.378C504.418 172.378 508 176.335 508 181.218V250.832C508 255.714 504.418 259.672 500 259.672C495.582 259.672 492 255.714 492 250.832V181.218Z" fill="url(#paint20_linear_221_938)"/>
<path d="M520 200.002C520 195.12 523.582 191.162 528 191.162C532.418 191.162 536 195.12 536 200.002V250.832C536 255.714 532.418 259.672 528 259.672C523.582 259.672 520 255.714 520 250.832V200.002Z" fill="url(#paint21_linear_221_938)"/>
<path d="M548 212.157C548 207.275 551.582 203.317 556 203.317C560.418 203.317 564 207.275 564 212.157V250.832C564 255.714 560.418 259.672 556 259.672C551.582 259.672 548 255.714 548 250.832V212.157Z" fill="url(#paint22_linear_221_938)"/>
<path d="M576 227.627C576 222.745 579.582 218.787 584 218.787C588.418 218.787 592 222.745 592 227.627V250.832C592 255.714 588.418 259.672 584 259.672C579.582 259.672 576 255.714 576 250.832V227.627Z" fill="url(#paint23_linear_221_938)"/>
<path d="M604 243.097C604 238.215 607.582 234.257 612 234.257C616.418 234.257 620 238.215 620 243.097V250.832C620 255.714 616.418 259.672 612 259.672C607.582 259.672 604 255.714 604 250.832V243.097Z" fill="url(#paint24_linear_221_938)"/>
<path d="M632 247.517C632 242.635 635.582 238.677 640 238.677C644.418 238.677 648 242.635 648 247.517V250.832C648 255.714 644.418 259.672 640 259.672C635.582 259.672 632 255.714 632 250.832V247.517Z" fill="url(#paint25_linear_221_938)"/>
<path d="M660 247.517C660 242.635 663.582 238.677 668 238.677C672.418 238.677 676 242.635 676 247.517V250.832C676 255.714 672.418 259.672 668 259.672C663.582 259.672 660 255.714 660 250.832V247.517Z" fill="url(#paint26_linear_221_938)"/>
<path d="M688 247.517C688 242.635 691.582 238.677 696 238.677C700.418 238.677 704 242.635 704 247.517V250.832C704 255.714 700.418 259.672 696 259.672C691.582 259.672 688 255.714 688 250.832V247.517Z" fill="url(#paint27_linear_221_938)"/>
<path d="M716 247.517C716 242.635 719.582 238.677 724 238.677C728.418 238.677 732 242.635 732 247.517V250.832C732 255.714 728.418 259.672 724 259.672C719.582 259.672 716 255.714 716 250.832V247.517Z" fill="url(#paint28_linear_221_938)"/>
<path d="M744 237.572C744 232.69 747.582 228.732 752 228.732C756.418 228.732 760 232.69 760 237.572V250.832C760 255.714 756.418 259.672 752 259.672C747.582 259.672 744 255.714 744 250.832V237.572Z" fill="url(#paint29_linear_221_938)"/>
<path d="M772 247.517C772 242.635 775.582 238.677 780 238.677C784.418 238.677 788 242.635 788 247.517V250.832C788 255.714 784.418 259.672 780 259.672C775.582 259.672 772 255.714 772 250.832V247.517Z" fill="url(#paint30_linear_221_938)"/>
<path d="M800 243.097C800 238.215 803.582 234.257 808 234.257C812.418 234.257 816 238.215 816 243.097V250.832C816 255.714 812.418 259.672 808 259.672C803.582 259.672 800 255.714 800 250.832V243.097Z" fill="url(#paint31_linear_221_938)"/>
<path d="M828 227.627C828 222.745 831.582 218.787 836 218.787C840.418 218.787 844 222.745 844 227.627V250.832C844 255.714 840.418 259.672 836 259.672C831.582 259.672 828 255.714 828 250.832V227.627Z" fill="url(#paint32_linear_221_938)"/>
<path d="M856 224.312C856 219.43 859.582 215.472 864 215.472C868.418 215.472 872 219.43 872 224.312V250.832C872 255.714 868.418 259.672 864 259.672C859.582 259.672 856 255.714 856 250.832V224.312Z" fill="url(#paint33_linear_221_938)"/>
<path d="M884 224.312C884 219.43 887.582 215.472 892 215.472C896.418 215.472 900 219.43 900 224.312V250.832C900 255.714 896.418 259.672 892 259.672C887.582 259.672 884 255.714 884 250.832V224.312Z" fill="url(#paint34_linear_221_938)"/>
<path d="M912 232.047C912 227.165 915.582 223.207 920 223.207C924.418 223.207 928 227.165 928 232.047V250.832C928 255.714 924.418 259.672 920 259.672C915.582 259.672 912 255.714 912 250.832V232.047Z" fill="url(#paint35_linear_221_938)"/>
<path d="M940 237.572C940 232.69 943.582 228.732 948 228.732C952.418 228.732 956 232.69 956 237.572V250.832C956 255.714 952.418 259.672 948 259.672C943.582 259.672 940 255.714 940 250.832V237.572Z" fill="url(#paint36_linear_221_938)"/>
<path d="M968 232.047C968 227.165 971.582 223.207 976 223.207C980.418 223.207 984 227.165 984 232.047V250.832C984 255.714 980.418 259.672 976 259.672C971.582 259.672 968 255.714 968 250.832V232.047Z" fill="url(#paint37_linear_221_938)"/>
<path d="M996 204.422C996 199.54 999.582 195.582 1004 195.582C1008.42 195.582 1012 199.54 1012 204.422V250.832C1012 255.714 1008.42 259.672 1004 259.672C999.582 259.672 996 255.714 996 250.832V204.422Z" fill="url(#paint38_linear_221_938)"/>
<path d="M1024 179.008C1024 174.126 1027.58 170.168 1032 170.168C1036.42 170.168 1040 174.126 1040 179.008V250.832C1040 255.714 1036.42 259.672 1032 259.672C1027.58 259.672 1024 255.714 1024 250.832V179.008Z" fill="url(#paint39_linear_221_938)"/>
<path d="M1052 163.538C1052 158.656 1055.58 154.698 1060 154.698C1064.42 154.698 1068 158.656 1068 163.538V250.832C1068 255.714 1064.42 259.672 1060 259.672C1055.58 259.672 1052 255.714 1052 250.832V163.538Z" fill="url(#paint40_linear_221_938)"/>
<path d="M1080 151.383C1080 146.501 1083.58 142.543 1088 142.543C1092.42 142.543 1096 146.501 1096 151.383V250.832C1096 255.714 1092.42 259.672 1088 259.672C1083.58 259.672 1080 255.714 1080 250.832V151.383Z" fill="url(#paint41_linear_221_938)"/>
<path d="M1108 142.543C1108 137.661 1111.58 133.703 1116 133.703C1120.42 133.703 1124 137.661 1124 142.543V250.832C1124 255.714 1120.42 259.672 1116 259.672C1111.58 259.672 1108 255.714 1108 250.832V142.543Z" fill="url(#paint42_linear_221_938)"/>
<path d="M1136 130.388C1136 125.506 1139.58 121.548 1144 121.548C1148.42 121.548 1152 125.506 1152 130.388V250.832C1152 255.714 1148.42 259.672 1144 259.672C1139.58 259.672 1136 255.714 1136 250.832V130.388Z" fill="url(#paint43_linear_221_938)"/>
<path d="M1164 127.073C1164 122.191 1167.58 118.233 1172 118.233C1176.42 118.233 1180 122.191 1180 127.073V250.832C1180 255.714 1176.42 259.672 1172 259.672C1167.58 259.672 1164 255.714 1164 250.832V127.073Z" fill="url(#paint44_linear_221_938)"/>
<path d="M1192 133.703C1192 128.821 1195.58 124.863 1200 124.863C1204.42 124.863 1208 128.821 1208 133.703V250.832C1208 255.714 1204.42 259.672 1200 259.672C1195.58 259.672 1192 255.714 1192 250.832V133.703Z" fill="url(#paint45_linear_221_938)"/>
<path d="M1220 142.543C1220 137.661 1223.58 133.703 1228 133.703C1232.42 133.703 1236 137.661 1236 142.543V250.832C1236 255.714 1232.42 259.672 1228 259.672C1223.58 259.672 1220 255.714 1220 250.832V142.543Z" fill="url(#paint46_linear_221_938)"/>
<path d="M1248 160.223C1248 155.341 1251.58 151.383 1256 151.383C1260.42 151.383 1264 155.341 1264 160.223V250.832C1264 255.714 1260.42 259.672 1256 259.672C1251.58 259.672 1248 255.714 1248 250.832V160.223Z" fill="url(#paint47_linear_221_938)"/>
<path d="M1276 169.063C1276 164.181 1279.58 160.223 1284 160.223C1288.42 160.223 1292 164.181 1292 169.063V250.832C1292 255.714 1288.42 259.672 1284 259.672C1279.58 259.672 1276 255.714 1276 250.832V169.063Z" fill="url(#paint48_linear_221_938)"/>
<path d="M1304 169.063C1304 164.181 1307.58 160.223 1312 160.223C1316.42 160.223 1320 164.181 1320 169.063V250.832C1320 255.714 1316.42 259.672 1312 259.672C1307.58 259.672 1304 255.714 1304 250.832V169.063Z" fill="url(#paint49_linear_221_938)"/>
<path d="M1332 176.798C1332 171.916 1335.58 167.958 1340 167.958C1344.42 167.958 1348 171.916 1348 176.798V250.832C1348 255.714 1344.42 259.672 1340 259.672C1335.58 259.672 1332 255.714 1332 250.832V176.798Z" fill="url(#paint50_linear_221_938)"/>
<path d="M1360 191.162C1360 186.28 1363.58 182.323 1368 182.323C1372.42 182.323 1376 186.28 1376 191.162V250.832C1376 255.714 1372.42 259.672 1368 259.672C1363.58 259.672 1360 255.714 1360 250.832V191.162Z" fill="url(#paint51_linear_221_938)"/>
<path d="M1388 194.477C1388 189.595 1391.58 185.638 1396 185.638C1400.42 185.638 1404 189.595 1404 194.477V250.832C1404 255.714 1400.42 259.672 1396 259.672C1391.58 259.672 1388 255.714 1388 250.832V194.477Z" fill="url(#paint52_linear_221_938)"/>
<path d="M1416 212.157C1416 207.275 1419.58 203.317 1424 203.317C1428.42 203.317 1432 207.275 1432 212.157V250.832C1432 255.714 1428.42 259.672 1424 259.672C1419.58 259.672 1416 255.714 1416 250.832V212.157Z" fill="url(#paint53_linear_221_938)"/>
<path d="M1444 216.577C1444 211.695 1447.58 207.737 1452 207.737C1456.42 207.737 1460 211.695 1460 216.577V250.832C1460 255.714 1456.42 259.672 1452 259.672C1447.58 259.672 1444 255.714 1444 250.832V216.577Z" fill="url(#paint54_linear_221_938)"/>
<path d="M1472 216.577C1472 211.695 1475.58 207.737 1480 207.737C1484.42 207.737 1488 211.695 1488 216.577V250.832C1488 255.714 1484.42 259.672 1480 259.672C1475.58 259.672 1472 255.714 1472 250.832V216.577Z" fill="url(#paint55_linear_221_938)"/>
<path d="M1500 209.947C1500 205.065 1503.58 201.107 1508 201.107C1512.42 201.107 1516 205.065 1516 209.947V250.832C1516 255.714 1512.42 259.672 1508 259.672C1503.58 259.672 1500 255.714 1500 250.832V209.947Z" fill="url(#paint56_linear_221_938)"/>
<path d="M1528 194.477C1528 189.595 1531.58 185.638 1536 185.638C1540.42 185.638 1544 189.595 1544 194.477V250.832C1544 255.714 1540.42 259.672 1536 259.672C1531.58 259.672 1528 255.714 1528 250.832V194.477Z" fill="url(#paint57_linear_221_938)"/>
<path d="M1556 194.477C1556 189.595 1559.58 185.638 1564 185.638C1568.42 185.638 1572 189.595 1572 194.477V250.832C1572 255.714 1568.42 259.672 1564 259.672C1559.58 259.672 1556 255.714 1556 250.832V194.477Z" fill="url(#paint58_linear_221_938)"/>
<path d="M1584 201.107C1584 196.225 1587.58 192.267 1592 192.267C1596.42 192.267 1600 196.225 1600 201.107V250.832C1600 255.714 1596.42 259.672 1592 259.672C1587.58 259.672 1584 255.714 1584 250.832V201.107Z" fill="url(#paint59_linear_221_938)"/>
<path d="M100 277.351C100 273.69 102.686 270.721 106 270.721H110C113.314 270.721 116 273.69 116 277.351C116 281.013 113.314 283.981 110 283.981H106C102.686 283.981 100 281.013 100 277.351Z" fill="url(#paint60_linear_221_938)"/>
<path d="M128 279.009C128 274.432 131.358 270.721 135.5 270.721H136.5C140.642 270.721 144 274.432 144 279.009C144 283.586 140.642 287.296 136.5 287.296H135.5C131.358 287.296 128 283.586 128 279.009Z" fill="url(#paint61_linear_221_938)"/>
<path d="M156 279.561C156 274.679 159.582 270.721 164 270.721C168.418 270.721 172 274.679 172 279.561V281.771C172 286.653 168.418 290.611 164 290.611C159.582 290.611 156 286.653 156 281.771V279.561Z" fill="url(#paint62_linear_221_938)"/>
<path d="M184 279.561C184 274.679 187.582 270.721 192 270.721C196.418 270.721 200 274.679 200 279.561V287.296C200 292.178 196.418 296.136 192 296.136C187.582 296.136 184 292.178 184 287.296V279.561Z" fill="url(#paint63_linear_221_938)"/>
<path d="M212 279.561C212 274.679 215.582 270.721 220 270.721C224.418 270.721 228 274.679 228 279.561V295.031C228 299.913 224.418 303.871 220 303.871C215.582 303.871 212 299.913 212 295.031V279.561Z" fill="url(#paint64_linear_221_938)"/>
<path d="M240 279.561C240 274.679 243.582 270.721 248 270.721C252.418 270.721 256 274.679 256 279.561V299.451C256 304.333 252.418 308.291 248 308.291C243.582 308.291 240 304.333 240 299.451V279.561Z" fill="url(#paint65_linear_221_938)"/>
<path d="M268 279.561C268 274.679 271.582 270.721 276 270.721C280.418 270.721 284 274.679 284 279.561V304.976C284 309.858 280.418 313.816 276 313.816C271.582 313.816 268 309.858 268 304.976V279.561Z" fill="url(#paint66_linear_221_938)"/>
<path d="M296 279.561C296 274.679 299.582 270.721 304 270.721C308.418 270.721 312 274.679 312 279.561V313.816C312 318.698 308.418 322.656 304 322.656C299.582 322.656 296 318.698 296 313.816V279.561Z" fill="url(#paint67_linear_221_938)"/>
<path d="M324 279.561C324 274.679 327.582 270.721 332 270.721C336.418 270.721 340 274.679 340 279.561V324.866C340 329.748 336.418 333.706 332 333.706C327.582 333.706 324 329.748 324 324.866V279.561Z" fill="url(#paint68_linear_221_938)"/>
<path d="M352 279.561C352 274.679 355.582 270.721 360 270.721C364.418 270.721 368 274.679 368 279.561V329.286C368 334.168 364.418 338.126 360 338.126C355.582 338.126 352 334.168 352 329.286V279.561Z" fill="url(#paint69_linear_221_938)"/>
<path d="M380 279.561C380 274.679 383.582 270.721 388 270.721C392.418 270.721 396 274.679 396 279.561V332.601C396 337.483 392.418 341.441 388 341.441C383.582 341.441 380 337.483 380 332.601V279.561Z" fill="url(#paint70_linear_221_938)"/>
<path d="M408 279.561C408 274.679 411.582 270.721 416 270.721C420.418 270.721 424 274.679 424 279.561V332.601C424 337.483 420.418 341.441 416 341.441C411.582 341.441 408 337.483 408 332.601V279.561Z" fill="url(#paint71_linear_221_938)"/>
<path d="M436 279.561C436 274.679 439.582 270.721 444 270.721C448.418 270.721 452 274.679 452 279.561V334.811C452 339.693 448.418 343.65 444 343.65C439.582 343.65 436 339.693 436 334.811V279.561Z" fill="url(#paint72_linear_221_938)"/>
<path d="M464 279.561C464 274.679 467.582 270.721 472 270.721C476.418 270.721 480 274.679 480 279.561V334.811C480 339.693 476.418 343.65 472 343.65C467.582 343.65 464 339.693 464 334.811V279.561Z" fill="url(#paint73_linear_221_938)"/>
<path d="M492 279.561C492 274.679 495.582 270.721 500 270.721C504.418 270.721 508 274.679 508 279.561V339.231C508 344.113 504.418 348.07 500 348.07C495.582 348.07 492 344.113 492 339.231V279.561Z" fill="url(#paint74_linear_221_938)"/>
<path d="M520 279.561C520 274.679 523.582 270.721 528 270.721C532.418 270.721 536 274.679 536 279.561V342.546C536 347.428 532.418 351.385 528 351.385C523.582 351.385 520 347.428 520 342.546V279.561Z" fill="url(#paint75_linear_221_938)"/>
<path d="M548 279.561C548 274.679 551.582 270.721 556 270.721C560.418 270.721 564 274.679 564 279.561V351.385C564 356.268 560.418 360.225 556 360.225C551.582 360.225 548 356.268 548 351.385V279.561Z" fill="url(#paint76_linear_221_938)"/>
<path d="M576 279.561C576 274.679 579.582 270.721 584 270.721C588.418 270.721 592 274.679 592 279.561V360.225C592 365.107 588.418 369.065 584 369.065C579.582 369.065 576 365.107 576 360.225V279.561Z" fill="url(#paint77_linear_221_938)"/>
<path d="M604 279.561C604 274.679 607.582 270.721 612 270.721C616.418 270.721 620 274.679 620 279.561V373.485C620 378.367 616.418 382.325 612 382.325C607.582 382.325 604 378.367 604 373.485V279.561Z" fill="url(#paint78_linear_221_938)"/>
<path d="M632 279.561C632 274.679 635.582 270.721 640 270.721C644.418 270.721 648 274.679 648 279.561V387.85C648 392.732 644.418 396.69 640 396.69C635.582 396.69 632 392.732 632 387.85V279.561Z" fill="url(#paint79_linear_221_938)"/>
<path d="M660 279.561C660 274.679 663.582 270.721 668 270.721C672.418 270.721 676 274.679 676 279.561V396.69C676 401.572 672.418 405.53 668 405.53C663.582 405.53 660 401.572 660 396.69V279.561Z" fill="url(#paint80_linear_221_938)"/>
<path d="M688 279.561C688 274.679 691.582 270.721 696 270.721C700.418 270.721 704 274.679 704 279.561V407.74C704 412.622 700.418 416.58 696 416.58C691.582 416.58 688 412.622 688 407.74V279.561Z" fill="url(#paint81_linear_221_938)"/>
<path d="M716 279.561C716 274.679 719.582 270.721 724 270.721C728.418 270.721 732 274.679 732 279.561V412.16C732 417.042 728.418 420.999 724 420.999C719.582 420.999 716 417.042 716 412.16V279.561Z" fill="url(#paint82_linear_221_938)"/>
<path d="M744 279.561C744 274.679 747.582 270.721 752 270.721C756.418 270.721 760 274.679 760 279.561V420.999C760 425.882 756.418 429.839 752 429.839C747.582 429.839 744 425.882 744 420.999V279.561Z" fill="url(#paint83_linear_221_938)"/>
<path d="M772 279.561C772 274.679 775.582 270.721 780 270.721C784.418 270.721 788 274.679 788 279.561V420.999C788 425.882 784.418 429.839 780 429.839C775.582 429.839 772 425.882 772 420.999V279.561Z" fill="url(#paint84_linear_221_938)"/>
<path d="M800 279.561C800 274.679 803.582 270.721 808 270.721C812.418 270.721 816 274.679 816 279.561V420.999C816 425.882 812.418 429.839 808 429.839C803.582 429.839 800 425.882 800 420.999V279.561Z" fill="url(#paint85_linear_221_938)"/>
<path d="M828 279.561C828 274.679 831.582 270.721 836 270.721C840.418 270.721 844 274.679 844 279.561V420.999C844 425.882 840.418 429.839 836 429.839C831.582 429.839 828 425.882 828 420.999V279.561Z" fill="url(#paint86_linear_221_938)"/>
<path d="M856 279.561C856 274.679 859.582 270.721 864 270.721C868.418 270.721 872 274.679 872 279.561V407.74C872 412.622 868.418 416.58 864 416.58C859.582 416.58 856 412.622 856 407.74V279.561Z" fill="url(#paint87_linear_221_938)"/>
<path d="M884 279.561C884 274.679 887.582 270.721 892 270.721C896.418 270.721 900 274.679 900 279.561V396.69C900 401.572 896.418 405.53 892 405.53C887.582 405.53 884 401.572 884 396.69V279.561Z" fill="url(#paint88_linear_221_938)"/>
<path d="M912 279.561C912 274.679 915.582 270.721 920 270.721C924.418 270.721 928 274.679 928 279.561V382.325C928 387.207 924.418 391.165 920 391.165C915.582 391.165 912 387.207 912 382.325V279.561Z" fill="url(#paint89_linear_221_938)"/>
<path d="M940 279.561C940 274.679 943.582 270.721 948 270.721C952.418 270.721 956 274.679 956 279.561V364.645C956 369.527 952.418 373.485 948 373.485C943.582 373.485 940 369.527 940 364.645V279.561Z" fill="url(#paint90_linear_221_938)"/>
<path d="M968 279.561C968 274.679 971.582 270.721 976 270.721C980.418 270.721 984 274.679 984 279.561V350.28C984 355.163 980.418 359.12 976 359.12C971.582 359.12 968 355.163 968 350.28V279.561Z" fill="url(#paint91_linear_221_938)"/>
<path d="M996 279.561C996 274.679 999.582 270.721 1004 270.721C1008.42 270.721 1012 274.679 1012 279.561V334.811C1012 339.693 1008.42 343.65 1004 343.65C999.582 343.65 996 339.693 996 334.811V279.561Z" fill="url(#paint92_linear_221_938)"/>
<path d="M1024 279.561C1024 274.679 1027.58 270.721 1032 270.721C1036.42 270.721 1040 274.679 1040 279.561V327.076C1040 331.958 1036.42 335.916 1032 335.916C1027.58 335.916 1024 331.958 1024 327.076V279.561Z" fill="url(#paint93_linear_221_938)"/>
<path d="M1052 279.561C1052 274.679 1055.58 270.721 1060 270.721C1064.42 270.721 1068 274.679 1068 279.561V319.341C1068 324.223 1064.42 328.181 1060 328.181C1055.58 328.181 1052 324.223 1052 319.341V279.561Z" fill="url(#paint94_linear_221_938)"/>
<path d="M1080 279.561C1080 274.679 1083.58 270.721 1088 270.721C1092.42 270.721 1096 274.679 1096 279.561V314.921C1096 319.803 1092.42 323.761 1088 323.761C1083.58 323.761 1080 319.803 1080 314.921V279.561Z" fill="url(#paint95_linear_221_938)"/>
<path d="M1108 279.561C1108 274.679 1111.58 270.721 1116 270.721C1120.42 270.721 1124 274.679 1124 279.561V313.816C1124 318.698 1120.42 322.656 1116 322.656C1111.58 322.656 1108 318.698 1108 313.816V279.561Z" fill="url(#paint96_linear_221_938)"/>
<path d="M1136 279.561C1136 274.679 1139.58 270.721 1144 270.721C1148.42 270.721 1152 274.679 1152 279.561V313.816C1152 318.698 1148.42 322.656 1144 322.656C1139.58 322.656 1136 318.698 1136 313.816V279.561Z" fill="url(#paint97_linear_221_938)"/>
<path d="M1164 279.561C1164 274.679 1167.58 270.721 1172 270.721C1176.42 270.721 1180 274.679 1180 279.561V311.606C1180 316.488 1176.42 320.446 1172 320.446C1167.58 320.446 1164 316.488 1164 311.606V279.561Z" fill="url(#paint98_linear_221_938)"/>
<path d="M1192 279.561C1192 274.679 1195.58 270.721 1200 270.721C1204.42 270.721 1208 274.679 1208 279.561V307.186C1208 312.068 1204.42 316.026 1200 316.026C1195.58 316.026 1192 312.068 1192 307.186V279.561Z" fill="url(#paint99_linear_221_938)"/>
<path d="M1220 279.561C1220 274.679 1223.58 270.721 1228 270.721C1232.42 270.721 1236 274.679 1236 279.561V303.871C1236 308.753 1232.42 312.711 1228 312.711C1223.58 312.711 1220 308.753 1220 303.871V279.561Z" fill="url(#paint100_linear_221_938)"/>
<path d="M1248 279.561C1248 274.679 1251.58 270.721 1256 270.721C1260.42 270.721 1264 274.679 1264 279.561V297.241C1264 302.123 1260.42 306.081 1256 306.081C1251.58 306.081 1248 302.123 1248 297.241V279.561Z" fill="url(#paint101_linear_221_938)"/>
<path d="M1276 279.561C1276 274.679 1279.58 270.721 1284 270.721C1288.42 270.721 1292 274.679 1292 279.561V289.506C1292 294.388 1288.42 298.346 1284 298.346C1279.58 298.346 1276 294.388 1276 289.506V279.561Z" fill="url(#paint102_linear_221_938)"/>
<path d="M1304 279.561C1304 274.679 1307.58 270.721 1312 270.721C1316.42 270.721 1320 274.679 1320 279.561V280.666C1320 285.548 1316.42 289.506 1312 289.506C1307.58 289.506 1304 285.548 1304 280.666V279.561Z" fill="url(#paint103_linear_221_938)"/>
<path d="M1332 278.456C1332 274.184 1335.13 270.721 1339 270.721H1341C1344.87 270.721 1348 274.184 1348 278.456C1348 282.728 1344.87 286.191 1341 286.191H1339C1335.13 286.191 1332 282.728 1332 278.456Z" fill="url(#paint104_linear_221_938)"/>
<path d="M1360 275.694C1360 272.948 1362.01 270.721 1364.5 270.721H1371.5C1373.99 270.721 1376 272.948 1376 275.694C1376 278.44 1373.99 280.666 1371.5 280.666H1364.5C1362.01 280.666 1360 278.44 1360 275.694Z" fill="url(#paint105_linear_221_938)"/>
<defs>
<linearGradient id="paint0_linear_221_938" x1="696.5" y1="0" x2="696.5" y2="530.393" gradientUnits="userSpaceOnUse">
<stop stop-color="#FF5CB2"/>
<stop offset="1" stop-color="#C625FF"/>
</linearGradient>
<linearGradient id="paint1_linear_221_938" x1="696.5" y1="0" x2="696.5" y2="530.393" gradientUnits="userSpaceOnUse">
<stop stop-color="#FF5CB2"/>
<stop offset="1" stop-color="#C625FF"/>
</linearGradient>
<linearGradient id="paint2_linear_221_938" x1="696.5" y1="0" x2="696.5" y2="530.393" gradientUnits="userSpaceOnUse">
<stop stop-color="#FF5CB2"/>
<stop offset="1" stop-color="#C625FF"/>
</linearGradient>
<linearGradient id="paint3_linear_221_938" x1="696.5" y1="0" x2="696.5" y2="530.393" gradientUnits="userSpaceOnUse">
<stop stop-color="#FF5CB2"/>
<stop offset="1" stop-color="#C625FF"/>
</linearGradient>
<linearGradient id="paint4_linear_221_938" x1="696.5" y1="0" x2="696.5" y2="530.393" gradientUnits="userSpaceOnUse">
<stop stop-color="#FF5CB2"/>
<stop offset="1" stop-color="#C625FF"/>
</linearGradient>
<linearGradient id="paint5_linear_221_938" x1="696.5" y1="0" x2="696.5" y2="530.393" gradientUnits="userSpaceOnUse">
<stop stop-color="#FF5CB2"/>
<stop offset="1" stop-color="#C625FF"/>
</linearGradient>
<linearGradient id="paint6_linear_221_938" x1="696.5" y1="0" x2="696.5" y2="530.393" gradientUnits="userSpaceOnUse">
<stop stop-color="#FF5CB2"/>
<stop offset="1" stop-color="#C625FF"/>
</linearGradient>
<linearGradient id="paint7_linear_221_938" x1="696.5" y1="0" x2="696.5" y2="530.393" gradientUnits="userSpaceOnUse">
<stop stop-color="#FF5CB2"/>
<stop offset="1" stop-color="#C625FF"/>
</linearGradient>
<linearGradient id="paint8_linear_221_938" x1="696.5" y1="0" x2="696.5" y2="530.393" gradientUnits="userSpaceOnUse">
<stop stop-color="#FF5CB2"/>
<stop offset="1" stop-color="#C625FF"/>
</linearGradient>
<linearGradient id="paint9_linear_221_938" x1="696.5" y1="0" x2="696.5" y2="530.393" gradientUnits="userSpaceOnUse">
<stop stop-color="#FF5CB2"/>
<stop offset="1" stop-color="#C625FF"/>
</linearGradient>
<linearGradient id="paint10_linear_221_938" x1="696.5" y1="0" x2="696.5" y2="530.393" gradientUnits="userSpaceOnUse">
<stop stop-color="#FF5CB2"/>
<stop offset="1" stop-color="#C625FF"/>
</linearGradient>
<linearGradient id="paint11_linear_221_938" x1="696.5" y1="0" x2="696.5" y2="530.393" gradientUnits="userSpaceOnUse">
<stop stop-color="#FF5CB2"/>
<stop offset="1" stop-color="#C625FF"/>
</linearGradient>
<linearGradient id="paint12_linear_221_938" x1="696.5" y1="0" x2="696.5" y2="530.393" gradientUnits="userSpaceOnUse">
<stop stop-color="#FF5CB2"/>
<stop offset="1" stop-color="#C625FF"/>
</linearGradient>
<linearGradient id="paint13_linear_221_938" x1="696.5" y1="0" x2="696.5" y2="530.393" gradientUnits="userSpaceOnUse">
<stop stop-color="#FF5CB2"/>
<stop offset="1" stop-color="#C625FF"/>
</linearGradient>
<linearGradient id="paint14_linear_221_938" x1="696.5" y1="0" x2="696.5" y2="530.393" gradientUnits="userSpaceOnUse">
<stop stop-color="#FF5CB2"/>
<stop offset="1" stop-color="#C625FF"/>
</linearGradient>
<linearGradient id="paint15_linear_221_938" x1="696.5" y1="0" x2="696.5" y2="530.393" gradientUnits="userSpaceOnUse">
<stop stop-color="#FF5CB2"/>
<stop offset="1" stop-color="#C625FF"/>
</linearGradient>
<linearGradient id="paint16_linear_221_938" x1="696.5" y1="0" x2="696.5" y2="530.393" gradientUnits="userSpaceOnUse">
<stop stop-color="#FF5CB2"/>
<stop offset="1" stop-color="#C625FF"/>
</linearGradient>
<linearGradient id="paint17_linear_221_938" x1="696.5" y1="0" x2="696.5" y2="530.393" gradientUnits="userSpaceOnUse">
<stop stop-color="#FF5CB2"/>
<stop offset="1" stop-color="#C625FF"/>
</linearGradient>
<linearGradient id="paint18_linear_221_938" x1="696.5" y1="0" x2="696.5" y2="530.393" gradientUnits="userSpaceOnUse">
<stop stop-color="#FF5CB2"/>
<stop offset="1" stop-color="#C625FF"/>
</linearGradient>
<linearGradient id="paint19_linear_221_938" x1="696.5" y1="0" x2="696.5" y2="530.393" gradientUnits="userSpaceOnUse">
<stop stop-color="#FF5CB2"/>
<stop offset="1" stop-color="#C625FF"/>
</linearGradient>
<linearGradient id="paint20_linear_221_938" x1="696.5" y1="0" x2="696.5" y2="530.393" gradientUnits="userSpaceOnUse">
<stop stop-color="#FF5CB2"/>
<stop offset="1" stop-color="#C625FF"/>
</linearGradient>
<linearGradient id="paint21_linear_221_938" x1="696.5" y1="0" x2="696.5" y2="530.393" gradientUnits="userSpaceOnUse">
<stop stop-color="#FF5CB2"/>
<stop offset="1" stop-color="#C625FF"/>
</linearGradient>
<linearGradient id="paint22_linear_221_938" x1="696.5" y1="0" x2="696.5" y2="530.393" gradientUnits="userSpaceOnUse">
<stop stop-color="#FF5CB2"/>
<stop offset="1" stop-color="#C625FF"/>
</linearGradient>
<linearGradient id="paint23_linear_221_938" x1="696.5" y1="0" x2="696.5" y2="530.393" gradientUnits="userSpaceOnUse">
<stop stop-color="#FF5CB2"/>
<stop offset="1" stop-color="#C625FF"/>
</linearGradient>
<linearGradient id="paint24_linear_221_938" x1="696.5" y1="0" x2="696.5" y2="530.393" gradientUnits="userSpaceOnUse">
<stop stop-color="#FF5CB2"/>
<stop offset="1" stop-color="#C625FF"/>
</linearGradient>
<linearGradient id="paint25_linear_221_938" x1="696.5" y1="0" x2="696.5" y2="530.393" gradientUnits="userSpaceOnUse">
<stop stop-color="#FF5CB2"/>
<stop offset="1" stop-color="#C625FF"/>
</linearGradient>
<linearGradient id="paint26_linear_221_938" x1="696.5" y1="0" x2="696.5" y2="530.393" gradientUnits="userSpaceOnUse">
<stop stop-color="#FF5CB2"/>
<stop offset="1" stop-color="#C625FF"/>
</linearGradient>
<linearGradient id="paint27_linear_221_938" x1="696.5" y1="0" x2="696.5" y2="530.393" gradientUnits="userSpaceOnUse">
<stop stop-color="#FF5CB2"/>
<stop offset="1" stop-color="#C625FF"/>
</linearGradient>
<linearGradient id="paint28_linear_221_938" x1="696.5" y1="0" x2="696.5" y2="530.393" gradientUnits="userSpaceOnUse">
<stop stop-color="#FF5CB2"/>
<stop offset="1" stop-color="#C625FF"/>
</linearGradient>
<linearGradient id="paint29_linear_221_938" x1="696.5" y1="0" x2="696.5" y2="530.393" gradientUnits="userSpaceOnUse">
<stop stop-color="#FF5CB2"/>
<stop offset="1" stop-color="#C625FF"/>
</linearGradient>
<linearGradient id="paint30_linear_221_938" x1="696.5" y1="0" x2="696.5" y2="530.393" gradientUnits="userSpaceOnUse">
<stop stop-color="#FF5CB2"/>
<stop offset="1" stop-color="#C625FF"/>
</linearGradient>
<linearGradient id="paint31_linear_221_938" x1="696.5" y1="0" x2="696.5" y2="530.393" gradientUnits="userSpaceOnUse">
<stop stop-color="#FF5CB2"/>
<stop offset="1" stop-color="#C625FF"/>
</linearGradient>
<linearGradient id="paint32_linear_221_938" x1="696.5" y1="0" x2="696.5" y2="530.393" gradientUnits="userSpaceOnUse">
<stop stop-color="#FF5CB2"/>
<stop offset="1" stop-color="#C625FF"/>
</linearGradient>
<linearGradient id="paint33_linear_221_938" x1="696.5" y1="0" x2="696.5" y2="530.393" gradientUnits="userSpaceOnUse">
<stop stop-color="#FF5CB2"/>
<stop offset="1" stop-color="#C625FF"/>
</linearGradient>
<linearGradient id="paint34_linear_221_938" x1="696.5" y1="0" x2="696.5" y2="530.393" gradientUnits="userSpaceOnUse">
<stop stop-color="#FF5CB2"/>
<stop offset="1" stop-color="#C625FF"/>
</linearGradient>
<linearGradient id="paint35_linear_221_938" x1="696.5" y1="0" x2="696.5" y2="530.393" gradientUnits="userSpaceOnUse">
<stop stop-color="#FF5CB2"/>
<stop offset="1" stop-color="#C625FF"/>
</linearGradient>
<linearGradient id="paint36_linear_221_938" x1="696.5" y1="0" x2="696.5" y2="530.393" gradientUnits="userSpaceOnUse">
<stop stop-color="#FF5CB2"/>
<stop offset="1" stop-color="#C625FF"/>
</linearGradient>
<linearGradient id="paint37_linear_221_938" x1="696.5" y1="0" x2="696.5" y2="530.393" gradientUnits="userSpaceOnUse">
<stop stop-color="#FF5CB2"/>
<stop offset="1" stop-color="#C625FF"/>
</linearGradient>
<linearGradient id="paint38_linear_221_938" x1="696.5" y1="0" x2="696.5" y2="530.393" gradientUnits="userSpaceOnUse">
<stop stop-color="#FF5CB2"/>
<stop offset="1" stop-color="#C625FF"/>
</linearGradient>
<linearGradient id="paint39_linear_221_938" x1="696.5" y1="0" x2="696.5" y2="530.393" gradientUnits="userSpaceOnUse">
<stop stop-color="#FF5CB2"/>
<stop offset="1" stop-color="#C625FF"/>
</linearGradient>
<linearGradient id="paint40_linear_221_938" x1="696.5" y1="0" x2="696.5" y2="530.393" gradientUnits="userSpaceOnUse">
<stop stop-color="#FF5CB2"/>
<stop offset="1" stop-color="#C625FF"/>
</linearGradient>
<linearGradient id="paint41_linear_221_938" x1="696.5" y1="0" x2="696.5" y2="530.393" gradientUnits="userSpaceOnUse">
<stop stop-color="#FF5CB2"/>
<stop offset="1" stop-color="#C625FF"/>
</linearGradient>
<linearGradient id="paint42_linear_221_938" x1="696.5" y1="0" x2="696.5" y2="530.393" gradientUnits="userSpaceOnUse">
<stop stop-color="#FF5CB2"/>
<stop offset="1" stop-color="#C625FF"/>
</linearGradient>
<linearGradient id="paint43_linear_221_938" x1="696.5" y1="0" x2="696.5" y2="530.393" gradientUnits="userSpaceOnUse">
<stop stop-color="#FF5CB2"/>
<stop offset="1" stop-color="#C625FF"/>
</linearGradient>
<linearGradient id="paint44_linear_221_938" x1="696.5" y1="0" x2="696.5" y2="530.393" gradientUnits="userSpaceOnUse">
<stop stop-color="#FF5CB2"/>
<stop offset="1" stop-color="#C625FF"/>
</linearGradient>
<linearGradient id="paint45_linear_221_938" x1="696.5" y1="0" x2="696.5" y2="530.393" gradientUnits="userSpaceOnUse">
<stop stop-color="#FF5CB2"/>
<stop offset="1" stop-color="#C625FF"/>
</linearGradient>
<linearGradient id="paint46_linear_221_938" x1="696.5" y1="0" x2="696.5" y2="530.393" gradientUnits="userSpaceOnUse">
<stop stop-color="#FF5CB2"/>
<stop offset="1" stop-color="#C625FF"/>
</linearGradient>
<linearGradient id="paint47_linear_221_938" x1="696.5" y1="0" x2="696.5" y2="530.393" gradientUnits="userSpaceOnUse">
<stop stop-color="#FF5CB2"/>
<stop offset="1" stop-color="#C625FF"/>
</linearGradient>
<linearGradient id="paint48_linear_221_938" x1="696.5" y1="0" x2="696.5" y2="530.393" gradientUnits="userSpaceOnUse">
<stop stop-color="#FF5CB2"/>
<stop offset="1" stop-color="#C625FF"/>
</linearGradient>
<linearGradient id="paint49_linear_221_938" x1="696.5" y1="0" x2="696.5" y2="530.393" gradientUnits="userSpaceOnUse">
<stop stop-color="#FF5CB2"/>
<stop offset="1" stop-color="#C625FF"/>
</linearGradient>
<linearGradient id="paint50_linear_221_938" x1="696.5" y1="0" x2="696.5" y2="530.393" gradientUnits="userSpaceOnUse">
<stop stop-color="#FF5CB2"/>
<stop offset="1" stop-color="#C625FF"/>
</linearGradient>
<linearGradient id="paint51_linear_221_938" x1="696.5" y1="0" x2="696.5" y2="530.393" gradientUnits="userSpaceOnUse">
<stop stop-color="#FF5CB2"/>
<stop offset="1" stop-color="#C625FF"/>
</linearGradient>
<linearGradient id="paint52_linear_221_938" x1="696.5" y1="0" x2="696.5" y2="530.393" gradientUnits="userSpaceOnUse">
<stop stop-color="#FF5CB2"/>
<stop offset="1" stop-color="#C625FF"/>
</linearGradient>
<linearGradient id="paint53_linear_221_938" x1="696.5" y1="0" x2="696.5" y2="530.393" gradientUnits="userSpaceOnUse">
<stop stop-color="#FF5CB2"/>
<stop offset="1" stop-color="#C625FF"/>
</linearGradient>
<linearGradient id="paint54_linear_221_938" x1="696.5" y1="0" x2="696.5" y2="530.393" gradientUnits="userSpaceOnUse">
<stop stop-color="#FF5CB2"/>
<stop offset="1" stop-color="#C625FF"/>
</linearGradient>
<linearGradient id="paint55_linear_221_938" x1="696.5" y1="0" x2="696.5" y2="530.393" gradientUnits="userSpaceOnUse">
<stop stop-color="#FF5CB2"/>
<stop offset="1" stop-color="#C625FF"/>
</linearGradient>
<linearGradient id="paint56_linear_221_938" x1="696.5" y1="0" x2="696.5" y2="530.393" gradientUnits="userSpaceOnUse">
<stop stop-color="#FF5CB2"/>
<stop offset="1" stop-color="#C625FF"/>
</linearGradient>
<linearGradient id="paint57_linear_221_938" x1="696.5" y1="0" x2="696.5" y2="530.393" gradientUnits="userSpaceOnUse">
<stop stop-color="#FF5CB2"/>
<stop offset="1" stop-color="#C625FF"/>
</linearGradient>
<linearGradient id="paint58_linear_221_938" x1="696.5" y1="0" x2="696.5" y2="530.393" gradientUnits="userSpaceOnUse">
<stop stop-color="#FF5CB2"/>
<stop offset="1" stop-color="#C625FF"/>
</linearGradient>
<linearGradient id="paint59_linear_221_938" x1="696.5" y1="0" x2="696.5" y2="530.393" gradientUnits="userSpaceOnUse">
<stop stop-color="#FF5CB2"/>
<stop offset="1" stop-color="#C625FF"/>
</linearGradient>
<linearGradient id="paint60_linear_221_938" x1="1368" y1="270.721" x2="1368" y2="280.666" gradientUnits="userSpaceOnUse">
<stop stop-color="#4742FF"/>
<stop offset="1" stop-color="#706CFB"/>
</linearGradient>
<linearGradient id="paint61_linear_221_938" x1="1368" y1="270.721" x2="1368" y2="280.666" gradientUnits="userSpaceOnUse">
<stop stop-color="#4742FF"/>
<stop offset="1" stop-color="#706CFB"/>
</linearGradient>
<linearGradient id="paint62_linear_221_938" x1="1368" y1="270.721" x2="1368" y2="280.666" gradientUnits="userSpaceOnUse">
<stop stop-color="#4742FF"/>
<stop offset="1" stop-color="#706CFB"/>
</linearGradient>
<linearGradient id="paint63_linear_221_938" x1="1368" y1="270.721" x2="1368" y2="280.666" gradientUnits="userSpaceOnUse">
<stop stop-color="#4742FF"/>
<stop offset="1" stop-color="#706CFB"/>
</linearGradient>
<linearGradient id="paint64_linear_221_938" x1="1368" y1="270.721" x2="1368" y2="280.666" gradientUnits="userSpaceOnUse">
<stop stop-color="#4742FF"/>
<stop offset="1" stop-color="#706CFB"/>
</linearGradient>
<linearGradient id="paint65_linear_221_938" x1="1368" y1="270.721" x2="1368" y2="280.666" gradientUnits="userSpaceOnUse">
<stop stop-color="#4742FF"/>
<stop offset="1" stop-color="#706CFB"/>
</linearGradient>
<linearGradient id="paint66_linear_221_938" x1="1368" y1="270.721" x2="1368" y2="280.666" gradientUnits="userSpaceOnUse">
<stop stop-color="#4742FF"/>
<stop offset="1" stop-color="#706CFB"/>
</linearGradient>
<linearGradient id="paint67_linear_221_938" x1="1368" y1="270.721" x2="1368" y2="280.666" gradientUnits="userSpaceOnUse">
<stop stop-color="#4742FF"/>
<stop offset="1" stop-color="#706CFB"/>
</linearGradient>
<linearGradient id="paint68_linear_221_938" x1="1368" y1="270.721" x2="1368" y2="280.666" gradientUnits="userSpaceOnUse">
<stop stop-color="#4742FF"/>
<stop offset="1" stop-color="#706CFB"/>
</linearGradient>
<linearGradient id="paint69_linear_221_938" x1="1368" y1="270.721" x2="1368" y2="280.666" gradientUnits="userSpaceOnUse">
<stop stop-color="#4742FF"/>
<stop offset="1" stop-color="#706CFB"/>
</linearGradient>
<linearGradient id="paint70_linear_221_938" x1="1368" y1="270.721" x2="1368" y2="280.666" gradientUnits="userSpaceOnUse">
<stop stop-color="#4742FF"/>
<stop offset="1" stop-color="#706CFB"/>
</linearGradient>
<linearGradient id="paint71_linear_221_938" x1="1368" y1="270.721" x2="1368" y2="280.666" gradientUnits="userSpaceOnUse">
<stop stop-color="#4742FF"/>
<stop offset="1" stop-color="#706CFB"/>
</linearGradient>
<linearGradient id="paint72_linear_221_938" x1="1368" y1="270.721" x2="1368" y2="280.666" gradientUnits="userSpaceOnUse">
<stop stop-color="#4742FF"/>
<stop offset="1" stop-color="#706CFB"/>
</linearGradient>
<linearGradient id="paint73_linear_221_938" x1="1368" y1="270.721" x2="1368" y2="280.666" gradientUnits="userSpaceOnUse">
<stop stop-color="#4742FF"/>
<stop offset="1" stop-color="#706CFB"/>
</linearGradient>
<linearGradient id="paint74_linear_221_938" x1="1368" y1="270.721" x2="1368" y2="280.666" gradientUnits="userSpaceOnUse">
<stop stop-color="#4742FF"/>
<stop offset="1" stop-color="#706CFB"/>
</linearGradient>
<linearGradient id="paint75_linear_221_938" x1="1368" y1="270.721" x2="1368" y2="280.666" gradientUnits="userSpaceOnUse">
<stop stop-color="#4742FF"/>
<stop offset="1" stop-color="#706CFB"/>
</linearGradient>
<linearGradient id="paint76_linear_221_938" x1="1368" y1="270.721" x2="1368" y2="280.666" gradientUnits="userSpaceOnUse">
<stop stop-color="#4742FF"/>
<stop offset="1" stop-color="#706CFB"/>
</linearGradient>
<linearGradient id="paint77_linear_221_938" x1="1368" y1="270.721" x2="1368" y2="280.666" gradientUnits="userSpaceOnUse">
<stop stop-color="#4742FF"/>
<stop offset="1" stop-color="#706CFB"/>
</linearGradient>
<linearGradient id="paint78_linear_221_938" x1="1368" y1="270.721" x2="1368" y2="280.666" gradientUnits="userSpaceOnUse">
<stop stop-color="#4742FF"/>
<stop offset="1" stop-color="#706CFB"/>
</linearGradient>
<linearGradient id="paint79_linear_221_938" x1="1368" y1="270.721" x2="1368" y2="280.666" gradientUnits="userSpaceOnUse">
<stop stop-color="#4742FF"/>
<stop offset="1" stop-color="#706CFB"/>
</linearGradient>
<linearGradient id="paint80_linear_221_938" x1="1368" y1="270.721" x2="1368" y2="280.666" gradientUnits="userSpaceOnUse">
<stop stop-color="#4742FF"/>
<stop offset="1" stop-color="#706CFB"/>
</linearGradient>
<linearGradient id="paint81_linear_221_938" x1="1368" y1="270.721" x2="1368" y2="280.666" gradientUnits="userSpaceOnUse">
<stop stop-color="#4742FF"/>
<stop offset="1" stop-color="#706CFB"/>
</linearGradient>
<linearGradient id="paint82_linear_221_938" x1="1368" y1="270.721" x2="1368" y2="280.666" gradientUnits="userSpaceOnUse">
<stop stop-color="#4742FF"/>
<stop offset="1" stop-color="#706CFB"/>
</linearGradient>
<linearGradient id="paint83_linear_221_938" x1="1368" y1="270.721" x2="1368" y2="280.666" gradientUnits="userSpaceOnUse">
<stop stop-color="#4742FF"/>
<stop offset="1" stop-color="#706CFB"/>
</linearGradient>
<linearGradient id="paint84_linear_221_938" x1="1368" y1="270.721" x2="1368" y2="280.666" gradientUnits="userSpaceOnUse">
<stop stop-color="#4742FF"/>
<stop offset="1" stop-color="#706CFB"/>
</linearGradient>
<linearGradient id="paint85_linear_221_938" x1="1368" y1="270.721" x2="1368" y2="280.666" gradientUnits="userSpaceOnUse">
<stop stop-color="#4742FF"/>
<stop offset="1" stop-color="#706CFB"/>
</linearGradient>
<linearGradient id="paint86_linear_221_938" x1="1368" y1="270.721" x2="1368" y2="280.666" gradientUnits="userSpaceOnUse">
<stop stop-color="#4742FF"/>
<stop offset="1" stop-color="#706CFB"/>
</linearGradient>
<linearGradient id="paint87_linear_221_938" x1="1368" y1="270.721" x2="1368" y2="280.666" gradientUnits="userSpaceOnUse">
<stop stop-color="#4742FF"/>
<stop offset="1" stop-color="#706CFB"/>
</linearGradient>
<linearGradient id="paint88_linear_221_938" x1="1368" y1="270.721" x2="1368" y2="280.666" gradientUnits="userSpaceOnUse">
<stop stop-color="#4742FF"/>
<stop offset="1" stop-color="#706CFB"/>
</linearGradient>
<linearGradient id="paint89_linear_221_938" x1="1368" y1="270.721" x2="1368" y2="280.666" gradientUnits="userSpaceOnUse">
<stop stop-color="#4742FF"/>
<stop offset="1" stop-color="#706CFB"/>
</linearGradient>
<linearGradient id="paint90_linear_221_938" x1="1368" y1="270.721" x2="1368" y2="280.666" gradientUnits="userSpaceOnUse">
<stop stop-color="#4742FF"/>
<stop offset="1" stop-color="#706CFB"/>
</linearGradient>
<linearGradient id="paint91_linear_221_938" x1="1368" y1="270.721" x2="1368" y2="280.666" gradientUnits="userSpaceOnUse">
<stop stop-color="#4742FF"/>
<stop offset="1" stop-color="#706CFB"/>
</linearGradient>
<linearGradient id="paint92_linear_221_938" x1="1368" y1="270.721" x2="1368" y2="280.666" gradientUnits="userSpaceOnUse">
<stop stop-color="#4742FF"/>
<stop offset="1" stop-color="#706CFB"/>
</linearGradient>
<linearGradient id="paint93_linear_221_938" x1="1368" y1="270.721" x2="1368" y2="280.666" gradientUnits="userSpaceOnUse">
<stop stop-color="#4742FF"/>
<stop offset="1" stop-color="#706CFB"/>
</linearGradient>
<linearGradient id="paint94_linear_221_938" x1="1368" y1="270.721" x2="1368" y2="280.666" gradientUnits="userSpaceOnUse">
<stop stop-color="#4742FF"/>
<stop offset="1" stop-color="#706CFB"/>
</linearGradient>
<linearGradient id="paint95_linear_221_938" x1="1368" y1="270.721" x2="1368" y2="280.666" gradientUnits="userSpaceOnUse">
<stop stop-color="#4742FF"/>
<stop offset="1" stop-color="#706CFB"/>
</linearGradient>
<linearGradient id="paint96_linear_221_938" x1="1368" y1="270.721" x2="1368" y2="280.666" gradientUnits="userSpaceOnUse">
<stop stop-color="#4742FF"/>
<stop offset="1" stop-color="#706CFB"/>
</linearGradient>
<linearGradient id="paint97_linear_221_938" x1="1368" y1="270.721" x2="1368" y2="280.666" gradientUnits="userSpaceOnUse">
<stop stop-color="#4742FF"/>
<stop offset="1" stop-color="#706CFB"/>
</linearGradient>
<linearGradient id="paint98_linear_221_938" x1="1368" y1="270.721" x2="1368" y2="280.666" gradientUnits="userSpaceOnUse">
<stop stop-color="#4742FF"/>
<stop offset="1" stop-color="#706CFB"/>
</linearGradient>
<linearGradient id="paint99_linear_221_938" x1="1368" y1="270.721" x2="1368" y2="280.666" gradientUnits="userSpaceOnUse">
<stop stop-color="#4742FF"/>
<stop offset="1" stop-color="#706CFB"/>
</linearGradient>
<linearGradient id="paint100_linear_221_938" x1="1368" y1="270.721" x2="1368" y2="280.666" gradientUnits="userSpaceOnUse">
<stop stop-color="#4742FF"/>
<stop offset="1" stop-color="#706CFB"/>
</linearGradient>
<linearGradient id="paint101_linear_221_938" x1="1368" y1="270.721" x2="1368" y2="280.666" gradientUnits="userSpaceOnUse">
<stop stop-color="#4742FF"/>
<stop offset="1" stop-color="#706CFB"/>
</linearGradient>
<linearGradient id="paint102_linear_221_938" x1="1368" y1="270.721" x2="1368" y2="280.666" gradientUnits="userSpaceOnUse">
<stop stop-color="#4742FF"/>
<stop offset="1" stop-color="#706CFB"/>
</linearGradient>
<linearGradient id="paint103_linear_221_938" x1="1368" y1="270.721" x2="1368" y2="280.666" gradientUnits="userSpaceOnUse">
<stop stop-color="#4742FF"/>
<stop offset="1" stop-color="#706CFB"/>
</linearGradient>
<linearGradient id="paint104_linear_221_938" x1="1368" y1="270.721" x2="1368" y2="280.666" gradientUnits="userSpaceOnUse">
<stop stop-color="#4742FF"/>
<stop offset="1" stop-color="#706CFB"/>
</linearGradient>
<linearGradient id="paint105_linear_221_938" x1="1368" y1="270.721" x2="1368" y2="280.666" gradientUnits="userSpaceOnUse">
<stop stop-color="#4742FF"/>
<stop offset="1" stop-color="#706CFB"/>
</linearGradient>
</defs>
</svg>
